<?xml version="1.0" encoding="UTF-8" standalone="no"?>
<!DOCTYPE svg PUBLIC "-//W3C//DTD SVG 1.1//EN"
 "http://www.w3.org/Graphics/SVG/1.1/DTD/svg11.dtd">
<!-- Generated by graphviz version 2.43.0 (0)
 -->
<!-- Title: G Pages: 1 -->
<svg width="958pt" height="565pt"
 viewBox="0.00 0.00 958.00 565.00" xmlns="http://www.w3.org/2000/svg" xmlns:xlink="http://www.w3.org/1999/xlink">
<g id="graph0" class="graph" transform="scale(1 1) rotate(0) translate(4 561)">
<title>G</title>
<polygon fill="white" stroke="transparent" points="-4,4 -4,-561 954,-561 954,4 -4,4"/>
<g id="clust1" class="cluster">
<title>cluster_scc0</title>
<path fill="white" stroke="red" d="M412.34,-279.58C412.34,-279.58 818.34,-279.58 818.34,-279.58 824.34,-279.58 830.34,-285.58 830.34,-291.58 830.34,-291.58 830.34,-535.58 830.34,-535.58 830.34,-541.58 824.34,-547.58 818.34,-547.58 818.34,-547.58 412.34,-547.58 412.34,-547.58 406.34,-547.58 400.34,-541.58 400.34,-535.58 400.34,-535.58 400.34,-291.58 400.34,-291.58 400.34,-285.58 406.34,-279.58 412.34,-279.58"/>
</g>
<g id="clust2" class="cluster">
<title>cluster_scc1</title>
<path fill="white" stroke="red" d="M29.8,-154.76C29.8,-154.76 317.8,-154.76 317.8,-154.76 323.8,-154.76 329.8,-160.76 329.8,-166.76 329.8,-166.76 329.8,-318.76 329.8,-318.76 329.8,-324.76 323.8,-330.76 317.8,-330.76 317.8,-330.76 29.8,-330.76 29.8,-330.76 23.8,-330.76 17.8,-324.76 17.8,-318.76 17.8,-318.76 17.8,-166.76 17.8,-166.76 17.8,-160.76 23.8,-154.76 29.8,-154.76"/>
</g>
<g id="clust3" class="cluster">
<title>cluster_scc2</title>
<path fill="white" stroke="red" d="M412.35,-83.63C412.35,-83.63 587.35,-83.63 587.35,-83.63 593.35,-83.63 599.35,-89.63 599.35,-95.63 599.35,-95.63 599.35,-123.63 599.35,-123.63 599.35,-129.63 593.35,-135.63 587.35,-135.63 587.35,-135.63 412.35,-135.63 412.35,-135.63 406.35,-135.63 400.35,-129.63 400.35,-123.63 400.35,-123.63 400.35,-95.63 400.35,-95.63 400.35,-89.63 406.35,-83.63 412.35,-83.63"/>
</g>
<!-- i2fea3730 -->
<g id="node1" class="node">
<title>i2fea3730</title>
<ellipse fill="none" stroke="transparent" cx="606.58" cy="-305.22" rx="81.49" ry="18"/>
<text text-anchor="middle" x="606.58" y="-301.52" font-family="Verdana" font-size="14.00">%29 = load %9</text>
</g>
<!-- i2fea3830 -->
<g id="node3" class="node">
<title>i2fea3830</title>
<ellipse fill="none" stroke="transparent" cx="524.58" cy="-413.22" rx="116.18" ry="18"/>
<text text-anchor="middle" x="524.58" y="-409.52" font-family="Verdana" font-size="14.00">%31 = icmp %29, %30</text>
</g>
<!-- i2fea3730&#45;&gt;i2fea3830 -->
<g id="edge2" class="edge">
<title>i2fea3730&#45;&gt;i2fea3830</title>
<path fill="none" stroke="lightgrey" d="M525.49,-304C504.4,-304 487.47,-304 487.47,-304 487.47,-304 487.47,-386.15 487.47,-386.15"/>
<polygon fill="none" stroke="lightgrey" points="483.97,-386.15 487.47,-396.15 490.97,-386.15 483.97,-386.15"/>
</g>
<!-- i2fea41b0 -->
<g id="node8" class="node">
<title>i2fea41b0</title>
<ellipse fill="none" stroke="transparent" cx="701.58" cy="-521.22" rx="85.59" ry="18"/>
<text text-anchor="middle" x="701.58" y="-517.52" font-family="Verdana" font-size="14.00">store %46 to %9</text>
</g>
<!-- i2fea3730&#45;&gt;i2fea41b0 -->
<g id="edge1" class="edge">
<title>i2fea3730&#45;&gt;i2fea41b0</title>
<path fill="none" stroke="lightgrey" d="M683.71,-311C747.61,-311 828,-311 828,-311 828,-311 828,-515 828,-515 828,-515 792.36,-515 792.36,-515"/>
<polygon fill="lightgrey" stroke="lightgrey" points="782.36,-511.5 792.36,-515 782.36,-518.5 782.36,-511.5"/>
</g>
<!-- i2fea37a0 -->
<g id="node2" class="node">
<title>i2fea37a0</title>
<ellipse fill="none" stroke="transparent" cx="612.58" cy="-359.22" rx="87.18" ry="18"/>
<text text-anchor="middle" x="612.58" y="-355.52" font-family="Verdana" font-size="14.00">%30 = load %12</text>
</g>
<!-- i2fea37a0&#45;&gt;i2fea3830 -->
<g id="edge11" class="edge">
<title>i2fea37a0&#45;&gt;i2fea3830</title>
<path fill="none" stroke="lightgrey" d="M583.2,-376.31C583.2,-376.31 583.2,-387.53 583.2,-387.53"/>
<polygon fill="none" stroke="lightgrey" points="579.7,-387.53 583.2,-397.53 586.7,-387.53 579.7,-387.53"/>
</g>
<!-- i2fea38e0 -->
<g id="node4" class="node">
<title>i2fea38e0</title>
<ellipse fill="none" stroke="transparent" cx="497.58" cy="-467.22" rx="44.39" ry="18"/>
<text text-anchor="middle" x="497.58" y="-463.52" font-family="Verdana" font-size="14.00">br %31</text>
</g>
<!-- i2fea3830&#45;&gt;i2fea38e0 -->
<g id="edge12" class="edge">
<title>i2fea3830&#45;&gt;i2fea38e0</title>
<path fill="none" stroke="lightgrey" d="M497.58,-430.9C497.58,-430.9 497.58,-438.94 497.58,-438.94"/>
<polygon fill="none" stroke="lightgrey" points="494.08,-438.94 497.58,-448.94 501.08,-438.94 494.08,-438.94"/>
</g>
<!-- i2fea3950 -->
<g id="node5" class="node">
<title>i2fea3950</title>
<ellipse fill="none" stroke="transparent" cx="516.14" cy="-521.73" rx="81.49" ry="18"/>
<text text-anchor="middle" x="516.14" y="-518.03" font-family="Verdana" font-size="14.00">%33 = load %9</text>
</g>
<!-- i2fea3950&#45;&gt;i2fea41b0 -->
<g id="edge10" class="edge">
<title>i2fea3950&#45;&gt;i2fea41b0</title>
<path fill="none" stroke="lightgrey" d="M591.56,-515C591.56,-515 610.78,-515 610.78,-515"/>
<polygon fill="lightgrey" stroke="lightgrey" points="620.78,-518.5 610.78,-515 620.78,-511.5 620.78,-518.5"/>
</g>
<!-- i2fea39e0 -->
<g id="node13" class="node">
<title>i2fea39e0</title>
<ellipse fill="none" stroke="transparent" cx="894.26" cy="-371.91" rx="55.79" ry="18"/>
<text text-anchor="middle" x="894.26" y="-368.21" font-family="Verdana" font-size="14.00">i2fea39e0</text>
</g>
<!-- i2fea3950&#45;&gt;i2fea39e0 -->
<g id="edge13" class="edge">
<title>i2fea3950&#45;&gt;i2fea39e0</title>
<path fill="none" stroke="lightgrey" d="M579.56,-510.29C579.56,-501.55 579.56,-491 579.56,-491 579.56,-491 894.26,-491 894.26,-491 894.26,-491 894.26,-399.99 894.26,-399.99"/>
<polygon fill="none" stroke="lightgrey" points="897.76,-399.99 894.26,-389.99 890.76,-399.99 897.76,-399.99"/>
</g>
<!-- i2fea4090 -->
<g id="node6" class="node">
<title>i2fea4090</title>
<ellipse fill="none" stroke="transparent" cx="741.58" cy="-413.22" rx="81.49" ry="18"/>
<text text-anchor="middle" x="741.58" y="-409.52" font-family="Verdana" font-size="14.00">%45 = load %9</text>
</g>
<!-- i2fea4120 -->
<g id="node7" class="node">
<title>i2fea4120</title>
<ellipse fill="none" stroke="transparent" cx="658.58" cy="-467.22" rx="96.68" ry="18"/>
<text text-anchor="middle" x="658.58" y="-463.52" font-family="Verdana" font-size="14.00">%46 = add %45, 1</text>
</g>
<!-- i2fea4090&#45;&gt;i2fea4120 -->
<g id="edge4" class="edge">
<title>i2fea4090&#45;&gt;i2fea4120</title>
<path fill="none" stroke="lightgrey" d="M707.87,-429.72C707.87,-429.72 707.87,-441.56 707.87,-441.56"/>
<polygon fill="none" stroke="lightgrey" points="704.37,-441.56 707.87,-451.56 711.37,-441.56 704.37,-441.56"/>
</g>
<!-- i2fea4090&#45;&gt;i2fea41b0 -->
<g id="edge3" class="edge">
<title>i2fea4090&#45;&gt;i2fea41b0</title>
<path fill="none" stroke="lightgrey" d="M763.4,-430.57C763.4,-430.57 763.4,-498.63 763.4,-498.63"/>
<polygon fill="lightgrey" stroke="lightgrey" points="759.9,-508.63 763.4,-498.63 766.9,-508.63 759.9,-508.63"/>
</g>
<!-- i2fea4120&#45;&gt;i2fea41b0 -->
<g id="edge5" class="edge">
<title>i2fea4120&#45;&gt;i2fea41b0</title>
<path fill="none" stroke="lightgrey" d="M685.6,-484.6C685.6,-484.6 685.6,-493.5 685.6,-493.5"/>
<polygon fill="none" stroke="lightgrey" points="682.1,-493.5 685.6,-503.5 689.1,-493.5 682.1,-493.5"/>
</g>
<!-- i2fea41b0&#45;&gt;i2fea3730 -->
<g id="edge9" class="edge">
<title>i2fea41b0&#45;&gt;i2fea3730</title>
<path fill="none" stroke="red" d="M783.05,-527C809.98,-527 833.18,-527 833.18,-527 833.18,-527 833.18,-299 833.18,-299 833.18,-299 692.98,-299 692.98,-299"/>
<polygon fill="red" stroke="red" points="692.98,-295.5 682.98,-299 692.98,-302.5 692.98,-295.5"/>
</g>
<!-- i2fea41b0&#45;&gt;i2fea3950 -->
<g id="edge8" class="edge">
<title>i2fea41b0&#45;&gt;i2fea3950</title>
<path fill="none" stroke="red" d="M620.24,-527C620.24,-527 603.87,-527 603.87,-527"/>
<polygon fill="red" stroke="red" points="603.87,-523.5 593.87,-527 603.87,-530.5 603.87,-523.5"/>
</g>
<!-- i2fea41b0&#45;&gt;i2fea4090 -->
<g id="edge7" class="edge">
<title>i2fea41b0&#45;&gt;i2fea4090</title>
<path fill="none" stroke="red" d="M771.39,-510.47C771.39,-510.47 771.39,-440.27 771.39,-440.27"/>
<polygon fill="red" stroke="red" points="774.89,-440.27 771.39,-430.27 767.89,-440.27 774.89,-440.27"/>
</g>
<!-- i2fea41b0&#45;&gt;i2fea41b0 -->
<g id="edge6" class="edge">
<title>i2fea41b0&#45;&gt;i2fea41b0</title>
<path fill="none" stroke="red" d="M701.58,-539.53C701.58,-548.33 701.58,-557 701.58,-557 701.58,-557 805.09,-557 805.09,-557 805.09,-557 805.09,-497 805.09,-497 805.09,-497 779.38,-497 779.38,-497 779.38,-497 779.38,-505.56 779.38,-505.56"/>
<ellipse fill="red" stroke="red" cx="779.38" cy="-509.56" rx="4" ry="4"/>
</g>
<!-- i2fea3b00 -->
<g id="node9" class="node">
<title>i2fea3b00</title>
<ellipse fill="none" stroke="transparent" cx="229.74" cy="-304.61" rx="91.78" ry="18"/>
<text text-anchor="middle" x="229.74" y="-300.91" font-family="Verdana" font-size="14.00">store %35 to %15</text>
</g>
<!-- i2fea3b00&#45;&gt;i2fea3b00 -->
<g id="edge16" class="edge">
<title>i2fea3b00&#45;&gt;i2fea3b00</title>
<path fill="none" stroke="red" d="M229.74,-322.73C229.74,-327.82 229.74,-332 229.74,-332 229.74,-332 329.6,-332 329.6,-332 329.6,-332 329.6,-282 329.6,-282 329.6,-282 313.02,-282 313.02,-282 313.02,-282 313.02,-288.96 313.02,-288.96"/>
<ellipse fill="red" stroke="red" cx="313.02" cy="-292.96" rx="4" ry="4"/>
</g>
<!-- i2fea3b70 -->
<g id="node10" class="node">
<title>i2fea3b70</title>
<ellipse fill="none" stroke="transparent" cx="209.21" cy="-181.05" rx="87.18" ry="18"/>
<text text-anchor="middle" x="209.21" y="-177.35" font-family="Verdana" font-size="14.00">%36 = load %15</text>
</g>
<!-- i2fea3b00&#45;&gt;i2fea3b70 -->
<g id="edge15" class="edge">
<title>i2fea3b00&#45;&gt;i2fea3b70</title>
<path fill="none" stroke="lightgrey" d="M231.81,-286.38C231.81,-286.38 231.81,-208.55 231.81,-208.55"/>
<polygon fill="lightgrey" stroke="lightgrey" points="235.31,-208.55 231.81,-198.55 228.31,-208.55 235.31,-208.55"/>
</g>
<!-- i2fea3d80 -->
<g id="node11" class="node">
<title>i2fea3d80</title>
<ellipse fill="none" stroke="transparent" cx="112.46" cy="-260.61" rx="87.18" ry="18"/>
<text text-anchor="middle" x="112.46" y="-256.91" font-family="Verdana" font-size="14.00">%40 = load %15</text>
</g>
<!-- i2fea3b00&#45;&gt;i2fea3d80 -->
<g id="edge14" class="edge">
<title>i2fea3b00&#45;&gt;i2fea3d80</title>
<path fill="none" stroke="lightgrey" d="M158.58,-293.05C158.58,-293.05 158.58,-286.06 158.58,-286.06"/>
<polygon fill="lightgrey" stroke="lightgrey" points="162.08,-286.06 158.58,-276.06 155.08,-286.06 162.08,-286.06"/>
</g>
<!-- i2fea3b70&#45;&gt;i2fea3b00 -->
<g id="edge17" class="edge">
<title>i2fea3b70&#45;&gt;i2fea3b00</title>
<path fill="none" stroke="red" d="M264.05,-195.22C264.05,-195.22 264.05,-277.86 264.05,-277.86"/>
<polygon fill="red" stroke="red" points="260.55,-287.86 264.05,-277.86 267.55,-287.86 260.55,-287.86"/>
</g>
<!-- i2fea3be0 -->
<g id="node15" class="node">
<title>i2fea3be0</title>
<ellipse fill="none" stroke="transparent" cx="121.31" cy="-17.99" rx="55.79" ry="18"/>
<text text-anchor="middle" x="121.31" y="-14.29" font-family="Verdana" font-size="14.00">i2fea3be0</text>
</g>
<!-- i2fea3b70&#45;&gt;i2fea3be0 -->
<g id="edge20" class="edge">
<title>i2fea3b70&#45;&gt;i2fea3be0</title>
<path fill="none" stroke="lightgrey" d="M149.66,-167.7C149.66,-167.7 149.66,-43.89 149.66,-43.89"/>
<polygon fill="none" stroke="lightgrey" points="153.16,-43.89 149.66,-33.89 146.16,-43.89 153.16,-43.89"/>
</g>
<!-- i2fea3d80&#45;&gt;i2fea3b00 -->
<g id="edge18" class="edge">
<title>i2fea3d80&#45;&gt;i2fea3b00</title>
<path fill="none" stroke="red" d="M179.07,-272.63C179.07,-272.63 179.07,-279.45 179.07,-279.45"/>
<polygon fill="red" stroke="red" points="175.57,-289.45 179.07,-279.45 182.57,-289.45 175.57,-289.45"/>
</g>
<!-- i2fea3df0 -->
<g id="node16" class="node">
<title>i2fea3df0</title>
<ellipse fill="none" stroke="transparent" cx="54.23" cy="-397.69" rx="53.89" ry="18"/>
<text text-anchor="middle" x="54.23" y="-393.99" font-family="Verdana" font-size="14.00">i2fea3df0</text>
</g>
<!-- i2fea3d80&#45;&gt;i2fea3df0 -->
<g id="edge21" class="edge">
<title>i2fea3d80&#45;&gt;i2fea3df0</title>
<path fill="none" stroke="lightgrey" d="M66.77,-276.07C66.77,-276.07 66.77,-369.91 66.77,-369.91"/>
<polygon fill="none" stroke="lightgrey" points="63.27,-369.91 66.77,-379.91 70.27,-369.91 63.27,-369.91"/>
</g>
<!-- i2fea3f40 -->
<g id="node12" class="node">
<title>i2fea3f40</title>
<ellipse fill="none" stroke="transparent" cx="499.88" cy="-110.04" rx="91.78" ry="18"/>
<text text-anchor="middle" x="499.88" y="-106.34" font-family="Verdana" font-size="14.00">store %39 to %42</text>
</g>
<!-- i2fea3f40&#45;&gt;i2fea3f40 -->
<g id="edge22" class="edge">
<title>i2fea3f40&#45;&gt;i2fea3f40</title>
<path fill="none" stroke="red" d="M428.93,-121.64C428.93,-128.16 428.93,-135 428.93,-135 428.93,-135 373.03,-135 373.03,-135 373.03,-135 373.03,-64 373.03,-64 373.03,-64 420.56,-64 420.56,-64 420.56,-64 420.56,-92.72 420.56,-92.72"/>
<ellipse fill="red" stroke="red" cx="420.56" cy="-96.72" rx="4" ry="4"/>
</g>
<!-- i2fea3a70 -->
<g id="node14" class="node">
<title>i2fea3a70</title>
<ellipse fill="none" stroke="transparent" cx="393.72" cy="-190.09" rx="55.79" ry="18"/>
<text text-anchor="middle" x="393.72" y="-186.39" font-family="Verdana" font-size="14.00">i2fea3a70</text>
</g>
<!-- i2fea3a70&#45;&gt;i2fea3b00 -->
<g id="edge19" class="edge">
<title>i2fea3a70&#45;&gt;i2fea3b00</title>
<path fill="none" stroke="lightgrey" d="M354.66,-203C330.73,-203 304.66,-203 304.66,-203 304.66,-203 304.66,-284.12 304.66,-284.12"/>
<polygon fill="none" stroke="lightgrey" points="301.16,-284.12 304.66,-294.12 308.16,-284.12 301.16,-284.12"/>
</g>
<!-- i2fea3ea0 -->
<g id="node17" class="node">
<title>i2fea3ea0</title>
<ellipse fill="none" stroke="transparent" cx="591.88" cy="-161.64" rx="55.79" ry="18"/>
<text text-anchor="middle" x="591.88" y="-157.94" font-family="Verdana" font-size="14.00">i2fea3ea0</text>
</g>
<!-- i2fea3ea0&#45;&gt;i2fea3f40 -->
<g id="edge23" class="edge">
<title>i2fea3ea0&#45;&gt;i2fea3f40</title>
<path fill="none" stroke="lightgrey" d="M563.75,-145.87C563.75,-145.87 563.75,-133.27 563.75,-133.27"/>
<polygon fill="none" stroke="lightgrey" points="567.25,-133.27 563.75,-123.27 560.25,-133.27 567.25,-133.27"/>
</g>
<!-- i2fea3d10 -->
<g id="node18" class="node">
<title>i2fea3d10</title>
<ellipse fill="none" stroke="transparent" cx="489.42" cy="-18.04" rx="56.59" ry="18"/>
<text text-anchor="middle" x="489.42" y="-14.34" font-family="Verdana" font-size="14.00">i2fea3d10</text>
</g>
<!-- i2fea3d10&#45;&gt;i2fea3f40 -->
<g id="edge24" class="edge">
<title>i2fea3d10&#45;&gt;i2fea3f40</title>
<path fill="none" stroke="lightgrey" d="M489.42,-36.21C489.42,-36.21 489.42,-81.9 489.42,-81.9"/>
<polygon fill="none" stroke="lightgrey" points="485.92,-81.9 489.42,-91.9 492.92,-81.9 485.92,-81.9"/>
</g>
</g>
</svg>
