<?xml version="1.0" encoding="UTF-8" standalone="no"?>
<!DOCTYPE svg PUBLIC "-//W3C//DTD SVG 1.1//EN"
 "http://www.w3.org/Graphics/SVG/1.1/DTD/svg11.dtd">
<!-- Generated by graphviz version 2.43.0 (0)
 -->
<!-- Title: G Pages: 1 -->
<svg width="739pt" height="588pt"
 viewBox="0.00 0.00 739.00 588.00" xmlns="http://www.w3.org/2000/svg" xmlns:xlink="http://www.w3.org/1999/xlink">
<g id="graph0" class="graph" transform="scale(1 1) rotate(0) translate(4 584)">
<title>G</title>
<polygon fill="white" stroke="transparent" points="-4,4 -4,-584 735,-584 735,4 -4,4"/>
<g id="clust1" class="cluster">
<title>cluster_scc0</title>
<path fill="white" stroke="red" d="M492.35,-483.63C492.35,-483.63 667.35,-483.63 667.35,-483.63 673.35,-483.63 679.35,-489.63 679.35,-495.63 679.35,-495.63 679.35,-523.63 679.35,-523.63 679.35,-529.63 673.35,-535.63 667.35,-535.63 667.35,-535.63 492.35,-535.63 492.35,-535.63 486.35,-535.63 480.35,-529.63 480.35,-523.63 480.35,-523.63 480.35,-495.63 480.35,-495.63 480.35,-489.63 486.35,-483.63 492.35,-483.63"/>
</g>
<g id="clust2" class="cluster">
<title>cluster_scc1</title>
<path fill="white" stroke="red" d="M12.1,-175.91C12.1,-175.91 452.1,-175.91 452.1,-175.91 458.1,-175.91 464.1,-181.91 464.1,-187.91 464.1,-187.91 464.1,-455.91 464.1,-455.91 464.1,-461.91 458.1,-467.91 452.1,-467.91 452.1,-467.91 12.1,-467.91 12.1,-467.91 6.1,-467.91 0.1,-461.91 0.1,-455.91 0.1,-455.91 0.1,-187.91 0.1,-187.91 0.1,-181.91 6.1,-175.91 12.1,-175.91"/>
</g>
<g id="clust3" class="cluster">
<title>cluster_scc2</title>
<path fill="white" stroke="red" d="M291.77,-100.82C291.77,-100.82 513.77,-100.82 513.77,-100.82 519.77,-100.82 525.77,-106.82 525.77,-112.82 525.77,-112.82 525.77,-140.82 525.77,-140.82 525.77,-146.82 519.77,-152.82 513.77,-152.82 513.77,-152.82 291.77,-152.82 291.77,-152.82 285.77,-152.82 279.77,-146.82 279.77,-140.82 279.77,-140.82 279.77,-112.82 279.77,-112.82 279.77,-106.82 285.77,-100.82 291.77,-100.82"/>
</g>
<!-- i24de5240 -->
<g id="node1" class="node">
<title>i24de5240</title>
<ellipse fill="none" stroke="transparent" cx="579.88" cy="-510.04" rx="91.78" ry="18"/>
<text text-anchor="middle" x="579.88" y="-506.34" font-family="Verdana" font-size="14.00">store %12 to %15</text>
</g>
<!-- i24de5240&#45;&gt;i24de5240 -->
<g id="edge1" class="edge">
<title>i24de5240&#45;&gt;i24de5240</title>
<path fill="none" stroke="red" d="M550.49,-527.1C550.49,-531.49 550.49,-535 550.49,-535 550.49,-535 482.87,-535 482.87,-535 482.87,-535 482.87,-475 482.87,-475 482.87,-475 498.93,-475 498.93,-475 498.93,-475 498.93,-493.55 498.93,-493.55"/>
<ellipse fill="red" stroke="red" cx="498.93" cy="-497.55" rx="4" ry="4"/>
</g>
<!-- i24de4d60 -->
<g id="node2" class="node">
<title>i24de4d60</title>
<ellipse fill="none" stroke="transparent" cx="83.34" cy="-201.55" rx="75.29" ry="18"/>
<text text-anchor="middle" x="83.34" y="-197.85" font-family="Verdana" font-size="14.00">%7 = load %4</text>
</g>
<!-- i24de4df0 -->
<g id="node3" class="node">
<title>i24de4df0</title>
<ellipse fill="none" stroke="transparent" cx="284.34" cy="-321.55" rx="96.38" ry="18"/>
<text text-anchor="middle" x="284.34" y="-317.85" font-family="Verdana" font-size="14.00">%8 = icmp %7, 16</text>
</g>
<!-- i24de4d60&#45;&gt;i24de4df0 -->
<g id="edge4" class="edge">
<title>i24de4d60&#45;&gt;i24de4df0</title>
<path fill="none" stroke="lightgrey" d="M81.08,-219.96C81.08,-251.61 81.08,-313 81.08,-313 81.08,-313 189.61,-313 189.61,-313"/>
<polygon fill="none" stroke="lightgrey" points="189.61,-316.5 199.61,-313 189.61,-309.5 189.61,-316.5"/>
</g>
<!-- i24de5e80 -->
<g id="node10" class="node">
<title>i24de5e80</title>
<ellipse fill="none" stroke="transparent" cx="370.34" cy="-213.55" rx="85.59" ry="18"/>
<text text-anchor="middle" x="370.34" y="-209.85" font-family="Verdana" font-size="14.00">store %21 to %4</text>
</g>
<!-- i24de4d60&#45;&gt;i24de5e80 -->
<g id="edge5" class="edge">
<title>i24de4d60&#45;&gt;i24de5e80</title>
<path fill="none" stroke="lightgrey" d="M140.91,-213.21C140.91,-217.8 140.91,-222 140.91,-222 140.91,-222 284.58,-222 284.58,-222"/>
<polygon fill="lightgrey" stroke="lightgrey" points="294.58,-225.5 284.58,-222 294.58,-218.5 294.58,-225.5"/>
</g>
<!-- i24de4ea0 -->
<g id="node4" class="node">
<title>i24de4ea0</title>
<ellipse fill="none" stroke="transparent" cx="214.34" cy="-201.55" rx="38.19" ry="18"/>
<text text-anchor="middle" x="214.34" y="-197.85" font-family="Verdana" font-size="14.00">br %8</text>
</g>
<!-- i24de4df0&#45;&gt;i24de4ea0 -->
<g id="edge6" class="edge">
<title>i24de4df0&#45;&gt;i24de4ea0</title>
<path fill="none" stroke="lightgrey" d="M276.15,-303.4C276.15,-271.1 276.15,-207 276.15,-207 276.15,-207 261.01,-207 261.01,-207"/>
<polygon fill="none" stroke="lightgrey" points="261.01,-203.5 251.01,-207 261.01,-210.5 261.01,-203.5"/>
</g>
<!-- i24de4f10 -->
<g id="node5" class="node">
<title>i24de4f10</title>
<ellipse fill="none" stroke="transparent" cx="207.04" cy="-385.77" rx="81.49" ry="18"/>
<text text-anchor="middle" x="207.04" y="-382.07" font-family="Verdana" font-size="14.00">%10 = load %4</text>
</g>
<!-- i24de4f10&#45;&gt;i24de5e80 -->
<g id="edge7" class="edge">
<title>i24de4f10&#45;&gt;i24de5e80</title>
<path fill="none" stroke="lightgrey" d="M287.37,-383C340.75,-383 401.08,-383 401.08,-383 401.08,-383 401.08,-240.42 401.08,-240.42"/>
<polygon fill="lightgrey" stroke="lightgrey" points="404.58,-230.42 401.08,-240.42 397.58,-230.42 404.58,-230.42"/>
</g>
<!-- i24de4f80 -->
<g id="node14" class="node">
<title>i24de4f80</title>
<ellipse fill="none" stroke="transparent" cx="529.33" cy="-250.73" rx="57.39" ry="18"/>
<text text-anchor="middle" x="529.33" y="-247.03" font-family="Verdana" font-size="14.00">i24de4f80</text>
</g>
<!-- i24de4f10&#45;&gt;i24de4f80 -->
<g id="edge19" class="edge">
<title>i24de4f10&#45;&gt;i24de4f80</title>
<path fill="none" stroke="lightgrey" d="M284.91,-391C364.81,-391 477.5,-391 477.5,-391 477.5,-391 477.5,-268.68 477.5,-268.68"/>
<polygon fill="none" stroke="lightgrey" points="481,-268.68 477.5,-258.68 474,-268.68 481,-268.68"/>
</g>
<!-- i24de5080 -->
<g id="node6" class="node">
<title>i24de5080</title>
<ellipse fill="none" stroke="transparent" cx="186.51" cy="-262.2" rx="81.49" ry="18"/>
<text text-anchor="middle" x="186.51" y="-258.5" font-family="Verdana" font-size="14.00">%13 = load %4</text>
</g>
<!-- i24de5080&#45;&gt;i24de5e80 -->
<g id="edge8" class="edge">
<title>i24de5080&#45;&gt;i24de5e80</title>
<path fill="none" stroke="lightgrey" d="M262.73,-255.8C262.73,-246.15 262.73,-229 262.73,-229 262.73,-229 316.26,-229 316.26,-229"/>
<polygon fill="lightgrey" stroke="lightgrey" points="326.26,-232.5 316.26,-229 326.26,-225.5 326.26,-232.5"/>
</g>
<!-- i24de50f0 -->
<g id="node15" class="node">
<title>i24de50f0</title>
<ellipse fill="none" stroke="transparent" cx="161.16" cy="-18.13" rx="57.39" ry="18"/>
<text text-anchor="middle" x="161.16" y="-14.43" font-family="Verdana" font-size="14.00">i24de50f0</text>
</g>
<!-- i24de5080&#45;&gt;i24de50f0 -->
<g id="edge20" class="edge">
<title>i24de5080&#45;&gt;i24de50f0</title>
<path fill="none" stroke="lightgrey" d="M167.37,-244.65C167.37,-244.65 167.37,-46.18 167.37,-46.18"/>
<polygon fill="none" stroke="lightgrey" points="170.87,-46.18 167.37,-36.18 163.87,-46.18 170.87,-46.18"/>
</g>
<!-- i24de52b0 -->
<g id="node7" class="node">
<title>i24de52b0</title>
<ellipse fill="none" stroke="transparent" cx="89.76" cy="-341.76" rx="81.49" ry="18"/>
<text text-anchor="middle" x="89.76" y="-338.06" font-family="Verdana" font-size="14.00">%16 = load %4</text>
</g>
<!-- i24de52b0&#45;&gt;i24de5e80 -->
<g id="edge9" class="edge">
<title>i24de52b0&#45;&gt;i24de5e80</title>
<path fill="none" stroke="lightgrey" d="M56.89,-325.18C56.89,-293.17 56.89,-226 56.89,-226 56.89,-226 298.04,-226 298.04,-226"/>
<polygon fill="lightgrey" stroke="lightgrey" points="308.04,-229.5 298.04,-226 308.04,-222.5 308.04,-229.5"/>
</g>
<!-- i24de5320 -->
<g id="node16" class="node">
<title>i24de5320</title>
<ellipse fill="none" stroke="transparent" cx="70.49" cy="-531.31" rx="59.59" ry="18"/>
<text text-anchor="middle" x="70.49" y="-527.61" font-family="Verdana" font-size="14.00">i24de5320</text>
</g>
<!-- i24de52b0&#45;&gt;i24de5320 -->
<g id="edge21" class="edge">
<title>i24de52b0&#45;&gt;i24de5320</title>
<path fill="none" stroke="lightgrey" d="M39.4,-356.01C39.4,-356.01 39.4,-505.84 39.4,-505.84"/>
<polygon fill="none" stroke="lightgrey" points="35.9,-505.84 39.4,-515.84 42.9,-505.84 35.9,-505.84"/>
</g>
<!-- i24de5550 -->
<g id="node8" class="node">
<title>i24de5550</title>
<ellipse fill="none" stroke="transparent" cx="149.34" cy="-441.55" rx="81.49" ry="18"/>
<text text-anchor="middle" x="149.34" y="-437.85" font-family="Verdana" font-size="14.00">%20 = load %4</text>
</g>
<!-- i24de5df0 -->
<g id="node9" class="node">
<title>i24de5df0</title>
<ellipse fill="none" stroke="transparent" cx="345.34" cy="-441.55" rx="96.68" ry="18"/>
<text text-anchor="middle" x="345.34" y="-437.85" font-family="Verdana" font-size="14.00">%21 = add %20, 1</text>
</g>
<!-- i24de5550&#45;&gt;i24de5df0 -->
<g id="edge10" class="edge">
<title>i24de5550&#45;&gt;i24de5df0</title>
<path fill="none" stroke="lightgrey" d="M230.76,-441C230.76,-441 238.27,-441 238.27,-441"/>
<polygon fill="none" stroke="lightgrey" points="238.27,-444.5 248.27,-441 238.27,-437.5 238.27,-444.5"/>
</g>
<!-- i24de5550&#45;&gt;i24de5e80 -->
<g id="edge11" class="edge">
<title>i24de5550&#45;&gt;i24de5e80</title>
<path fill="none" stroke="lightgrey" d="M195.66,-426.69C195.66,-421.07 195.66,-416 195.66,-416 195.66,-416 421.63,-416 421.63,-416 421.63,-416 421.63,-238.11 421.63,-238.11"/>
<polygon fill="lightgrey" stroke="lightgrey" points="425.13,-228.11 421.63,-238.11 418.13,-228.11 425.13,-228.11"/>
</g>
<!-- i24de5df0&#45;&gt;i24de5e80 -->
<g id="edge12" class="edge">
<title>i24de5df0&#45;&gt;i24de5e80</title>
<path fill="none" stroke="lightgrey" d="M431.91,-433.44C431.91,-433.44 431.91,-236.33 431.91,-236.33"/>
<polygon fill="none" stroke="lightgrey" points="435.41,-236.33 431.91,-226.33 428.41,-236.33 435.41,-236.33"/>
</g>
<!-- i24de5e80&#45;&gt;i24de4d60 -->
<g id="edge18" class="edge">
<title>i24de5e80&#45;&gt;i24de4d60</title>
<path fill="none" stroke="red" d="M292.11,-221C219.67,-221 123.09,-221 123.09,-221 123.09,-221 123.09,-220.59 123.09,-220.59"/>
<polygon fill="red" stroke="red" points="126.59,-226.88 123.09,-216.88 119.59,-226.88 126.59,-226.88"/>
</g>
<!-- i24de5e80&#45;&gt;i24de4f10 -->
<g id="edge16" class="edge">
<title>i24de5e80&#45;&gt;i24de4f10</title>
<path fill="none" stroke="red" d="M390.81,-231.14C390.81,-272.98 390.81,-375 390.81,-375 390.81,-375 282.35,-375 282.35,-375"/>
<polygon fill="red" stroke="red" points="282.35,-371.5 272.35,-375 282.35,-378.5 282.35,-371.5"/>
</g>
<!-- i24de5e80&#45;&gt;i24de5080 -->
<g id="edge15" class="edge">
<title>i24de5e80&#45;&gt;i24de5080</title>
<path fill="none" stroke="red" d="M318.97,-228C289.27,-228 257.71,-228 257.71,-228 257.71,-228 257.71,-243.22 257.71,-243.22"/>
<polygon fill="red" stroke="red" points="254.21,-243.22 257.71,-253.22 261.21,-243.22 254.21,-243.22"/>
</g>
<!-- i24de5e80&#45;&gt;i24de52b0 -->
<g id="edge14" class="edge">
<title>i24de5e80&#45;&gt;i24de52b0</title>
<path fill="none" stroke="red" d="M300.38,-224C201.49,-224 32.71,-224 32.71,-224 32.71,-224 32.71,-318.71 32.71,-318.71"/>
<polygon fill="red" stroke="red" points="29.21,-318.71 32.71,-328.71 36.21,-318.71 29.21,-318.71"/>
</g>
<!-- i24de5e80&#45;&gt;i24de5550 -->
<g id="edge17" class="edge">
<title>i24de5e80&#45;&gt;i24de5550</title>
<path fill="none" stroke="red" d="M411.36,-229.63C411.36,-276.55 411.36,-410 411.36,-410 411.36,-410 160.73,-410 160.73,-410 160.73,-410 160.73,-413.56 160.73,-413.56"/>
<polygon fill="red" stroke="red" points="157.23,-413.56 160.73,-423.56 164.23,-413.56 157.23,-413.56"/>
</g>
<!-- i24de5e80&#45;&gt;i24de5e80 -->
<g id="edge13" class="edge">
<title>i24de5e80&#45;&gt;i24de5e80</title>
<path fill="none" stroke="red" d="M449.16,-220.76C449.16,-227.97 449.16,-238 449.16,-238 449.16,-238 464.13,-238 464.13,-238 464.13,-238 464.13,-189 464.13,-189 464.13,-189 371.84,-189 371.84,-189 371.84,-189 371.84,-189.65 371.84,-189.65"/>
<ellipse fill="red" stroke="red" cx="371.84" cy="-191.45" rx="4" ry="4"/>
</g>
<!-- i24de5470 -->
<g id="node11" class="node">
<title>i24de5470</title>
<ellipse fill="none" stroke="transparent" cx="402.58" cy="-126.97" rx="115.08" ry="18"/>
<text text-anchor="middle" x="402.58" y="-123.27" font-family="Verdana" font-size="14.00">store 0.000000 to %18</text>
</g>
<!-- i24de5470&#45;&gt;i24de5470 -->
<g id="edge22" class="edge">
<title>i24de5470&#45;&gt;i24de5470</title>
<path fill="none" stroke="red" d="M494.88,-137.88C494.88,-148.8 494.88,-164 494.88,-164 494.88,-164 525.7,-164 525.7,-164 525.7,-164 525.7,-94 525.7,-94 525.7,-94 402.58,-94 402.58,-94 402.58,-94 402.58,-100.94 402.58,-100.94"/>
<ellipse fill="red" stroke="red" cx="402.58" cy="-104.94" rx="4" ry="4"/>
</g>
<!-- i24de51a0 -->
<g id="node12" class="node">
<title>i24de51a0</title>
<ellipse fill="none" stroke="transparent" cx="671.88" cy="-561.64" rx="59.29" ry="18"/>
<text text-anchor="middle" x="671.88" y="-557.94" font-family="Verdana" font-size="14.00">i24de51a0</text>
</g>
<!-- i24de51a0&#45;&gt;i24de5240 -->
<g id="edge2" class="edge">
<title>i24de51a0&#45;&gt;i24de5240</title>
<path fill="none" stroke="lightgrey" d="M642.13,-545.87C642.13,-545.87 642.13,-533.27 642.13,-533.27"/>
<polygon fill="none" stroke="lightgrey" points="645.63,-533.27 642.13,-523.27 638.63,-533.27 645.63,-533.27"/>
</g>
<!-- i24de5010 -->
<g id="node13" class="node">
<title>i24de5010</title>
<ellipse fill="none" stroke="transparent" cx="569.42" cy="-418.04" rx="59.59" ry="18"/>
<text text-anchor="middle" x="569.42" y="-414.34" font-family="Verdana" font-size="14.00">i24de5010</text>
</g>
<!-- i24de5010&#45;&gt;i24de5240 -->
<g id="edge3" class="edge">
<title>i24de5010&#45;&gt;i24de5240</title>
<path fill="none" stroke="lightgrey" d="M569.42,-436.21C569.42,-436.21 569.42,-481.9 569.42,-481.9"/>
<polygon fill="none" stroke="lightgrey" points="565.92,-481.9 569.42,-491.9 572.92,-481.9 565.92,-481.9"/>
</g>
<!-- i24de53d0 -->
<g id="node17" class="node">
<title>i24de53d0</title>
<ellipse fill="none" stroke="transparent" cx="593.59" cy="-98.31" rx="59.59" ry="18"/>
<text text-anchor="middle" x="593.59" y="-94.61" font-family="Verdana" font-size="14.00">i24de53d0</text>
</g>
<!-- i24de53d0&#45;&gt;i24de5470 -->
<g id="edge23" class="edge">
<title>i24de53d0&#45;&gt;i24de5470</title>
<path fill="none" stroke="lightgrey" d="M554.47,-112C554.47,-112 476.45,-112 476.45,-112"/>
<polygon fill="none" stroke="lightgrey" points="476.45,-108.5 466.45,-112 476.45,-115.5 476.45,-108.5"/>
</g>
</g>
</svg>
