<?xml version="1.0" encoding="UTF-8" standalone="no"?>
<!DOCTYPE svg PUBLIC "-//W3C//DTD SVG 1.1//EN"
 "http://www.w3.org/Graphics/SVG/1.1/DTD/svg11.dtd">
<!-- Generated by graphviz version 2.43.0 (0)
 -->
<!-- Title: G Pages: 1 -->
<svg width="965pt" height="644pt"
 viewBox="0.00 0.00 964.67 644.00" xmlns="http://www.w3.org/2000/svg" xmlns:xlink="http://www.w3.org/1999/xlink">
<g id="graph0" class="graph" transform="scale(1 1) rotate(0) translate(4 640)">
<title>G</title>
<polygon fill="white" stroke="transparent" points="-4,4 -4,-640 960.67,-640 960.67,4 -4,4"/>
<g id="clust1" class="cluster">
<title>cluster_scc0</title>
<path fill="white" stroke="red" d="M12.48,-178.85C12.48,-178.85 452.48,-178.85 452.48,-178.85 458.48,-178.85 464.48,-184.85 464.48,-190.85 464.48,-190.85 464.48,-458.85 464.48,-458.85 464.48,-464.85 458.48,-470.85 452.48,-470.85 452.48,-470.85 12.48,-470.85 12.48,-470.85 6.48,-470.85 0.48,-464.85 0.48,-458.85 0.48,-458.85 0.48,-190.85 0.48,-190.85 0.48,-184.85 6.48,-178.85 12.48,-178.85"/>
</g>
<g id="clust2" class="cluster">
<title>cluster_scc1</title>
<path fill="white" stroke="red" d="M506.35,-539.63C506.35,-539.63 681.35,-539.63 681.35,-539.63 687.35,-539.63 693.35,-545.63 693.35,-551.63 693.35,-551.63 693.35,-579.63 693.35,-579.63 693.35,-585.63 687.35,-591.63 681.35,-591.63 681.35,-591.63 506.35,-591.63 506.35,-591.63 500.35,-591.63 494.35,-585.63 494.35,-579.63 494.35,-579.63 494.35,-551.63 494.35,-551.63 494.35,-545.63 500.35,-539.63 506.35,-539.63"/>
</g>
<g id="clust3" class="cluster">
<title>cluster_scc2</title>
<path fill="white" stroke="red" d="M544.24,-37.64C544.24,-37.64 934.24,-37.64 934.24,-37.64 940.24,-37.64 946.24,-43.64 946.24,-49.64 946.24,-49.64 946.24,-187.64 946.24,-187.64 946.24,-193.64 940.24,-199.64 934.24,-199.64 934.24,-199.64 544.24,-199.64 544.24,-199.64 538.24,-199.64 532.24,-193.64 532.24,-187.64 532.24,-187.64 532.24,-49.64 532.24,-49.64 532.24,-43.64 538.24,-37.64 544.24,-37.64"/>
</g>
<g id="clust4" class="cluster">
<title>cluster_scc3</title>
<path fill="white" stroke="red" d="M543.63,-323.97C543.63,-323.97 765.63,-323.97 765.63,-323.97 771.63,-323.97 777.63,-329.97 777.63,-335.97 777.63,-335.97 777.63,-363.97 777.63,-363.97 777.63,-369.97 771.63,-375.97 765.63,-375.97 765.63,-375.97 543.63,-375.97 543.63,-375.97 537.63,-375.97 531.63,-369.97 531.63,-363.97 531.63,-363.97 531.63,-335.97 531.63,-335.97 531.63,-329.97 537.63,-323.97 543.63,-323.97"/>
</g>
<!-- i16399140 -->
<g id="node1" class="node">
<title>i16399140</title>
<ellipse fill="none" stroke="transparent" cx="83.71" cy="-204.49" rx="75.29" ry="18"/>
<text text-anchor="middle" x="83.71" y="-200.79" font-family="Verdana" font-size="14.00">%7 = load %4</text>
</g>
<!-- i163991d0 -->
<g id="node2" class="node">
<title>i163991d0</title>
<ellipse fill="none" stroke="transparent" cx="284.71" cy="-324.49" rx="96.38" ry="18"/>
<text text-anchor="middle" x="284.71" y="-320.79" font-family="Verdana" font-size="14.00">%8 = icmp %7, 16</text>
</g>
<!-- i16399140&#45;&gt;i163991d0 -->
<g id="edge1" class="edge">
<title>i16399140&#45;&gt;i163991d0</title>
<path fill="none" stroke="lightgrey" d="M81.45,-222.9C81.45,-254.58 81.45,-316 81.45,-316 81.45,-316 189.69,-316 189.69,-316"/>
<polygon fill="none" stroke="lightgrey" points="189.69,-319.5 199.69,-316 189.69,-312.5 189.69,-319.5"/>
</g>
<!-- i1639a3f0 -->
<g id="node9" class="node">
<title>i1639a3f0</title>
<ellipse fill="none" stroke="transparent" cx="370.71" cy="-216.49" rx="85.59" ry="18"/>
<text text-anchor="middle" x="370.71" y="-212.79" font-family="Verdana" font-size="14.00">store %23 to %4</text>
</g>
<!-- i16399140&#45;&gt;i1639a3f0 -->
<g id="edge2" class="edge">
<title>i16399140&#45;&gt;i1639a3f0</title>
<path fill="none" stroke="lightgrey" d="M141.28,-216.18C141.28,-220.79 141.28,-225 141.28,-225 141.28,-225 284.95,-225 284.95,-225"/>
<polygon fill="lightgrey" stroke="lightgrey" points="294.95,-228.5 284.95,-225 294.95,-221.5 294.95,-228.5"/>
</g>
<!-- i16399280 -->
<g id="node3" class="node">
<title>i16399280</title>
<ellipse fill="none" stroke="transparent" cx="214.71" cy="-204.49" rx="38.19" ry="18"/>
<text text-anchor="middle" x="214.71" y="-200.79" font-family="Verdana" font-size="14.00">br %8</text>
</g>
<!-- i163991d0&#45;&gt;i16399280 -->
<g id="edge12" class="edge">
<title>i163991d0&#45;&gt;i16399280</title>
<path fill="none" stroke="lightgrey" d="M276.52,-306.35C276.52,-274.07 276.52,-210 276.52,-210 276.52,-210 261.38,-210 261.38,-210"/>
<polygon fill="none" stroke="lightgrey" points="261.38,-206.5 251.38,-210 261.38,-213.5 261.38,-206.5"/>
</g>
<!-- i163992f0 -->
<g id="node4" class="node">
<title>i163992f0</title>
<ellipse fill="none" stroke="transparent" cx="207.41" cy="-388.71" rx="81.49" ry="18"/>
<text text-anchor="middle" x="207.41" y="-385.01" font-family="Verdana" font-size="14.00">%10 = load %4</text>
</g>
<!-- i163992f0&#45;&gt;i1639a3f0 -->
<g id="edge13" class="edge">
<title>i163992f0&#45;&gt;i1639a3f0</title>
<path fill="none" stroke="lightgrey" d="M287.46,-392C340.91,-392 401.46,-392 401.46,-392 401.46,-392 401.46,-243.32 401.46,-243.32"/>
<polygon fill="lightgrey" stroke="lightgrey" points="404.96,-233.32 401.46,-243.32 397.96,-233.32 404.96,-233.32"/>
</g>
<!-- i16399360 -->
<g id="node15" class="node">
<title>i16399360</title>
<ellipse fill="none" stroke="transparent" cx="532.3" cy="-253.05" rx="59.59" ry="18"/>
<text text-anchor="middle" x="532.3" y="-249.35" font-family="Verdana" font-size="14.00">i16399360</text>
</g>
<!-- i163992f0&#45;&gt;i16399360 -->
<g id="edge16" class="edge">
<title>i163992f0&#45;&gt;i16399360</title>
<path fill="none" stroke="lightgrey" d="M274.33,-399C355.74,-399 482.42,-399 482.42,-399 482.42,-399 482.42,-273.08 482.42,-273.08"/>
<polygon fill="none" stroke="lightgrey" points="485.92,-273.08 482.42,-263.08 478.92,-273.08 485.92,-273.08"/>
</g>
<!-- i16399460 -->
<g id="node5" class="node">
<title>i16399460</title>
<ellipse fill="none" stroke="transparent" cx="186.88" cy="-265.14" rx="81.49" ry="18"/>
<text text-anchor="middle" x="186.88" y="-261.44" font-family="Verdana" font-size="14.00">%13 = load %4</text>
</g>
<!-- i16399460&#45;&gt;i1639a3f0 -->
<g id="edge14" class="edge">
<title>i16399460&#45;&gt;i1639a3f0</title>
<path fill="none" stroke="lightgrey" d="M263.1,-258.75C263.1,-249.12 263.1,-232 263.1,-232 263.1,-232 316.94,-232 316.94,-232"/>
<polygon fill="lightgrey" stroke="lightgrey" points="326.94,-235.5 316.94,-232 326.94,-228.5 326.94,-235.5"/>
</g>
<!-- i163994d0 -->
<g id="node16" class="node">
<title>i163994d0</title>
<ellipse fill="none" stroke="transparent" cx="160.91" cy="-18.41" rx="59.59" ry="18"/>
<text text-anchor="middle" x="160.91" y="-14.71" font-family="Verdana" font-size="14.00">i163994d0</text>
</g>
<!-- i16399460&#45;&gt;i163994d0 -->
<g id="edge17" class="edge">
<title>i16399460&#45;&gt;i163994d0</title>
<path fill="none" stroke="lightgrey" d="M167.74,-247.4C167.74,-247.4 167.74,-46.33 167.74,-46.33"/>
<polygon fill="none" stroke="lightgrey" points="171.24,-46.33 167.74,-36.33 164.24,-46.33 171.24,-46.33"/>
</g>
<!-- i16399ea0 -->
<g id="node6" class="node">
<title>i16399ea0</title>
<ellipse fill="none" stroke="transparent" cx="90.14" cy="-344.7" rx="81.49" ry="18"/>
<text text-anchor="middle" x="90.14" y="-341" font-family="Verdana" font-size="14.00">%16 = load %4</text>
</g>
<!-- i16399ea0&#45;&gt;i1639a3f0 -->
<g id="edge15" class="edge">
<title>i16399ea0&#45;&gt;i1639a3f0</title>
<path fill="none" stroke="lightgrey" d="M57.27,-328.12C57.27,-296.13 57.27,-229 57.27,-229 57.27,-229 298.79,-229 298.79,-229"/>
<polygon fill="lightgrey" stroke="lightgrey" points="308.79,-232.5 298.79,-229 308.79,-225.5 308.79,-232.5"/>
</g>
<!-- i16399f10 -->
<g id="node17" class="node">
<title>i16399f10</title>
<ellipse fill="none" stroke="transparent" cx="69.45" cy="-536.08" rx="57.69" ry="18"/>
<text text-anchor="middle" x="69.45" y="-532.38" font-family="Verdana" font-size="14.00">i16399f10</text>
</g>
<!-- i16399ea0&#45;&gt;i16399f10 -->
<g id="edge18" class="edge">
<title>i16399ea0&#45;&gt;i16399f10</title>
<path fill="none" stroke="lightgrey" d="M40.04,-359.09C40.04,-359.09 40.04,-510.46 40.04,-510.46"/>
<polygon fill="none" stroke="lightgrey" points="36.54,-510.46 40.04,-520.46 43.54,-510.46 36.54,-510.46"/>
</g>
<!-- i1639a2d0 -->
<g id="node7" class="node">
<title>i1639a2d0</title>
<ellipse fill="none" stroke="transparent" cx="149.71" cy="-444.49" rx="81.49" ry="18"/>
<text text-anchor="middle" x="149.71" y="-440.79" font-family="Verdana" font-size="14.00">%22 = load %4</text>
</g>
<!-- i1639a360 -->
<g id="node8" class="node">
<title>i1639a360</title>
<ellipse fill="none" stroke="transparent" cx="345.71" cy="-444.49" rx="96.68" ry="18"/>
<text text-anchor="middle" x="345.71" y="-440.79" font-family="Verdana" font-size="14.00">%23 = add %22, 1</text>
</g>
<!-- i1639a2d0&#45;&gt;i1639a360 -->
<g id="edge4" class="edge">
<title>i1639a2d0&#45;&gt;i1639a360</title>
<path fill="none" stroke="lightgrey" d="M231.13,-444C231.13,-444 238.64,-444 238.64,-444"/>
<polygon fill="none" stroke="lightgrey" points="238.64,-447.5 248.64,-444 238.64,-440.5 238.64,-447.5"/>
</g>
<!-- i1639a2d0&#45;&gt;i1639a3f0 -->
<g id="edge3" class="edge">
<title>i1639a2d0&#45;&gt;i1639a3f0</title>
<path fill="none" stroke="lightgrey" d="M196.03,-429.66C196.03,-424.05 196.03,-419 196.03,-419 196.03,-419 422.01,-419 422.01,-419 422.01,-419 422.01,-241.06 422.01,-241.06"/>
<polygon fill="lightgrey" stroke="lightgrey" points="425.51,-231.05 422.01,-241.06 418.51,-231.06 425.51,-231.05"/>
</g>
<!-- i1639a360&#45;&gt;i1639a3f0 -->
<g id="edge5" class="edge">
<title>i1639a360&#45;&gt;i1639a3f0</title>
<path fill="none" stroke="lightgrey" d="M432.28,-436.38C432.28,-436.38 432.28,-239.27 432.28,-239.27"/>
<polygon fill="none" stroke="lightgrey" points="435.78,-239.27 432.28,-229.27 428.78,-239.27 435.78,-239.27"/>
</g>
<!-- i1639a3f0&#45;&gt;i16399140 -->
<g id="edge11" class="edge">
<title>i1639a3f0&#45;&gt;i16399140</title>
<path fill="none" stroke="red" d="M292.48,-224C220.04,-224 123.46,-224 123.46,-224 123.46,-224 123.46,-223.59 123.46,-223.59"/>
<polygon fill="red" stroke="red" points="126.96,-229.86 123.46,-219.86 119.96,-229.86 126.96,-229.86"/>
</g>
<!-- i1639a3f0&#45;&gt;i163992f0 -->
<g id="edge10" class="edge">
<title>i1639a3f0&#45;&gt;i163992f0</title>
<path fill="none" stroke="red" d="M391.18,-234.21C391.18,-277.47 391.18,-385 391.18,-385 391.18,-385 296.95,-385 296.95,-385"/>
<polygon fill="red" stroke="red" points="296.95,-381.5 286.95,-385 296.95,-388.5 296.95,-381.5"/>
</g>
<!-- i1639a3f0&#45;&gt;i16399460 -->
<g id="edge9" class="edge">
<title>i1639a3f0&#45;&gt;i16399460</title>
<path fill="none" stroke="red" d="M319.67,-231C289.87,-231 258.08,-231 258.08,-231 258.08,-231 258.08,-246.17 258.08,-246.17"/>
<polygon fill="red" stroke="red" points="254.58,-246.17 258.08,-256.17 261.58,-246.17 254.58,-246.17"/>
</g>
<!-- i1639a3f0&#45;&gt;i16399ea0 -->
<g id="edge8" class="edge">
<title>i1639a3f0&#45;&gt;i16399ea0</title>
<path fill="none" stroke="red" d="M300.76,-227C201.86,-227 33.08,-227 33.08,-227 33.08,-227 33.08,-321.66 33.08,-321.66"/>
<polygon fill="red" stroke="red" points="29.58,-321.66 33.08,-331.66 36.58,-321.66 29.58,-321.66"/>
</g>
<!-- i1639a3f0&#45;&gt;i1639a2d0 -->
<g id="edge7" class="edge">
<title>i1639a3f0&#45;&gt;i1639a2d0</title>
<path fill="none" stroke="red" d="M411.73,-232.57C411.73,-279.5 411.73,-413 411.73,-413 411.73,-413 161.1,-413 161.1,-413 161.1,-413 161.1,-416.54 161.1,-416.54"/>
<polygon fill="red" stroke="red" points="157.6,-416.54 161.1,-426.54 164.6,-416.54 157.6,-416.54"/>
</g>
<!-- i1639a3f0&#45;&gt;i1639a3f0 -->
<g id="edge6" class="edge">
<title>i1639a3f0&#45;&gt;i1639a3f0</title>
<path fill="none" stroke="red" d="M449.53,-223.71C449.53,-230.94 449.53,-241 449.53,-241 449.53,-241 464.51,-241 464.51,-241 464.51,-241 464.51,-193 464.51,-193 464.51,-193 370.71,-193 370.71,-193 370.71,-193 370.71,-193.54 370.71,-193.54"/>
<ellipse fill="red" stroke="red" cx="370.71" cy="-194.45" rx="4" ry="4"/>
</g>
<!-- i16399e30 -->
<g id="node10" class="node">
<title>i16399e30</title>
<ellipse fill="none" stroke="transparent" cx="593.88" cy="-566.04" rx="91.78" ry="18"/>
<text text-anchor="middle" x="593.88" y="-562.34" font-family="Verdana" font-size="14.00">store %12 to %15</text>
</g>
<!-- i16399e30&#45;&gt;i16399e30 -->
<g id="edge19" class="edge">
<title>i16399e30&#45;&gt;i16399e30</title>
<path fill="none" stroke="red" d="M564.16,-583.1C564.16,-587.49 564.16,-591 564.16,-591 564.16,-591 492.33,-591 492.33,-591 492.33,-591 492.33,-533 492.33,-533 492.33,-533 513.91,-533 513.91,-533 513.91,-533 513.91,-549.01 513.91,-549.01"/>
<ellipse fill="red" stroke="red" cx="513.91" cy="-553.01" rx="4" ry="4"/>
</g>
<!-- i1639a0d0 -->
<g id="node11" class="node">
<title>i1639a0d0</title>
<ellipse fill="none" stroke="transparent" cx="658.48" cy="-118.28" rx="118.08" ry="18"/>
<text text-anchor="middle" x="658.48" y="-114.58" font-family="Verdana" font-size="14.00">%19 = load @loop_id_0</text>
</g>
<!-- i1639a160 -->
<g id="node12" class="node">
<title>i1639a160</title>
<ellipse fill="none" stroke="transparent" cx="758.48" cy="-63.28" rx="96.68" ry="18"/>
<text text-anchor="middle" x="758.48" y="-59.58" font-family="Verdana" font-size="14.00">%20 = add %19, 1</text>
</g>
<!-- i1639a0d0&#45;&gt;i1639a160 -->
<g id="edge26" class="edge">
<title>i1639a0d0&#45;&gt;i1639a160</title>
<path fill="none" stroke="lightgrey" d="M719.2,-102.67C719.2,-102.67 719.2,-89.9 719.2,-89.9"/>
<polygon fill="none" stroke="lightgrey" points="722.7,-89.9 719.2,-79.9 715.7,-89.9 722.7,-89.9"/>
</g>
<!-- i1639a1f0 -->
<g id="node13" class="node">
<title>i1639a1f0</title>
<ellipse fill="none" stroke="transparent" cx="816.48" cy="-173.28" rx="122.38" ry="18"/>
<text text-anchor="middle" x="816.48" y="-169.58" font-family="Verdana" font-size="14.00">store %20 to @loop_id_0</text>
</g>
<!-- i1639a0d0&#45;&gt;i1639a1f0 -->
<g id="edge25" class="edge">
<title>i1639a0d0&#45;&gt;i1639a1f0</title>
<path fill="none" stroke="lightgrey" d="M721.78,-133.6C721.78,-133.6 721.78,-151.71 721.78,-151.71"/>
<polygon fill="lightgrey" stroke="lightgrey" points="718.28,-161.71 721.78,-151.71 725.28,-161.71 718.28,-161.71"/>
</g>
<!-- i1639a160&#45;&gt;i1639a1f0 -->
<g id="edge24" class="edge">
<title>i1639a160&#45;&gt;i1639a1f0</title>
<path fill="none" stroke="lightgrey" d="M816.04,-78.12C816.04,-78.12 816.04,-145.03 816.04,-145.03"/>
<polygon fill="none" stroke="lightgrey" points="812.54,-145.03 816.04,-155.03 819.54,-145.03 812.54,-145.03"/>
</g>
<!-- i1639a1f0&#45;&gt;i1639a0d0 -->
<g id="edge23" class="edge">
<title>i1639a1f0&#45;&gt;i1639a0d0</title>
<path fill="none" stroke="red" d="M749.27,-157.96C749.27,-157.96 749.27,-139.86 749.27,-139.86"/>
<polygon fill="red" stroke="red" points="752.77,-139.86 749.27,-129.86 745.77,-139.86 752.77,-139.86"/>
</g>
<!-- i1639a1f0&#45;&gt;i1639a1f0 -->
<g id="edge22" class="edge">
<title>i1639a1f0&#45;&gt;i1639a1f0</title>
<path fill="none" stroke="red" d="M918.7,-183.31C918.7,-189.4 918.7,-196 918.7,-196 918.7,-196 956.67,-196 956.67,-196 956.67,-196 956.67,-145 956.67,-145 956.67,-145 896.99,-145 896.99,-145 896.99,-145 896.99,-151.47 896.99,-151.47"/>
<ellipse fill="red" stroke="red" cx="896.99" cy="-155.47" rx="4" ry="4"/>
</g>
<!-- i1639a060 -->
<g id="node14" class="node">
<title>i1639a060</title>
<ellipse fill="none" stroke="transparent" cx="654.44" cy="-350.13" rx="115.08" ry="18"/>
<text text-anchor="middle" x="654.44" y="-346.43" font-family="Verdana" font-size="14.00">store 0.000000 to %18</text>
</g>
<!-- i1639a060&#45;&gt;i1639a060 -->
<g id="edge27" class="edge">
<title>i1639a060&#45;&gt;i1639a060</title>
<path fill="none" stroke="red" d="M757.58,-358.34C757.58,-366.24 757.58,-377 757.58,-377 757.58,-377 777.56,-377 777.56,-377 777.56,-377 777.56,-319 777.56,-319 777.56,-319 731.88,-319 731.88,-319 731.88,-319 731.88,-328.75 731.88,-328.75"/>
<ellipse fill="red" stroke="red" cx="731.88" cy="-332.75" rx="4" ry="4"/>
</g>
<!-- i16399580 -->
<g id="node18" class="node">
<title>i16399580</title>
<ellipse fill="none" stroke="transparent" cx="685.88" cy="-617.64" rx="59.59" ry="18"/>
<text text-anchor="middle" x="685.88" y="-613.94" font-family="Verdana" font-size="14.00">i16399580</text>
</g>
<!-- i16399580&#45;&gt;i16399e30 -->
<g id="edge20" class="edge">
<title>i16399580&#45;&gt;i16399e30</title>
<path fill="none" stroke="lightgrey" d="M655.8,-601.87C655.8,-601.87 655.8,-589.61 655.8,-589.61"/>
<polygon fill="none" stroke="lightgrey" points="659.3,-589.61 655.8,-579.61 652.3,-589.61 659.3,-589.61"/>
</g>
<!-- i163993f0 -->
<g id="node19" class="node">
<title>i163993f0</title>
<ellipse fill="none" stroke="transparent" cx="583.42" cy="-474.04" rx="57.69" ry="18"/>
<text text-anchor="middle" x="583.42" y="-470.34" font-family="Verdana" font-size="14.00">i163993f0</text>
</g>
<!-- i163993f0&#45;&gt;i16399e30 -->
<g id="edge21" class="edge">
<title>i163993f0&#45;&gt;i16399e30</title>
<path fill="none" stroke="lightgrey" d="M583.42,-492.21C583.42,-492.21 583.42,-537.9 583.42,-537.9"/>
<polygon fill="none" stroke="lightgrey" points="579.92,-537.9 583.42,-547.9 586.92,-537.9 579.92,-537.9"/>
</g>
<!-- i16399fc0 -->
<g id="node20" class="node">
<title>i16399fc0</title>
<ellipse fill="none" stroke="transparent" cx="842.2" cy="-321.95" rx="56.59" ry="18"/>
<text text-anchor="middle" x="842.2" y="-318.25" font-family="Verdana" font-size="14.00">i16399fc0</text>
</g>
<!-- i16399fc0&#45;&gt;i1639a060 -->
<g id="edge28" class="edge">
<title>i16399fc0&#45;&gt;i1639a060</title>
<path fill="none" stroke="lightgrey" d="M806.44,-336C806.44,-336 735.83,-336 735.83,-336"/>
<polygon fill="none" stroke="lightgrey" points="735.83,-332.5 725.83,-336 735.83,-339.5 735.83,-332.5"/>
</g>
</g>
</svg>
