<?xml version="1.0" encoding="UTF-8" standalone="no"?>
<!DOCTYPE svg PUBLIC "-//W3C//DTD SVG 1.1//EN"
 "http://www.w3.org/Graphics/SVG/1.1/DTD/svg11.dtd">
<!-- Generated by graphviz version 2.43.0 (0)
 -->
<!-- Title: G Pages: 1 -->
<svg width="2011pt" height="1404pt"
 viewBox="0.00 0.00 2011.46 1404.00" xmlns="http://www.w3.org/2000/svg" xmlns:xlink="http://www.w3.org/1999/xlink">
<g id="graph0" class="graph" transform="scale(1 1) rotate(0) translate(4 1400)">
<title>G</title>
<polygon fill="white" stroke="transparent" points="-4,4 -4,-1400 2007.46,-1400 2007.46,4 -4,4"/>
<g id="clust1" class="cluster">
<title>cluster_scc0</title>
<path fill="white" stroke="red" d="M410.09,-457.1C410.09,-457.1 868.09,-457.1 868.09,-457.1 874.09,-457.1 880.09,-463.1 880.09,-469.1 880.09,-469.1 880.09,-735.1 880.09,-735.1 880.09,-741.1 874.09,-747.1 868.09,-747.1 868.09,-747.1 410.09,-747.1 410.09,-747.1 404.09,-747.1 398.09,-741.1 398.09,-735.1 398.09,-735.1 398.09,-469.1 398.09,-469.1 398.09,-463.1 404.09,-457.1 410.09,-457.1"/>
</g>
<g id="clust2" class="cluster">
<title>cluster_scc1</title>
<path fill="white" stroke="red" d="M482.67,-997.46C482.67,-997.46 657.67,-997.46 657.67,-997.46 663.67,-997.46 669.67,-1003.46 669.67,-1009.46 669.67,-1009.46 669.67,-1037.46 669.67,-1037.46 669.67,-1043.46 663.67,-1049.46 657.67,-1049.46 657.67,-1049.46 482.67,-1049.46 482.67,-1049.46 476.67,-1049.46 470.67,-1043.46 470.67,-1037.46 470.67,-1037.46 470.67,-1009.46 470.67,-1009.46 470.67,-1003.46 476.67,-997.46 482.67,-997.46"/>
</g>
<g id="clust3" class="cluster">
<title>cluster_scc2</title>
<path fill="white" stroke="green" d="M442.36,-0.48C442.36,-0.48 745.36,-0.48 745.36,-0.48 751.36,-0.48 757.36,-6.48 757.36,-12.48 757.36,-12.48 757.36,-63.48 757.36,-63.48 757.36,-69.48 751.36,-75.48 745.36,-75.48 745.36,-75.48 442.36,-75.48 442.36,-75.48 436.36,-75.48 430.36,-69.48 430.36,-63.48 430.36,-63.48 430.36,-12.48 430.36,-12.48 430.36,-6.48 436.36,-0.48 442.36,-0.48"/>
<text text-anchor="middle" x="593.86" y="-60.28" font-family="Times,serif" font-size="14.00">Loop Iteration</text>
</g>
<g id="clust4" class="cluster">
<title>cluster_scc3</title>
<path fill="white" stroke="red" d="M821.74,-899.64C821.74,-899.64 1204.74,-899.64 1204.74,-899.64 1210.74,-899.64 1216.74,-905.64 1216.74,-911.64 1216.74,-911.64 1216.74,-1049.64 1216.74,-1049.64 1216.74,-1055.64 1210.74,-1061.64 1204.74,-1061.64 1204.74,-1061.64 821.74,-1061.64 821.74,-1061.64 815.74,-1061.64 809.74,-1055.64 809.74,-1049.64 809.74,-1049.64 809.74,-911.64 809.74,-911.64 809.74,-905.64 815.74,-899.64 821.74,-899.64"/>
</g>
<g id="clust5" class="cluster">
<title>cluster_scc4</title>
<path fill="white" stroke="green" d="M1002.24,-720.14C1002.24,-720.14 1096.24,-720.14 1096.24,-720.14 1102.24,-720.14 1108.24,-726.14 1108.24,-732.14 1108.24,-732.14 1108.24,-783.14 1108.24,-783.14 1108.24,-789.14 1102.24,-795.14 1096.24,-795.14 1096.24,-795.14 1002.24,-795.14 1002.24,-795.14 996.24,-795.14 990.24,-789.14 990.24,-783.14 990.24,-783.14 990.24,-732.14 990.24,-732.14 990.24,-726.14 996.24,-720.14 1002.24,-720.14"/>
<text text-anchor="middle" x="1049.24" y="-779.94" font-family="Times,serif" font-size="14.00">Loop Iteration</text>
</g>
<g id="clust6" class="cluster">
<title>cluster_scc5</title>
<path fill="white" stroke="green" d="M1002.24,-360.14C1002.24,-360.14 1096.24,-360.14 1096.24,-360.14 1102.24,-360.14 1108.24,-366.14 1108.24,-372.14 1108.24,-372.14 1108.24,-423.14 1108.24,-423.14 1108.24,-429.14 1102.24,-435.14 1096.24,-435.14 1096.24,-435.14 1002.24,-435.14 1002.24,-435.14 996.24,-435.14 990.24,-429.14 990.24,-423.14 990.24,-423.14 990.24,-372.14 990.24,-372.14 990.24,-366.14 996.24,-360.14 1002.24,-360.14"/>
<text text-anchor="middle" x="1049.24" y="-419.94" font-family="Times,serif" font-size="14.00">Loop Iteration</text>
</g>
<g id="clust7" class="cluster">
<title>cluster_scc6</title>
<path fill="white" stroke="green" d="M148.01,-1320.5C148.01,-1320.5 375.01,-1320.5 375.01,-1320.5 381.01,-1320.5 387.01,-1326.5 387.01,-1332.5 387.01,-1332.5 387.01,-1383.5 387.01,-1383.5 387.01,-1389.5 381.01,-1395.5 375.01,-1395.5 375.01,-1395.5 148.01,-1395.5 148.01,-1395.5 142.01,-1395.5 136.01,-1389.5 136.01,-1383.5 136.01,-1383.5 136.01,-1332.5 136.01,-1332.5 136.01,-1326.5 142.01,-1320.5 148.01,-1320.5"/>
<text text-anchor="middle" x="261.51" y="-1380.3" font-family="Times,serif" font-size="14.00">Loop Iteration</text>
</g>
<g id="clust8" class="cluster">
<title>cluster_scc7</title>
<path fill="white" stroke="green" d="M1029.22,-473.65C1029.22,-473.65 1288.22,-473.65 1288.22,-473.65 1294.22,-473.65 1300.22,-479.65 1300.22,-485.65 1300.22,-485.65 1300.22,-536.65 1300.22,-536.65 1300.22,-542.65 1294.22,-548.65 1288.22,-548.65 1288.22,-548.65 1029.22,-548.65 1029.22,-548.65 1023.22,-548.65 1017.22,-542.65 1017.22,-536.65 1017.22,-536.65 1017.22,-485.65 1017.22,-485.65 1017.22,-479.65 1023.22,-473.65 1029.22,-473.65"/>
<text text-anchor="middle" x="1158.72" y="-533.45" font-family="Times,serif" font-size="14.00">Loop Iteration</text>
</g>
<g id="clust9" class="cluster">
<title>cluster_scc8</title>
<path fill="white" stroke="green" d="M1336.2,-956.67C1336.2,-956.67 1564.2,-956.67 1564.2,-956.67 1570.2,-956.67 1576.2,-962.67 1576.2,-968.67 1576.2,-968.67 1576.2,-1019.67 1576.2,-1019.67 1576.2,-1025.67 1570.2,-1031.67 1564.2,-1031.67 1564.2,-1031.67 1336.2,-1031.67 1336.2,-1031.67 1330.2,-1031.67 1324.2,-1025.67 1324.2,-1019.67 1324.2,-1019.67 1324.2,-968.67 1324.2,-968.67 1324.2,-962.67 1330.2,-956.67 1336.2,-956.67"/>
<text text-anchor="middle" x="1450.2" y="-1016.47" font-family="Times,serif" font-size="14.00">Loop Iteration</text>
</g>
<g id="clust10" class="cluster">
<title>cluster_scc9</title>
<path fill="white" stroke="green" d="M109.05,-448.1C109.05,-448.1 378.05,-448.1 378.05,-448.1 384.05,-448.1 390.05,-454.1 390.05,-460.1 390.05,-460.1 390.05,-511.1 390.05,-511.1 390.05,-517.1 384.05,-523.1 378.05,-523.1 378.05,-523.1 109.05,-523.1 109.05,-523.1 103.05,-523.1 97.05,-517.1 97.05,-511.1 97.05,-511.1 97.05,-460.1 97.05,-460.1 97.05,-454.1 103.05,-448.1 109.05,-448.1"/>
<text text-anchor="middle" x="243.55" y="-507.9" font-family="Times,serif" font-size="14.00">Loop Iteration</text>
</g>
<g id="clust11" class="cluster">
<title>cluster_scc10</title>
<path fill="white" stroke="red" d="M1759.04,-951.7C1759.04,-951.7 1981.04,-951.7 1981.04,-951.7 1987.04,-951.7 1993.04,-957.7 1993.04,-963.7 1993.04,-963.7 1993.04,-991.7 1993.04,-991.7 1993.04,-997.7 1987.04,-1003.7 1981.04,-1003.7 1981.04,-1003.7 1759.04,-1003.7 1759.04,-1003.7 1753.04,-1003.7 1747.04,-997.7 1747.04,-991.7 1747.04,-991.7 1747.04,-963.7 1747.04,-963.7 1747.04,-957.7 1753.04,-951.7 1759.04,-951.7"/>
</g>
<g id="clust12" class="cluster">
<title>cluster_scc11</title>
<path fill="white" stroke="green" d="M11.84,-880.42C11.84,-880.42 269.84,-880.42 269.84,-880.42 275.84,-880.42 281.84,-886.42 281.84,-892.42 281.84,-892.42 281.84,-943.42 281.84,-943.42 281.84,-949.42 275.84,-955.42 269.84,-955.42 269.84,-955.42 11.84,-955.42 11.84,-955.42 5.84,-955.42 -0.16,-949.42 -0.16,-943.42 -0.16,-943.42 -0.16,-892.42 -0.16,-892.42 -0.16,-886.42 5.84,-880.42 11.84,-880.42"/>
<text text-anchor="middle" x="140.84" y="-940.22" font-family="Times,serif" font-size="14.00">Loop Iteration</text>
</g>
<!-- i25d84140 -->
<g id="node1" class="node">
<title>i25d84140</title>
<ellipse fill="none" stroke="transparent" cx="537.33" cy="-706.74" rx="75.29" ry="18"/>
<text text-anchor="middle" x="537.33" y="-703.04" font-family="Verdana" font-size="14.00">%7 = load %4</text>
</g>
<!-- i25d841d0 -->
<g id="node2" class="node">
<title>i25d841d0</title>
<ellipse fill="none" stroke="transparent" cx="670.33" cy="-552.74" rx="96.38" ry="18"/>
<text text-anchor="middle" x="670.33" y="-549.04" font-family="Verdana" font-size="14.00">%8 = icmp %7, 16</text>
</g>
<!-- i25d84140&#45;&gt;i25d841d0 -->
<g id="edge1" class="edge">
<title>i25d84140&#45;&gt;i25d841d0</title>
<path fill="none" stroke="lightgrey" d="M594.46,-694.81C594.46,-675.61 594.46,-640 594.46,-640 594.46,-640 752.6,-640 752.6,-640 752.6,-640 752.6,-572.08 752.6,-572.08"/>
<polygon fill="none" stroke="lightgrey" points="756.1,-572.08 752.6,-562.08 749.1,-572.08 756.1,-572.08"/>
</g>
<!-- i25d853f0 -->
<g id="node9" class="node">
<title>i25d853f0</title>
<ellipse fill="none" stroke="transparent" cx="786.33" cy="-720.74" rx="85.59" ry="18"/>
<text text-anchor="middle" x="786.33" y="-717.04" font-family="Verdana" font-size="14.00">store %23 to %4</text>
</g>
<!-- i25d84140&#45;&gt;i25d853f0 -->
<g id="edge2" class="edge">
<title>i25d84140&#45;&gt;i25d853f0</title>
<path fill="none" stroke="lightgrey" d="M588.32,-720C588.32,-720 690.59,-720 690.59,-720"/>
<polygon fill="lightgrey" stroke="lightgrey" points="700.59,-723.5 690.59,-720 700.59,-716.5 700.59,-723.5"/>
</g>
<!-- i25d84280 -->
<g id="node3" class="node">
<title>i25d84280</title>
<ellipse fill="none" stroke="transparent" cx="514.33" cy="-594.74" rx="38.19" ry="18"/>
<text text-anchor="middle" x="514.33" y="-591.04" font-family="Verdana" font-size="14.00">br %8</text>
</g>
<!-- i25d841d0&#45;&gt;i25d84280 -->
<g id="edge12" class="edge">
<title>i25d841d0&#45;&gt;i25d84280</title>
<path fill="none" stroke="lightgrey" d="M574.19,-552C542.09,-552 514.33,-552 514.33,-552 514.33,-552 514.33,-566.37 514.33,-566.37"/>
<polygon fill="none" stroke="lightgrey" points="510.83,-566.37 514.33,-576.37 517.83,-566.37 510.83,-566.37"/>
</g>
<!-- i25d842f0 -->
<g id="node4" class="node">
<title>i25d842f0</title>
<ellipse fill="none" stroke="transparent" cx="535.89" cy="-482.66" rx="81.49" ry="18"/>
<text text-anchor="middle" x="535.89" y="-478.96" font-family="Verdana" font-size="14.00">%10 = load %4</text>
</g>
<!-- i25d842f0&#45;&gt;i25d853f0 -->
<g id="edge13" class="edge">
<title>i25d842f0&#45;&gt;i25d853f0</title>
<path fill="none" stroke="lightgrey" d="M607.14,-474C701.23,-474 855.14,-474 855.14,-474 855.14,-474 855.14,-699.82 855.14,-699.82"/>
<polygon fill="lightgrey" stroke="lightgrey" points="851.64,-709.82 855.14,-699.82 858.64,-709.82 851.64,-709.82"/>
</g>
<!-- i25d84360 -->
<g id="node11" class="node">
<title>i25d84360</title>
<ellipse fill="none" stroke="transparent" cx="593.86" cy="-26.03" rx="155.97" ry="18"/>
<text text-anchor="middle" x="593.86" y="-22.33" font-family="Verdana" font-size="14.00">%11 = sitofp i32 %10 to double</text>
</g>
<!-- i25d842f0&#45;&gt;i25d84360 -->
<g id="edge16" class="edge">
<title>i25d842f0&#45;&gt;i25d84360</title>
<path fill="none" stroke="lightgrey" d="M508.81,-465.59C508.81,-465.59 508.81,-51.52 508.81,-51.52"/>
<polygon fill="none" stroke="lightgrey" points="512.31,-51.52 508.81,-41.52 505.31,-51.52 512.31,-51.52"/>
</g>
<!-- i25d842f0&#45;&gt;i25d84360 -->
<g id="edge23" class="edge">
<title>i25d842f0&#45;&gt;i25d84360</title>
<path fill="none" stroke="lightgrey" d="M562.97,-465.59C562.97,-465.59 562.97,-53.92 562.97,-53.92"/>
<polygon fill="none" stroke="lightgrey" points="566.47,-53.92 562.97,-43.92 559.47,-53.92 566.47,-53.92"/>
</g>
<!-- i25d84460 -->
<g id="node5" class="node">
<title>i25d84460</title>
<ellipse fill="none" stroke="transparent" cx="486.94" cy="-651.27" rx="81.49" ry="18"/>
<text text-anchor="middle" x="486.94" y="-647.57" font-family="Verdana" font-size="14.00">%13 = load %4</text>
</g>
<!-- i25d84460&#45;&gt;i25d853f0 -->
<g id="edge14" class="edge">
<title>i25d84460&#45;&gt;i25d853f0</title>
<path fill="none" stroke="lightgrey" d="M439.44,-666.06C439.44,-689.86 439.44,-734 439.44,-734 439.44,-734 718.27,-734 718.27,-734"/>
<polygon fill="lightgrey" stroke="lightgrey" points="728.27,-737.5 718.27,-734 728.27,-730.5 728.27,-737.5"/>
</g>
<!-- i25d844d0 -->
<g id="node22" class="node">
<title>i25d844d0</title>
<ellipse fill="none" stroke="transparent" cx="141.04" cy="-906.13" rx="133.48" ry="18"/>
<text text-anchor="middle" x="141.04" y="-902.43" font-family="Verdana" font-size="14.00">%14 = sext i32 %13 to i64</text>
</g>
<!-- i25d84460&#45;&gt;i25d844d0 -->
<g id="edge17" class="edge">
<title>i25d84460&#45;&gt;i25d844d0</title>
<path fill="none" stroke="lightgrey" d="M428.19,-663.95C428.19,-714.63 428.19,-900 428.19,-900 428.19,-900 276.57,-900 276.57,-900"/>
<polygon fill="none" stroke="lightgrey" points="276.57,-896.5 266.57,-900 276.57,-903.5 276.57,-896.5"/>
</g>
<!-- i25d84460&#45;&gt;i25d844d0 -->
<g id="edge40" class="edge">
<title>i25d84460&#45;&gt;i25d844d0</title>
<path fill="none" stroke="lightgrey" d="M416.94,-660.49C416.94,-704.83 416.94,-894 416.94,-894 416.94,-894 249.48,-894 249.48,-894"/>
<polygon fill="none" stroke="lightgrey" points="249.48,-890.5 239.48,-894 249.48,-897.5 249.48,-890.5"/>
</g>
<!-- i25d84ea0 -->
<g id="node6" class="node">
<title>i25d84ea0</title>
<ellipse fill="none" stroke="transparent" cx="657.44" cy="-609.36" rx="81.49" ry="18"/>
<text text-anchor="middle" x="657.44" y="-605.66" font-family="Verdana" font-size="14.00">%16 = load %4</text>
</g>
<!-- i25d84ea0&#45;&gt;i25d853f0 -->
<g id="edge15" class="edge">
<title>i25d84ea0&#45;&gt;i25d853f0</title>
<path fill="none" stroke="lightgrey" d="M623.31,-626.15C623.31,-655.01 623.31,-711 623.31,-711 623.31,-711 703.88,-711 703.88,-711"/>
<polygon fill="lightgrey" stroke="lightgrey" points="713.88,-714.5 703.88,-711 713.88,-707.5 713.88,-714.5"/>
</g>
<!-- i25d84f10 -->
<g id="node18" class="node">
<title>i25d84f10</title>
<ellipse fill="none" stroke="transparent" cx="1158.81" cy="-499.42" rx="133.48" ry="18"/>
<text text-anchor="middle" x="1158.81" y="-495.72" font-family="Verdana" font-size="14.00">%17 = sext i32 %16 to i64</text>
</g>
<!-- i25d84ea0&#45;&gt;i25d84f10 -->
<g id="edge18" class="edge">
<title>i25d84ea0&#45;&gt;i25d84f10</title>
<path fill="none" stroke="lightgrey" d="M734.96,-615C851.8,-615 1059.51,-615 1059.51,-615 1059.51,-615 1059.51,-521.79 1059.51,-521.79"/>
<polygon fill="none" stroke="lightgrey" points="1063.01,-521.79 1059.51,-511.79 1056.01,-521.79 1063.01,-521.79"/>
</g>
<!-- i25d84ea0&#45;&gt;i25d84f10 -->
<g id="edge32" class="edge">
<title>i25d84ea0&#45;&gt;i25d84f10</title>
<path fill="none" stroke="lightgrey" d="M733.52,-603C845.75,-603 1042.54,-603 1042.54,-603 1042.54,-603 1042.54,-518.25 1042.54,-518.25"/>
<polygon fill="none" stroke="lightgrey" points="1046.04,-518.25 1042.54,-508.25 1039.04,-518.25 1046.04,-518.25"/>
</g>
<!-- i25d852d0 -->
<g id="node7" class="node">
<title>i25d852d0</title>
<ellipse fill="none" stroke="transparent" cx="725.33" cy="-496.74" rx="81.49" ry="18"/>
<text text-anchor="middle" x="725.33" y="-493.04" font-family="Verdana" font-size="14.00">%22 = load %4</text>
</g>
<!-- i25d85360 -->
<g id="node8" class="node">
<title>i25d85360</title>
<ellipse fill="none" stroke="transparent" cx="741.33" cy="-664.74" rx="96.68" ry="18"/>
<text text-anchor="middle" x="741.33" y="-661.04" font-family="Verdana" font-size="14.00">%23 = add %22, 1</text>
</g>
<!-- i25d852d0&#45;&gt;i25d85360 -->
<g id="edge4" class="edge">
<title>i25d852d0&#45;&gt;i25d85360</title>
<path fill="none" stroke="lightgrey" d="M786.54,-508.82C786.54,-508.82 786.54,-638.69 786.54,-638.69"/>
<polygon fill="none" stroke="lightgrey" points="783.04,-638.69 786.54,-648.69 790.04,-638.69 783.04,-638.69"/>
</g>
<!-- i25d852d0&#45;&gt;i25d853f0 -->
<g id="edge3" class="edge">
<title>i25d852d0&#45;&gt;i25d853f0</title>
<path fill="none" stroke="lightgrey" d="M801.71,-503C824.64,-503 843.83,-503 843.83,-503 843.83,-503 843.83,-697.12 843.83,-697.12"/>
<polygon fill="lightgrey" stroke="lightgrey" points="840.33,-707.12 843.83,-697.12 847.33,-707.12 840.33,-707.12"/>
</g>
<!-- i25d85360&#45;&gt;i25d853f0 -->
<g id="edge5" class="edge">
<title>i25d85360&#45;&gt;i25d853f0</title>
<path fill="none" stroke="lightgrey" d="M769.35,-682.15C769.35,-682.15 769.35,-692.76 769.35,-692.76"/>
<polygon fill="none" stroke="lightgrey" points="765.85,-692.76 769.35,-702.76 772.85,-692.76 765.85,-692.76"/>
</g>
<!-- i25d853f0&#45;&gt;i25d84140 -->
<g id="edge11" class="edge">
<title>i25d853f0&#45;&gt;i25d84140</title>
<path fill="none" stroke="red" d="M704.8,-715C704.8,-715 614.49,-715 614.49,-715"/>
<polygon fill="red" stroke="red" points="614.49,-711.5 604.49,-715 614.49,-718.5 614.49,-711.5"/>
</g>
<!-- i25d853f0&#45;&gt;i25d842f0 -->
<g id="edge10" class="edge">
<title>i25d853f0&#45;&gt;i25d842f0</title>
<path fill="none" stroke="red" d="M860.8,-711.78C860.8,-666.93 860.8,-469 860.8,-469 860.8,-469 598.82,-469 598.82,-469"/>
<polygon fill="red" stroke="red" points="598.82,-465.5 588.82,-469 598.82,-472.5 598.82,-465.5"/>
</g>
<!-- i25d853f0&#45;&gt;i25d84460 -->
<g id="edge9" class="edge">
<title>i25d853f0&#45;&gt;i25d84460</title>
<path fill="none" stroke="red" d="M709.75,-729C610.68,-729 450.69,-729 450.69,-729 450.69,-729 450.69,-677.76 450.69,-677.76"/>
<polygon fill="red" stroke="red" points="454.19,-677.76 450.69,-667.76 447.19,-677.76 454.19,-677.76"/>
</g>
<!-- i25d853f0&#45;&gt;i25d84ea0 -->
<g id="edge8" class="edge">
<title>i25d853f0&#45;&gt;i25d84ea0</title>
<path fill="none" stroke="red" d="M730.87,-707C687.28,-707 633.9,-707 633.9,-707 633.9,-707 633.9,-636.82 633.9,-636.82"/>
<polygon fill="red" stroke="red" points="637.4,-636.82 633.9,-626.82 630.4,-636.82 637.4,-636.82"/>
</g>
<!-- i25d853f0&#45;&gt;i25d852d0 -->
<g id="edge7" class="edge">
<title>i25d853f0&#45;&gt;i25d852d0</title>
<path fill="none" stroke="red" d="M849.49,-708.44C849.49,-660.93 849.49,-492 849.49,-492 849.49,-492 813.96,-492 813.96,-492"/>
<polygon fill="red" stroke="red" points="813.96,-488.5 803.96,-492 813.96,-495.5 813.96,-488.5"/>
</g>
<!-- i25d853f0&#45;&gt;i25d853f0 -->
<g id="edge6" class="edge">
<title>i25d853f0&#45;&gt;i25d853f0</title>
<path fill="none" stroke="red" d="M844.95,-734.1C844.95,-742.21 844.95,-751 844.95,-751 844.95,-751 905.63,-751 905.63,-751 905.63,-751 905.63,-695 905.63,-695 905.63,-695 866.46,-695 866.46,-695 866.46,-695 866.46,-706.24 866.46,-706.24"/>
<ellipse fill="red" stroke="red" cx="866.46" cy="-710.24" rx="4" ry="4"/>
</g>
<!-- i25d84e30 -->
<g id="node10" class="node">
<title>i25d84e30</title>
<ellipse fill="none" stroke="transparent" cx="570.12" cy="-1023.34" rx="91.78" ry="18"/>
<text text-anchor="middle" x="570.12" y="-1019.64" font-family="Verdana" font-size="14.00">store %12 to %15</text>
</g>
<!-- i25d84e30&#45;&gt;i25d84e30 -->
<g id="edge19" class="edge">
<title>i25d84e30&#45;&gt;i25d84e30</title>
<path fill="none" stroke="red" d="M570.12,-1041.51C570.12,-1044.69 570.12,-1047 570.12,-1047 570.12,-1047 681.15,-1047 681.15,-1047 681.15,-1047 681.15,-980 681.15,-980 681.15,-980 653.13,-980 653.13,-980 653.13,-980 653.13,-1007.39 653.13,-1007.39"/>
<ellipse fill="red" stroke="red" cx="653.13" cy="-1011.39" rx="4" ry="4"/>
</g>
<!-- i25d843f0 -->
<g id="node20" class="node">
<title>i25d843f0</title>
<ellipse fill="none" stroke="transparent" cx="243.5" cy="-474.22" rx="138.38" ry="18"/>
<text text-anchor="middle" x="243.5" y="-470.52" font-family="Verdana" font-size="14.00">%12 = fmul %11, 1.000000</text>
</g>
<!-- i25d84360&#45;&gt;i25d843f0 -->
<g id="edge22" class="edge">
<title>i25d84360&#45;&gt;i25d843f0</title>
<path fill="none" stroke="lightgrey" d="M449.06,-32.86C449.06,-88.2 449.06,-461 449.06,-461 449.06,-461 347.55,-461 347.55,-461"/>
<polygon fill="none" stroke="lightgrey" points="347.55,-457.5 337.55,-461 347.55,-464.5 347.55,-457.5"/>
</g>
<!-- i25d84360&#45;&gt;i25d843f0 -->
<g id="edge36" class="edge">
<title>i25d84360&#45;&gt;i25d843f0</title>
<path fill="none" stroke="lightgrey" d="M443.47,-30.89C443.47,-78.46 443.47,-459 443.47,-459 443.47,-459 327.67,-459 327.67,-459"/>
<polygon fill="none" stroke="lightgrey" points="327.67,-455.5 317.67,-459 327.67,-462.5 327.67,-455.5"/>
</g>
<!-- i25d850d0 -->
<g id="node12" class="node">
<title>i25d850d0</title>
<ellipse fill="none" stroke="transparent" cx="1089.98" cy="-1035.28" rx="118.08" ry="18"/>
<text text-anchor="middle" x="1089.98" y="-1031.58" font-family="Verdana" font-size="14.00">%19 = load @loop_id_0</text>
</g>
<!-- i25d85160 -->
<g id="node13" class="node">
<title>i25d85160</title>
<ellipse fill="none" stroke="transparent" cx="1035.98" cy="-925.28" rx="96.68" ry="18"/>
<text text-anchor="middle" x="1035.98" y="-921.58" font-family="Verdana" font-size="14.00">%20 = add %19, 1</text>
</g>
<!-- i25d850d0&#45;&gt;i25d85160 -->
<g id="edge28" class="edge">
<title>i25d850d0&#45;&gt;i25d85160</title>
<path fill="none" stroke="lightgrey" d="M1109.27,-1017.12C1109.27,-1017.12 1109.27,-947.35 1109.27,-947.35"/>
<polygon fill="none" stroke="lightgrey" points="1112.77,-947.35 1109.27,-937.35 1105.77,-947.35 1112.77,-947.35"/>
</g>
<!-- i25d851f0 -->
<g id="node14" class="node">
<title>i25d851f0</title>
<ellipse fill="none" stroke="transparent" cx="939.98" cy="-980.28" rx="122.38" ry="18"/>
<text text-anchor="middle" x="939.98" y="-976.58" font-family="Verdana" font-size="14.00">store %20 to @loop_id_0</text>
</g>
<!-- i25d850d0&#45;&gt;i25d851f0 -->
<g id="edge27" class="edge">
<title>i25d850d0&#45;&gt;i25d851f0</title>
<path fill="none" stroke="lightgrey" d="M994.31,-1024.68C994.31,-1024.68 994.31,-1006.49 994.31,-1006.49"/>
<polygon fill="lightgrey" stroke="lightgrey" points="997.81,-996.49 994.31,-1006.49 990.81,-996.49 997.81,-996.49"/>
</g>
<!-- i25d85160&#45;&gt;i25d851f0 -->
<g id="edge26" class="edge">
<title>i25d85160&#45;&gt;i25d851f0</title>
<path fill="none" stroke="lightgrey" d="M980.15,-940.02C980.15,-940.02 980.15,-953.16 980.15,-953.16"/>
<polygon fill="none" stroke="lightgrey" points="976.65,-953.16 980.15,-963.16 983.65,-953.16 976.65,-953.16"/>
</g>
<!-- i25d851f0&#45;&gt;i25d850d0 -->
<g id="edge24" class="edge">
<title>i25d851f0&#45;&gt;i25d850d0</title>
<path fill="none" stroke="red" d="M1016.93,-994.45C1016.93,-994.45 1016.93,-1010.97 1016.93,-1010.97"/>
<polygon fill="red" stroke="red" points="1013.43,-1010.97 1016.93,-1020.97 1020.43,-1010.97 1013.43,-1010.97"/>
</g>
<!-- i25d851f0&#45;&gt;i25d851f0 -->
<g id="edge25" class="edge">
<title>i25d851f0&#45;&gt;i25d851f0</title>
<path fill="none" stroke="red" d="M1039.55,-990.98C1039.55,-999.14 1039.55,-1009 1039.55,-1009 1039.55,-1009 1085.72,-1009 1085.72,-1009 1085.72,-1009 1085.72,-948 1085.72,-948 1085.72,-948 1021.16,-948 1021.16,-948 1021.16,-948 1021.16,-958.78 1021.16,-958.78"/>
<ellipse fill="red" stroke="red" cx="1021.16" cy="-962.78" rx="4" ry="4"/>
</g>
<!-- i25d85460 -->
<g id="node15" class="node">
<title>i25d85460</title>
<ellipse fill="none" stroke="transparent" cx="1049.48" cy="-745.78" rx="27" ry="18"/>
<text text-anchor="middle" x="1049.48" y="-742.08" font-family="Verdana" font-size="14.00">br</text>
</g>
<!-- i25d85260 -->
<g id="node16" class="node">
<title>i25d85260</title>
<ellipse fill="none" stroke="transparent" cx="1049.48" cy="-385.78" rx="27" ry="18"/>
<text text-anchor="middle" x="1049.48" y="-382.08" font-family="Verdana" font-size="14.00">br</text>
</g>
<!-- i25d84580 -->
<g id="node17" class="node">
<title>i25d84580</title>
<ellipse fill="none" stroke="transparent" cx="261.77" cy="-1346.32" rx="117.78" ry="18"/>
<text text-anchor="middle" x="261.77" y="-1342.62" font-family="Verdana" font-size="14.00">%15 = gep %2, 0, %14</text>
</g>
<!-- i25d84580&#45;&gt;i25d84e30 -->
<g id="edge21" class="edge">
<title>i25d84580&#45;&gt;i25d84e30</title>
<path fill="none" stroke="lightgrey" d="M358.38,-1335.93C358.38,-1281.74 358.38,-1034 358.38,-1034 358.38,-1034 486.07,-1034 486.07,-1034"/>
<polygon fill="none" stroke="lightgrey" points="486.07,-1037.5 496.07,-1034 486.07,-1030.5 486.07,-1037.5"/>
</g>
<!-- i25d84580&#45;&gt;i25d84e30 -->
<g id="edge29" class="edge">
<title>i25d84580&#45;&gt;i25d84e30</title>
<path fill="none" stroke="lightgrey" d="M337.36,-1332.15C337.36,-1270.15 337.36,-1026 337.36,-1026 337.36,-1026 469.46,-1026 469.46,-1026"/>
<polygon fill="none" stroke="lightgrey" points="469.46,-1029.5 479.46,-1026 469.46,-1022.5 469.46,-1029.5"/>
</g>
<!-- i25d84fc0 -->
<g id="node19" class="node">
<title>i25d84fc0</title>
<ellipse fill="none" stroke="transparent" cx="1450.14" cy="-983.14" rx="117.78" ry="18"/>
<text text-anchor="middle" x="1450.14" y="-979.44" font-family="Verdana" font-size="14.00">%18 = gep %3, 0, %17</text>
</g>
<!-- i25d84f10&#45;&gt;i25d84fc0 -->
<g id="edge31" class="edge">
<title>i25d84f10&#45;&gt;i25d84fc0</title>
<path fill="none" stroke="lightgrey" d="M1236.19,-514.28C1236.19,-595.99 1236.19,-987 1236.19,-987 1236.19,-987 1325.02,-987 1325.02,-987"/>
<polygon fill="none" stroke="lightgrey" points="1325.02,-990.5 1335.02,-987 1325.02,-983.5 1325.02,-990.5"/>
</g>
<!-- i25d84f10&#45;&gt;i25d84fc0 -->
<g id="edge34" class="edge">
<title>i25d84f10&#45;&gt;i25d84fc0</title>
<path fill="none" stroke="lightgrey" d="M1264.12,-510.73C1264.12,-582.9 1264.12,-976 1264.12,-976 1264.12,-976 1331.93,-976 1331.93,-976"/>
<polygon fill="none" stroke="lightgrey" points="1331.93,-979.5 1341.93,-976 1331.93,-972.5 1331.93,-979.5"/>
</g>
<!-- i25d85060 -->
<g id="node21" class="node">
<title>i25d85060</title>
<ellipse fill="none" stroke="transparent" cx="1870.42" cy="-977.23" rx="115.08" ry="18"/>
<text text-anchor="middle" x="1870.42" y="-973.53" font-family="Verdana" font-size="14.00">store 0.000000 to %18</text>
</g>
<!-- i25d84fc0&#45;&gt;i25d85060 -->
<g id="edge33" class="edge">
<title>i25d84fc0&#45;&gt;i25d85060</title>
<path fill="none" stroke="lightgrey" d="M1567.21,-985C1567.21,-985 1756.51,-985 1756.51,-985"/>
<polygon fill="none" stroke="lightgrey" points="1756.51,-988.5 1766.51,-985 1756.51,-981.5 1756.51,-988.5"/>
</g>
<!-- i25d84fc0&#45;&gt;i25d85060 -->
<g id="edge38" class="edge">
<title>i25d84fc0&#45;&gt;i25d85060</title>
<path fill="none" stroke="lightgrey" d="M1555.11,-975C1555.11,-975 1746.1,-975 1746.1,-975"/>
<polygon fill="none" stroke="lightgrey" points="1746.1,-978.5 1756.1,-975 1746.1,-971.5 1746.1,-978.5"/>
</g>
<!-- i25d843f0&#45;&gt;i25d84e30 -->
<g id="edge20" class="edge">
<title>i25d843f0&#45;&gt;i25d84e30</title>
<path fill="none" stroke="lightgrey" d="M295.3,-491.12C295.3,-583.07 295.3,-1019 295.3,-1019 295.3,-1019 470.9,-1019 470.9,-1019"/>
<polygon fill="none" stroke="lightgrey" points="470.9,-1022.5 480.9,-1019 470.9,-1015.5 470.9,-1022.5"/>
</g>
<!-- i25d843f0&#45;&gt;i25d84e30 -->
<g id="edge35" class="edge">
<title>i25d843f0&#45;&gt;i25d84e30</title>
<path fill="none" stroke="lightgrey" d="M316.33,-489.73C316.33,-577.91 316.33,-1012 316.33,-1012 316.33,-1012 488.75,-1012 488.75,-1012"/>
<polygon fill="none" stroke="lightgrey" points="488.75,-1015.5 498.75,-1012 488.75,-1008.5 488.75,-1015.5"/>
</g>
<!-- i25d85060&#45;&gt;i25d85060 -->
<g id="edge37" class="edge">
<title>i25d85060&#45;&gt;i25d85060</title>
<path fill="none" stroke="red" d="M1870.42,-995.53C1870.42,-1004.34 1870.42,-1013 1870.42,-1013 1870.42,-1013 2003.46,-1013 2003.46,-1013 2003.46,-1013 2003.46,-953 2003.46,-953 2003.46,-953 1870.42,-953 1870.42,-953 1870.42,-953 1870.42,-953.61 1870.42,-953.61"/>
<ellipse fill="red" stroke="red" cx="1870.42" cy="-955.11" rx="4" ry="4"/>
</g>
<!-- i25d844d0&#45;&gt;i25d84580 -->
<g id="edge30" class="edge">
<title>i25d844d0&#45;&gt;i25d84580</title>
<path fill="none" stroke="lightgrey" d="M187.51,-923.12C187.51,-923.12 187.51,-1322.34 187.51,-1322.34"/>
<polygon fill="none" stroke="lightgrey" points="184.01,-1322.34 187.51,-1332.34 191.01,-1322.34 184.01,-1322.34"/>
</g>
<!-- i25d844d0&#45;&gt;i25d84580 -->
<g id="edge39" class="edge">
<title>i25d844d0&#45;&gt;i25d84580</title>
<path fill="none" stroke="lightgrey" d="M230.89,-919.79C230.89,-919.79 230.89,-1318.67 230.89,-1318.67"/>
<polygon fill="none" stroke="lightgrey" points="227.39,-1318.67 230.89,-1328.67 234.39,-1318.67 227.39,-1318.67"/>
</g>
</g>
</svg>
