<?xml version="1.0" encoding="UTF-8" standalone="no"?>
<!DOCTYPE svg PUBLIC "-//W3C//DTD SVG 1.1//EN"
 "http://www.w3.org/Graphics/SVG/1.1/DTD/svg11.dtd">
<!-- Generated by graphviz version 2.43.0 (0)
 -->
<!-- Title: G Pages: 1 -->
<svg width="2266pt" height="396pt"
 viewBox="0.00 0.00 2266.24 396.00" xmlns="http://www.w3.org/2000/svg" xmlns:xlink="http://www.w3.org/1999/xlink">
<g id="graph0" class="graph" transform="scale(1 1) rotate(0) translate(28.24 392)">
<title>G</title>
<polygon fill="white" stroke="transparent" points="-28.24,4 -28.24,-392 2238,-392 2238,4 -28.24,4"/>
<g id="clust1" class="cluster">
<title>cluster_scc0</title>
<path fill="white" stroke="red" d="M12.24,0.36C12.24,0.36 2222.24,0.36 2222.24,0.36 2228.24,0.36 2234.24,-5.64 2234.24,-11.64 2234.24,-11.64 2234.24,-375.64 2234.24,-375.64 2234.24,-381.64 2228.24,-387.64 2222.24,-387.64 2222.24,-387.64 12.24,-387.64 12.24,-387.64 6.24,-387.64 0.24,-381.64 0.24,-375.64 0.24,-375.64 0.24,-11.64 0.24,-11.64 0.24,-5.64 6.24,0.36 12.24,0.36"/>
</g>
<!-- i026665c0 -->
<g id="node1" class="node">
<title>i026665c0</title>
<ellipse fill="none" stroke="transparent" cx="809.48" cy="-361.28" rx="81.49" ry="18"/>
<text text-anchor="middle" x="809.48" y="-357.58" font-family="Verdana" font-size="14.00">%26 = load %5</text>
</g>
<!-- i02666650 -->
<g id="node2" class="node">
<title>i02666650</title>
<ellipse fill="none" stroke="transparent" cx="718.48" cy="-297.28" rx="102.08" ry="18"/>
<text text-anchor="middle" x="718.48" y="-293.58" font-family="Verdana" font-size="14.00">%27 = icmp %26, 5</text>
</g>
<!-- i026665c0&#45;&gt;i02666650 -->
<g id="edge36" class="edge">
<title>i026665c0&#45;&gt;i02666650</title>
<path fill="none" stroke="lightgrey" d="M774.38,-344.8C774.38,-344.8 774.38,-322.61 774.38,-322.61"/>
<polygon fill="none" stroke="lightgrey" points="777.88,-322.61 774.38,-312.61 770.88,-322.61 777.88,-322.61"/>
</g>
<!-- i02666810 -->
<g id="node4" class="node">
<title>i02666810</title>
<ellipse fill="none" stroke="transparent" cx="1509.48" cy="-217.28" rx="716.77" ry="18"/>
<text text-anchor="middle" x="1509.48" y="-213.58" font-family="Verdana" font-size="14.00">call __kmpc_fork_call (@, 2, void (i32*, i32*, ...)* bitcast (void (i32*, i32*, [16 x double]*, [16 x double]*)* @.omp_outlined. to void (i32*, i32*, ...)*), %3, %2)</text>
</g>
<!-- i026665c0&#45;&gt;i02666810 -->
<g id="edge35" class="edge">
<title>i026665c0&#45;&gt;i02666810</title>
<path fill="none" stroke="red" d="M838.4,-344.2C838.4,-344.2 838.4,-233.83 838.4,-233.83"/>
<polygon fill="red" stroke="red" points="841.9,-223.83 838.4,-233.83 834.9,-223.83 841.9,-223.83"/>
</g>
<!-- i02666930 -->
<g id="node5" class="node">
<title>i02666930</title>
<ellipse fill="none" stroke="transparent" cx="734.48" cy="-153.28" rx="725.97" ry="18"/>
<text text-anchor="middle" x="734.48" y="-149.58" font-family="Verdana" font-size="14.00">call __kmpc_fork_call (@, 2, void (i32*, i32*, ...)* bitcast (void (i32*, i32*, [16 x double]*, [16 x double]*)* @.omp_outlined..1 to void (i32*, i32*, ...)*), %2, %3)</text>
</g>
<!-- i026665c0&#45;&gt;i02666930 -->
<g id="edge34" class="edge">
<title>i026665c0&#45;&gt;i02666930</title>
<path fill="none" stroke="red" d="M732.12,-367C614.27,-367 403.29,-367 403.29,-367 403.29,-367 403.29,-179.35 403.29,-179.35"/>
<polygon fill="red" stroke="red" points="406.79,-169.35 403.29,-179.35 399.79,-169.35 406.79,-169.35"/>
</g>
<!-- i02666cd0 -->
<g id="node11" class="node">
<title>i02666cd0</title>
<ellipse fill="none" stroke="transparent" cx="686.48" cy="-233.28" rx="85.59" ry="18"/>
<text text-anchor="middle" x="686.48" y="-229.58" font-family="Verdana" font-size="14.00">store %33 to %5</text>
</g>
<!-- i026665c0&#45;&gt;i02666cd0 -->
<g id="edge33" class="edge">
<title>i026665c0&#45;&gt;i02666cd0</title>
<path fill="none" stroke="lightgrey" d="M826.48,-343.58C826.48,-311.72 826.48,-248 826.48,-248 826.48,-248 746.23,-248 746.23,-248"/>
<polygon fill="lightgrey" stroke="lightgrey" points="736.23,-244.5 746.23,-248 736.23,-251.5 736.23,-244.5"/>
</g>
<!-- i02666700 -->
<g id="node3" class="node">
<title>i02666700</title>
<ellipse fill="none" stroke="transparent" cx="644.48" cy="-25.28" rx="44.39" ry="18"/>
<text text-anchor="middle" x="644.48" y="-21.58" font-family="Verdana" font-size="14.00">br %27</text>
</g>
<!-- i02666650&#45;&gt;i02666700 -->
<g id="edge37" class="edge">
<title>i02666650&#45;&gt;i02666700</title>
<path fill="none" stroke="lightgrey" d="M616.44,-297C413.59,-297 -20.96,-297 -20.96,-297 -20.96,-297 -20.96,-25 -20.96,-25 -20.96,-25 590.04,-25 590.04,-25"/>
<polygon fill="none" stroke="lightgrey" points="590.04,-28.5 600.04,-25 590.04,-21.5 590.04,-28.5"/>
</g>
<!-- i02666810&#45;&gt;i026665c0 -->
<g id="edge4" class="edge">
<title>i02666810&#45;&gt;i026665c0</title>
<path fill="none" stroke="red" d="M844.36,-224.23C844.36,-224.23 844.36,-334.89 844.36,-334.89"/>
<polygon fill="red" stroke="red" points="840.86,-334.89 844.36,-344.89 847.86,-334.89 840.86,-334.89"/>
</g>
<!-- i02666810&#45;&gt;i02666810 -->
<g id="edge1" class="edge">
<title>i02666810&#45;&gt;i02666810</title>
<path fill="none" stroke="red" d="M813.54,-221.76C813.54,-229.13 813.54,-243 813.54,-243 813.54,-243 785.82,-243 785.82,-243 785.82,-243 785.82,-175 785.82,-175 785.82,-175 992.95,-175 992.95,-175 992.95,-175 992.95,-196.37 992.95,-196.37"/>
<ellipse fill="red" stroke="red" cx="992.95" cy="-200.37" rx="4" ry="4"/>
</g>
<!-- i02666810&#45;&gt;i02666810 -->
<g id="edge2" class="edge">
<title>i02666810&#45;&gt;i02666810</title>
<path fill="none" stroke="red" d="M806.55,-220.83C806.55,-227.22 806.55,-240 806.55,-240 806.55,-240 788.07,-240 788.07,-240 788.07,-240 788.07,-179 788.07,-179 788.07,-179 926.16,-179 926.16,-179 926.16,-179 926.16,-196.41 926.16,-196.41"/>
<polygon fill="red" stroke="red" points="922.66,-196.41 926.16,-206.41 929.66,-196.41 922.66,-196.41"/>
</g>
<!-- i02666810&#45;&gt;i02666810 -->
<g id="edge26" class="edge">
<title>i02666810&#45;&gt;i02666810</title>
<path fill="none" stroke="red" d="M799.57,-220.02C799.57,-225.44 799.57,-237 799.57,-237 799.57,-237 790.33,-237 790.33,-237 790.33,-237 790.33,-183 790.33,-183 790.33,-183 859.38,-183 859.38,-183 859.38,-183 859.38,-199.67 859.38,-199.67"/>
<polygon fill="red" stroke="red" points="855.88,-209.67 859.38,-199.67 862.88,-209.67 855.88,-209.67"/>
</g>
<!-- i02666810&#45;&gt;i02666930 -->
<g id="edge3" class="edge">
<title>i02666810&#45;&gt;i02666930</title>
<path fill="none" stroke="red" d="M1059.74,-203.08C1059.74,-203.08 1059.74,-179.71 1059.74,-179.71"/>
<polygon fill="red" stroke="red" points="1063.24,-179.71 1059.74,-169.71 1056.24,-179.71 1063.24,-179.71"/>
</g>
<!-- i02666810&#45;&gt;i02666930 -->
<g id="edge24" class="edge">
<title>i02666810&#45;&gt;i02666930</title>
<path fill="none" stroke="red" d="M1126.53,-201.79C1126.53,-201.79 1126.53,-178.63 1126.53,-178.63"/>
<polygon fill="red" stroke="red" points="1130.03,-168.63 1126.53,-178.63 1123.03,-168.63 1130.03,-168.63"/>
</g>
<!-- i02666810&#45;&gt;i02666930 -->
<g id="edge25" class="edge">
<title>i02666810&#45;&gt;i02666930</title>
<path fill="none" stroke="red" d="M1193.31,-200.8C1193.31,-200.8 1193.31,-175.32 1193.31,-175.32"/>
<ellipse fill="red" stroke="red" cx="1193.31" cy="-171.32" rx="4" ry="4"/>
</g>
<!-- i026669b0 -->
<g id="node6" class="node">
<title>i026669b0</title>
<ellipse fill="none" stroke="transparent" cx="862.48" cy="-89.28" rx="118.08" ry="18"/>
<text text-anchor="middle" x="862.48" y="-85.58" font-family="Verdana" font-size="14.00">%29 = load @loop_id_3</text>
</g>
<!-- i02666810&#45;&gt;i026669b0 -->
<g id="edge32" class="edge">
<title>i02666810&#45;&gt;i026669b0</title>
<path fill="none" stroke="red" d="M1715.76,-199.98C1715.76,-164.97 1715.76,-89 1715.76,-89 1715.76,-89 991.12,-89 991.12,-89"/>
<polygon fill="red" stroke="red" points="991.12,-85.5 981.12,-89 991.12,-92.5 991.12,-85.5"/>
</g>
<!-- i02666ad0 -->
<g id="node8" class="node">
<title>i02666ad0</title>
<ellipse fill="none" stroke="transparent" cx="978.48" cy="-281.28" rx="122.38" ry="18"/>
<text text-anchor="middle" x="978.48" y="-277.58" font-family="Verdana" font-size="14.00">store %30 to @loop_id_3</text>
</g>
<!-- i02666810&#45;&gt;i02666ad0 -->
<g id="edge30" class="edge">
<title>i02666810&#45;&gt;i02666ad0</title>
<path fill="none" stroke="red" d="M897.02,-226.73C897.02,-226.73 897.02,-259.78 897.02,-259.78"/>
<ellipse fill="red" stroke="red" cx="897.02" cy="-263.78" rx="4" ry="4"/>
</g>
<!-- i02666810&#45;&gt;i02666ad0 -->
<g id="edge31" class="edge">
<title>i02666810&#45;&gt;i02666ad0</title>
<path fill="none" stroke="red" d="M937.75,-228.43C937.75,-228.43 937.75,-254.25 937.75,-254.25"/>
<polygon fill="red" stroke="red" points="934.25,-264.25 937.75,-254.25 941.25,-264.25 934.25,-264.25"/>
</g>
<!-- i02666bb0 -->
<g id="node9" class="node">
<title>i02666bb0</title>
<ellipse fill="none" stroke="transparent" cx="633.48" cy="-89.28" rx="81.49" ry="18"/>
<text text-anchor="middle" x="633.48" y="-85.58" font-family="Verdana" font-size="14.00">%32 = load %5</text>
</g>
<!-- i02666810&#45;&gt;i02666bb0 -->
<g id="edge29" class="edge">
<title>i02666810&#45;&gt;i02666bb0</title>
<path fill="none" stroke="red" d="M1971.06,-203.41C1971.06,-165.16 1971.06,-61 1971.06,-61 1971.06,-61 701.7,-61 701.7,-61 701.7,-61 701.7,-69.39 701.7,-69.39"/>
<polygon fill="red" stroke="red" points="698.2,-69.39 701.7,-79.39 705.2,-69.39 698.2,-69.39"/>
</g>
<!-- i02666810&#45;&gt;i02666cd0 -->
<g id="edge27" class="edge">
<title>i02666810&#45;&gt;i02666cd0</title>
<path fill="none" stroke="red" d="M795.76,-219C795.76,-219 746.72,-219 746.72,-219"/>
<ellipse fill="red" stroke="red" cx="742.72" cy="-219" rx="4" ry="4"/>
</g>
<!-- i02666810&#45;&gt;i02666cd0 -->
<g id="edge28" class="edge">
<title>i02666810&#45;&gt;i02666cd0</title>
<path fill="none" stroke="red" d="M829.36,-223C829.36,-223 767.03,-223 767.03,-223"/>
<polygon fill="red" stroke="red" points="757.03,-219.5 767.03,-223 757.03,-226.5 757.03,-219.5"/>
</g>
<!-- i02666930&#45;&gt;i026665c0 -->
<g id="edge17" class="edge">
<title>i02666930&#45;&gt;i026665c0</title>
<path fill="none" stroke="red" d="M501.98,-170.48C501.98,-219.26 501.98,-355 501.98,-355 501.98,-355 723.07,-355 723.07,-355"/>
<polygon fill="red" stroke="red" points="723.07,-358.5 733.07,-355 723.07,-351.5 723.07,-358.5"/>
</g>
<!-- i02666930&#45;&gt;i02666810 -->
<g id="edge13" class="edge">
<title>i02666930&#45;&gt;i02666810</title>
<path fill="none" stroke="red" d="M1260.1,-165.93C1260.1,-165.93 1260.1,-190.06 1260.1,-190.06"/>
<polygon fill="red" stroke="red" points="1256.6,-200.06 1260.1,-190.06 1263.6,-200.06 1256.6,-200.06"/>
</g>
<!-- i02666930&#45;&gt;i02666810 -->
<g id="edge14" class="edge">
<title>i02666930&#45;&gt;i02666810</title>
<path fill="none" stroke="red" d="M1326.89,-163.85C1326.89,-163.85 1326.89,-191.43 1326.89,-191.43"/>
<ellipse fill="red" stroke="red" cx="1326.89" cy="-195.43" rx="4" ry="4"/>
</g>
<!-- i02666930&#45;&gt;i02666810 -->
<g id="edge15" class="edge">
<title>i02666930&#45;&gt;i02666810</title>
<path fill="none" stroke="red" d="M1393.67,-161.13C1393.67,-161.13 1393.67,-189.43 1393.67,-189.43"/>
<polygon fill="red" stroke="red" points="1390.17,-189.43 1393.67,-199.43 1397.17,-189.43 1390.17,-189.43"/>
</g>
<!-- i02666930&#45;&gt;i02666930 -->
<g id="edge11" class="edge">
<title>i02666930&#45;&gt;i02666930</title>
<path fill="none" stroke="red" d="M107.19,-162.5C107.19,-172.48 107.19,-187 107.19,-187 107.19,-187 5.22,-187 5.22,-187 5.22,-187 5.22,-130 5.22,-130 5.22,-130 144.43,-130 144.43,-130 144.43,-130 144.43,-132.73 144.43,-132.73"/>
<polygon fill="red" stroke="red" points="140.93,-142.73 144.43,-132.73 147.93,-142.73 140.93,-142.73"/>
</g>
<!-- i02666930&#45;&gt;i02666930 -->
<g id="edge12" class="edge">
<title>i02666930&#45;&gt;i02666930</title>
<path fill="none" stroke="red" d="M205.89,-165.63C205.89,-176.63 205.89,-191 205.89,-191 205.89,-191 1.95,-191 1.95,-191 1.95,-191 1.95,-125 1.95,-125 1.95,-125 280.36,-125 280.36,-125 280.36,-125 280.36,-131.14 280.36,-131.14"/>
<ellipse fill="red" stroke="red" cx="280.36" cy="-135.14" rx="4" ry="4"/>
</g>
<!-- i02666930&#45;&gt;i02666930 -->
<g id="edge16" class="edge">
<title>i02666930&#45;&gt;i02666930</title>
<path fill="none" stroke="red" d="M304.59,-167.87C304.59,-179.9 304.59,-195 304.59,-195 304.59,-195 -1.33,-195 -1.33,-195 -1.33,-195 -1.33,-121 -1.33,-121 -1.33,-121 416.3,-121 416.3,-121 416.3,-121 416.3,-126.76 416.3,-126.76"/>
<polygon fill="red" stroke="red" points="412.8,-126.76 416.3,-136.76 419.8,-126.76 412.8,-126.76"/>
</g>
<!-- i02666930&#45;&gt;i026669b0 -->
<g id="edge10" class="edge">
<title>i02666930&#45;&gt;i026669b0</title>
<path fill="none" stroke="red" d="M921.62,-135.79C921.62,-135.79 921.62,-115 921.62,-115"/>
<polygon fill="red" stroke="red" points="925.12,-115 921.62,-105 918.12,-115 925.12,-115"/>
</g>
<!-- i02666930&#45;&gt;i02666ad0 -->
<g id="edge8" class="edge">
<title>i02666930&#45;&gt;i02666ad0</title>
<path fill="none" stroke="red" d="M776.78,-171.42C776.78,-204.44 776.78,-271 776.78,-271 776.78,-271 869.93,-271 869.93,-271"/>
<ellipse fill="red" stroke="red" cx="873.93" cy="-271" rx="4" ry="4"/>
</g>
<!-- i02666930&#45;&gt;i02666ad0 -->
<g id="edge9" class="edge">
<title>i02666930&#45;&gt;i02666ad0</title>
<path fill="none" stroke="red" d="M779.04,-171.36C779.04,-203.91 779.04,-269 779.04,-269 779.04,-269 878.97,-269 878.97,-269"/>
<polygon fill="red" stroke="red" points="888.97,-272.5 878.97,-269 888.97,-265.5 888.97,-272.5"/>
</g>
<!-- i02666930&#45;&gt;i02666bb0 -->
<g id="edge7" class="edge">
<title>i02666930&#45;&gt;i02666bb0</title>
<path fill="none" stroke="red" d="M633.48,-135.45C633.48,-135.45 633.48,-117.46 633.48,-117.46"/>
<polygon fill="red" stroke="red" points="636.98,-117.46 633.48,-107.46 629.98,-117.46 636.98,-117.46"/>
</g>
<!-- i02666930&#45;&gt;i02666cd0 -->
<g id="edge5" class="edge">
<title>i02666930&#45;&gt;i02666cd0</title>
<path fill="none" stroke="red" d="M629.28,-171.44C629.28,-171.44 629.28,-211.69 629.28,-211.69"/>
<ellipse fill="red" stroke="red" cx="629.28" cy="-215.69" rx="4" ry="4"/>
</g>
<!-- i02666930&#45;&gt;i02666cd0 -->
<g id="edge6" class="edge">
<title>i02666930&#45;&gt;i02666cd0</title>
<path fill="none" stroke="red" d="M657.88,-171.44C657.88,-171.44 657.88,-206.29 657.88,-206.29"/>
<polygon fill="red" stroke="red" points="654.38,-216.29 657.88,-206.29 661.38,-216.29 654.38,-216.29"/>
</g>
<!-- i02666a40 -->
<g id="node7" class="node">
<title>i02666a40</title>
<ellipse fill="none" stroke="transparent" cx="841.48" cy="-25.28" rx="96.68" ry="18"/>
<text text-anchor="middle" x="841.48" y="-21.58" font-family="Verdana" font-size="14.00">%30 = add %29, 1</text>
</g>
<!-- i026669b0&#45;&gt;i02666a40 -->
<g id="edge19" class="edge">
<title>i026669b0&#45;&gt;i02666a40</title>
<path fill="none" stroke="lightgrey" d="M873.76,-71.11C873.76,-71.11 873.76,-52.4 873.76,-52.4"/>
<polygon fill="none" stroke="lightgrey" points="877.26,-52.4 873.76,-42.4 870.26,-52.4 877.26,-52.4"/>
</g>
<!-- i026669b0&#45;&gt;i02666ad0 -->
<g id="edge18" class="edge">
<title>i026669b0&#45;&gt;i02666ad0</title>
<path fill="none" stroke="lightgrey" d="M862.48,-107.55C862.48,-112.24 862.48,-116 862.48,-116 862.48,-116 -11.15,-116 -11.15,-116 -11.15,-116 -11.15,-273 -11.15,-273 -11.15,-273 859.74,-273 859.74,-273"/>
<polygon fill="lightgrey" stroke="lightgrey" points="869.74,-276.5 859.74,-273 869.74,-269.5 869.74,-276.5"/>
</g>
<!-- i02666a40&#45;&gt;i02666ad0 -->
<g id="edge20" class="edge">
<title>i02666a40&#45;&gt;i02666ad0</title>
<path fill="none" stroke="lightgrey" d="M809.2,-42.35C809.2,-47.59 809.2,-52 809.2,-52 809.2,-52 -17.69,-52 -17.69,-52 -17.69,-52 -17.69,-277 -17.69,-277 -17.69,-277 849.3,-277 849.3,-277"/>
<polygon fill="none" stroke="lightgrey" points="849.3,-280.5 859.3,-277 849.3,-273.5 849.3,-280.5"/>
</g>
<!-- i02666ad0&#45;&gt;i02666810 -->
<g id="edge38" class="edge">
<title>i02666ad0&#45;&gt;i02666810</title>
<path fill="none" stroke="red" d="M978.48,-263.11C978.48,-263.11 978.48,-237.42 978.48,-237.42"/>
<ellipse fill="red" stroke="red" cx="978.48" cy="-233.42" rx="4" ry="4"/>
</g>
<!-- i02666ad0&#45;&gt;i02666810 -->
<g id="edge40" class="edge">
<title>i02666ad0&#45;&gt;i02666810</title>
<path fill="none" stroke="red" d="M1019.21,-264.13C1019.21,-264.13 1019.21,-240.62 1019.21,-240.62"/>
<polygon fill="red" stroke="red" points="1022.71,-240.62 1019.21,-230.62 1015.71,-240.62 1022.71,-240.62"/>
</g>
<!-- i02666ad0&#45;&gt;i02666930 -->
<g id="edge22" class="edge">
<title>i02666ad0&#45;&gt;i02666930</title>
<path fill="none" stroke="red" d="M903.93,-267C848.1,-267 781.3,-267 781.3,-267 781.3,-267 781.3,-179.3 781.3,-179.3"/>
<ellipse fill="red" stroke="red" cx="781.3" cy="-175.3" rx="4" ry="4"/>
</g>
<!-- i02666ad0&#45;&gt;i02666930 -->
<g id="edge23" class="edge">
<title>i02666ad0&#45;&gt;i02666930</title>
<path fill="none" stroke="red" d="M926.24,-265C868.5,-265 783.56,-265 783.56,-265 783.56,-265 783.56,-181.73 783.56,-181.73"/>
<polygon fill="red" stroke="red" points="787.06,-181.73 783.56,-171.73 780.06,-181.73 787.06,-181.73"/>
</g>
<!-- i02666ad0&#45;&gt;i026669b0 -->
<g id="edge39" class="edge">
<title>i02666ad0&#45;&gt;i026669b0</title>
<path fill="none" stroke="red" d="M863.61,-275C602.25,-275 -14.42,-275 -14.42,-275 -14.42,-275 -14.42,-111 -14.42,-111 -14.42,-111 803.33,-111 803.33,-111 803.33,-111 803.33,-110.41 803.33,-110.41"/>
<polygon fill="red" stroke="red" points="806.83,-115.07 803.33,-105.07 799.83,-115.07 806.83,-115.07"/>
</g>
<!-- i02666ad0&#45;&gt;i02666ad0 -->
<g id="edge21" class="edge">
<title>i02666ad0&#45;&gt;i02666ad0</title>
<path fill="none" stroke="red" d="M873.5,-290.57C873.5,-297.93 873.5,-307 873.5,-307 873.5,-307 850.33,-307 850.33,-307 850.33,-307 850.33,-255 850.33,-255 850.33,-255 1059.94,-255 1059.94,-255 1059.94,-255 1059.94,-259.83 1059.94,-259.83"/>
<ellipse fill="red" stroke="red" cx="1059.94" cy="-263.83" rx="4" ry="4"/>
</g>
<!-- i02666c40 -->
<g id="node10" class="node">
<title>i02666c40</title>
<ellipse fill="none" stroke="transparent" cx="1017.48" cy="-345.28" rx="96.68" ry="18"/>
<text text-anchor="middle" x="1017.48" y="-341.58" font-family="Verdana" font-size="14.00">%33 = add %32, 1</text>
</g>
<!-- i02666bb0&#45;&gt;i02666c40 -->
<g id="edge42" class="edge">
<title>i02666bb0&#45;&gt;i02666c40</title>
<path fill="none" stroke="lightgrey" d="M563.71,-80C394.44,-80 -24.24,-80 -24.24,-80 -24.24,-80 -24.24,-337 -24.24,-337 -24.24,-337 921.34,-337 921.34,-337"/>
<polygon fill="none" stroke="lightgrey" points="921.34,-340.5 931.34,-337 921.34,-333.5 921.34,-340.5"/>
</g>
<!-- i02666bb0&#45;&gt;i02666cd0 -->
<g id="edge41" class="edge">
<title>i02666bb0&#45;&gt;i02666cd0</title>
<path fill="none" stroke="lightgrey" d="M562.14,-98C395.63,-98 -4.6,-98 -4.6,-98 -4.6,-98 -4.6,-227 -4.6,-227 -4.6,-227 595.85,-227 595.85,-227"/>
<polygon fill="lightgrey" stroke="lightgrey" points="605.85,-230.5 595.85,-227 605.85,-223.5 605.85,-230.5"/>
</g>
<!-- i02666c40&#45;&gt;i02666cd0 -->
<g id="edge43" class="edge">
<title>i02666c40&#45;&gt;i02666cd0</title>
<path fill="none" stroke="lightgrey" d="M951.78,-332C836.19,-332 608.56,-332 608.56,-332 608.56,-332 608.56,-251.03 608.56,-251.03"/>
<polygon fill="none" stroke="lightgrey" points="612.06,-251.03 608.56,-241.03 605.06,-251.03 612.06,-251.03"/>
</g>
<!-- i02666cd0&#45;&gt;i026665c0 -->
<g id="edge50" class="edge">
<title>i02666cd0&#45;&gt;i026665c0</title>
<path fill="none" stroke="red" d="M751.77,-245C790.64,-245 832.44,-245 832.44,-245 832.44,-245 832.44,-333.87 832.44,-333.87"/>
<polygon fill="red" stroke="red" points="828.94,-333.87 832.44,-343.87 835.94,-333.87 828.94,-333.87"/>
</g>
<!-- i02666cd0&#45;&gt;i02666810 -->
<g id="edge47" class="edge">
<title>i02666cd0&#45;&gt;i02666810</title>
<path fill="none" stroke="red" d="M766.89,-227C766.89,-227 897.76,-227 897.76,-227"/>
<ellipse fill="red" stroke="red" cx="901.76" cy="-227" rx="4" ry="4"/>
</g>
<!-- i02666cd0&#45;&gt;i02666810 -->
<g id="edge48" class="edge">
<title>i02666cd0&#45;&gt;i02666810</title>
<path fill="none" stroke="red" d="M771.84,-231C771.84,-231 1035.3,-231 1035.3,-231"/>
<polygon fill="red" stroke="red" points="1035.3,-234.5 1045.3,-231 1035.3,-227.5 1035.3,-234.5"/>
</g>
<!-- i02666cd0&#45;&gt;i02666930 -->
<g id="edge46" class="edge">
<title>i02666cd0&#45;&gt;i02666930</title>
<path fill="none" stroke="red" d="M686.48,-215.13C686.48,-215.13 686.48,-181.36 686.48,-181.36"/>
<polygon fill="red" stroke="red" points="689.98,-181.36 686.48,-171.36 682.98,-181.36 689.98,-181.36"/>
</g>
<!-- i02666cd0&#45;&gt;i02666930 -->
<g id="edge49" class="edge">
<title>i02666cd0&#45;&gt;i02666930</title>
<path fill="none" stroke="red" d="M715.07,-215.92C715.07,-215.92 715.07,-179.44 715.07,-179.44"/>
<ellipse fill="red" stroke="red" cx="715.07" cy="-175.44" rx="4" ry="4"/>
</g>
<!-- i02666cd0&#45;&gt;i02666bb0 -->
<g id="edge45" class="edge">
<title>i02666cd0&#45;&gt;i02666bb0</title>
<path fill="none" stroke="red" d="M605.13,-239C421.77,-239 -7.87,-239 -7.87,-239 -7.87,-239 -7.87,-89 -7.87,-89 -7.87,-89 541.92,-89 541.92,-89"/>
<polygon fill="red" stroke="red" points="541.92,-92.5 551.92,-89 541.92,-85.5 541.92,-92.5"/>
</g>
<!-- i02666cd0&#45;&gt;i02666cd0 -->
<g id="edge44" class="edge">
<title>i02666cd0&#45;&gt;i02666cd0</title>
<path fill="none" stroke="red" d="M694.35,-251.42C694.35,-255.68 694.35,-259 694.35,-259 694.35,-259 774.53,-259 774.53,-259 774.53,-259 774.53,-207 774.53,-207 774.53,-207 743.67,-207 743.67,-207 743.67,-207 743.67,-211.83 743.67,-211.83"/>
<ellipse fill="red" stroke="red" cx="743.67" cy="-215.83" rx="4" ry="4"/>
</g>
</g>
</svg>
