<?xml version="1.0" encoding="UTF-8" standalone="no"?>
<!DOCTYPE svg PUBLIC "-//W3C//DTD SVG 1.1//EN"
 "http://www.w3.org/Graphics/SVG/1.1/DTD/svg11.dtd">
<!-- Generated by graphviz version 2.43.0 (0)
 -->
<!-- Title: G Pages: 1 -->
<svg width="2096pt" height="2258pt"
 viewBox="0.00 0.00 2096.00 2258.00" xmlns="http://www.w3.org/2000/svg" xmlns:xlink="http://www.w3.org/1999/xlink">
<g id="graph0" class="graph" transform="scale(1 1) rotate(0) translate(4 2254)">
<title>G</title>
<polygon fill="white" stroke="transparent" points="-4,4 -4,-2254 2092,-2254 2092,4 -4,4"/>
<g id="clust1" class="cluster">
<title>cluster_scc0</title>
<path fill="white" stroke="red" d="M386.31,-0.38C386.31,-0.38 792.31,-0.38 792.31,-0.38 798.31,-0.38 804.31,-6.38 804.31,-12.38 804.31,-12.38 804.31,-256.38 804.31,-256.38 804.31,-262.38 798.31,-268.38 792.31,-268.38 792.31,-268.38 386.31,-268.38 386.31,-268.38 380.31,-268.38 374.31,-262.38 374.31,-256.38 374.31,-256.38 374.31,-12.38 374.31,-12.38 374.31,-6.38 380.31,-0.38 386.31,-0.38"/>
</g>
<g id="clust2" class="cluster">
<title>cluster_scc1</title>
<path fill="white" stroke="green" d="M1040.98,-555.84C1040.98,-555.84 1226.98,-555.84 1226.98,-555.84 1232.98,-555.84 1238.98,-561.84 1238.98,-567.84 1238.98,-567.84 1238.98,-618.84 1238.98,-618.84 1238.98,-624.84 1232.98,-630.84 1226.98,-630.84 1226.98,-630.84 1040.98,-630.84 1040.98,-630.84 1034.98,-630.84 1028.98,-624.84 1028.98,-618.84 1028.98,-618.84 1028.98,-567.84 1028.98,-567.84 1028.98,-561.84 1034.98,-555.84 1040.98,-555.84"/>
<text text-anchor="middle" x="1133.98" y="-615.64" font-family="Times,serif" font-size="14.00">Loop Iteration</text>
</g>
<g id="clust3" class="cluster">
<title>cluster_scc2</title>
<path fill="white" stroke="green" d="M836.24,-1236.14C836.24,-1236.14 930.24,-1236.14 930.24,-1236.14 936.24,-1236.14 942.24,-1242.14 942.24,-1248.14 942.24,-1248.14 942.24,-1299.14 942.24,-1299.14 942.24,-1305.14 936.24,-1311.14 930.24,-1311.14 930.24,-1311.14 836.24,-1311.14 836.24,-1311.14 830.24,-1311.14 824.24,-1305.14 824.24,-1299.14 824.24,-1299.14 824.24,-1248.14 824.24,-1248.14 824.24,-1242.14 830.24,-1236.14 836.24,-1236.14"/>
<text text-anchor="middle" x="883.24" y="-1295.94" font-family="Times,serif" font-size="14.00">Loop Iteration</text>
</g>
<g id="clust4" class="cluster">
<title>cluster_scc3</title>
<path fill="white" stroke="red" d="M1103.26,-881.94C1103.26,-881.94 1438.26,-881.94 1438.26,-881.94 1444.26,-881.94 1450.26,-887.94 1450.26,-893.94 1450.26,-893.94 1450.26,-1211.94 1450.26,-1211.94 1450.26,-1217.94 1444.26,-1223.94 1438.26,-1223.94 1438.26,-1223.94 1103.26,-1223.94 1103.26,-1223.94 1097.26,-1223.94 1091.26,-1217.94 1091.26,-1211.94 1091.26,-1211.94 1091.26,-893.94 1091.26,-893.94 1091.26,-887.94 1097.26,-881.94 1103.26,-881.94"/>
</g>
<g id="clust5" class="cluster">
<title>cluster_scc4</title>
<path fill="white" stroke="red" d="M1152.29,-2188.86C1152.29,-2188.86 1327.29,-2188.86 1327.29,-2188.86 1333.29,-2188.86 1339.29,-2194.86 1339.29,-2200.86 1339.29,-2200.86 1339.29,-2228.86 1339.29,-2228.86 1339.29,-2234.86 1333.29,-2240.86 1327.29,-2240.86 1327.29,-2240.86 1152.29,-2240.86 1152.29,-2240.86 1146.29,-2240.86 1140.29,-2234.86 1140.29,-2228.86 1140.29,-2228.86 1140.29,-2200.86 1140.29,-2200.86 1140.29,-2194.86 1146.29,-2188.86 1152.29,-2188.86"/>
</g>
<g id="clust6" class="cluster">
<title>cluster_scc5</title>
<path fill="white" stroke="green" d="M1484.25,-1282.64C1484.25,-1282.64 1723.25,-1282.64 1723.25,-1282.64 1729.25,-1282.64 1735.25,-1288.64 1735.25,-1294.64 1735.25,-1294.64 1735.25,-1345.64 1735.25,-1345.64 1735.25,-1351.64 1729.25,-1357.64 1723.25,-1357.64 1723.25,-1357.64 1484.25,-1357.64 1484.25,-1357.64 1478.25,-1357.64 1472.25,-1351.64 1472.25,-1345.64 1472.25,-1345.64 1472.25,-1294.64 1472.25,-1294.64 1472.25,-1288.64 1478.25,-1282.64 1484.25,-1282.64"/>
<text text-anchor="middle" x="1603.75" y="-1342.44" font-family="Times,serif" font-size="14.00">Loop Iteration</text>
</g>
<g id="clust7" class="cluster">
<title>cluster_scc6</title>
<path fill="white" stroke="green" d="M680.19,-1008.32C680.19,-1008.32 866.19,-1008.32 866.19,-1008.32 872.19,-1008.32 878.19,-1014.32 878.19,-1020.32 878.19,-1020.32 878.19,-1071.32 878.19,-1071.32 878.19,-1077.32 872.19,-1083.32 866.19,-1083.32 866.19,-1083.32 680.19,-1083.32 680.19,-1083.32 674.19,-1083.32 668.19,-1077.32 668.19,-1071.32 668.19,-1071.32 668.19,-1020.32 668.19,-1020.32 668.19,-1014.32 674.19,-1008.32 680.19,-1008.32"/>
<text text-anchor="middle" x="773.19" y="-1068.12" font-family="Times,serif" font-size="14.00">Loop Iteration</text>
</g>
<g id="clust8" class="cluster">
<title>cluster_scc7</title>
<path fill="white" stroke="green" d="M597.58,-1566.33C597.58,-1566.33 819.58,-1566.33 819.58,-1566.33 825.58,-1566.33 831.58,-1572.33 831.58,-1578.33 831.58,-1578.33 831.58,-1629.33 831.58,-1629.33 831.58,-1635.33 825.58,-1641.33 819.58,-1641.33 819.58,-1641.33 597.58,-1641.33 597.58,-1641.33 591.58,-1641.33 585.58,-1635.33 585.58,-1629.33 585.58,-1629.33 585.58,-1578.33 585.58,-1578.33 585.58,-1572.33 591.58,-1566.33 597.58,-1566.33"/>
<text text-anchor="middle" x="708.58" y="-1626.13" font-family="Times,serif" font-size="14.00">Loop Iteration</text>
</g>
<g id="clust9" class="cluster">
<title>cluster_scc8</title>
<path fill="white" stroke="green" d="M733.24,-1442.14C733.24,-1442.14 827.24,-1442.14 827.24,-1442.14 833.24,-1442.14 839.24,-1448.14 839.24,-1454.14 839.24,-1454.14 839.24,-1505.14 839.24,-1505.14 839.24,-1511.14 833.24,-1517.14 827.24,-1517.14 827.24,-1517.14 733.24,-1517.14 733.24,-1517.14 727.24,-1517.14 721.24,-1511.14 721.24,-1505.14 721.24,-1505.14 721.24,-1454.14 721.24,-1454.14 721.24,-1448.14 727.24,-1442.14 733.24,-1442.14"/>
<text text-anchor="middle" x="780.24" y="-1501.94" font-family="Times,serif" font-size="14.00">Loop Iteration</text>
</g>
<g id="clust10" class="cluster">
<title>cluster_scc9</title>
<path fill="white" stroke="green" d="M1044.87,-1403.21C1044.87,-1403.21 1210.87,-1403.21 1210.87,-1403.21 1216.87,-1403.21 1222.87,-1409.21 1222.87,-1415.21 1222.87,-1415.21 1222.87,-1466.21 1222.87,-1466.21 1222.87,-1472.21 1216.87,-1478.21 1210.87,-1478.21 1210.87,-1478.21 1044.87,-1478.21 1044.87,-1478.21 1038.87,-1478.21 1032.87,-1472.21 1032.87,-1466.21 1032.87,-1466.21 1032.87,-1415.21 1032.87,-1415.21 1032.87,-1409.21 1038.87,-1403.21 1044.87,-1403.21"/>
<text text-anchor="middle" x="1127.87" y="-1463.01" font-family="Times,serif" font-size="14.00">Loop Iteration</text>
</g>
<g id="clust11" class="cluster">
<title>cluster_scc10</title>
<path fill="white" stroke="green" d="M824.34,-250.41C824.34,-250.41 1010.34,-250.41 1010.34,-250.41 1016.34,-250.41 1022.34,-256.41 1022.34,-262.41 1022.34,-262.41 1022.34,-313.41 1022.34,-313.41 1022.34,-319.41 1016.34,-325.41 1010.34,-325.41 1010.34,-325.41 824.34,-325.41 824.34,-325.41 818.34,-325.41 812.34,-319.41 812.34,-313.41 812.34,-313.41 812.34,-262.41 812.34,-262.41 812.34,-256.41 818.34,-250.41 824.34,-250.41"/>
<text text-anchor="middle" x="917.34" y="-310.21" font-family="Times,serif" font-size="14.00">Loop Iteration</text>
</g>
<g id="clust12" class="cluster">
<title>cluster_scc11</title>
<path fill="white" stroke="green" d="M309.37,-1131.73C309.37,-1131.73 568.37,-1131.73 568.37,-1131.73 574.37,-1131.73 580.37,-1137.73 580.37,-1143.73 580.37,-1143.73 580.37,-1194.73 580.37,-1194.73 580.37,-1200.73 574.37,-1206.73 568.37,-1206.73 568.37,-1206.73 309.37,-1206.73 309.37,-1206.73 303.37,-1206.73 297.37,-1200.73 297.37,-1194.73 297.37,-1194.73 297.37,-1143.73 297.37,-1143.73 297.37,-1137.73 303.37,-1131.73 309.37,-1131.73"/>
<text text-anchor="middle" x="438.87" y="-1191.53" font-family="Times,serif" font-size="14.00">Loop Iteration</text>
</g>
<g id="clust13" class="cluster">
<title>cluster_scc12</title>
<path fill="white" stroke="green" d="M356.38,-1746.11C356.38,-1746.11 522.38,-1746.11 522.38,-1746.11 528.38,-1746.11 534.38,-1752.11 534.38,-1758.11 534.38,-1758.11 534.38,-1809.11 534.38,-1809.11 534.38,-1815.11 528.38,-1821.11 522.38,-1821.11 522.38,-1821.11 356.38,-1821.11 356.38,-1821.11 350.38,-1821.11 344.38,-1815.11 344.38,-1809.11 344.38,-1809.11 344.38,-1758.11 344.38,-1758.11 344.38,-1752.11 350.38,-1746.11 356.38,-1746.11"/>
<text text-anchor="middle" x="439.38" y="-1805.91" font-family="Times,serif" font-size="14.00">Loop Iteration</text>
</g>
<g id="clust14" class="cluster">
<title>cluster_scc13</title>
<path fill="white" stroke="red" d="M1454.24,-514.64C1454.24,-514.64 1844.24,-514.64 1844.24,-514.64 1850.24,-514.64 1856.24,-520.64 1856.24,-526.64 1856.24,-526.64 1856.24,-664.64 1856.24,-664.64 1856.24,-670.64 1850.24,-676.64 1844.24,-676.64 1844.24,-676.64 1454.24,-676.64 1454.24,-676.64 1448.24,-676.64 1442.24,-670.64 1442.24,-664.64 1442.24,-664.64 1442.24,-526.64 1442.24,-526.64 1442.24,-520.64 1448.24,-514.64 1454.24,-514.64"/>
</g>
<g id="clust15" class="cluster">
<title>cluster_scc14</title>
<path fill="white" stroke="green" d="M11.53,-1472.17C11.53,-1472.17 250.53,-1472.17 250.53,-1472.17 256.53,-1472.17 262.53,-1478.17 262.53,-1484.17 262.53,-1484.17 262.53,-1535.17 262.53,-1535.17 262.53,-1541.17 256.53,-1547.17 250.53,-1547.17 250.53,-1547.17 11.53,-1547.17 11.53,-1547.17 5.53,-1547.17 -0.47,-1541.17 -0.47,-1535.17 -0.47,-1535.17 -0.47,-1484.17 -0.47,-1484.17 -0.47,-1478.17 5.53,-1472.17 11.53,-1472.17"/>
<text text-anchor="middle" x="131.03" y="-1531.97" font-family="Times,serif" font-size="14.00">Loop Iteration</text>
</g>
<g id="clust16" class="cluster">
<title>cluster_scc15</title>
<path fill="white" stroke="green" d="M733.24,-824.14C733.24,-824.14 827.24,-824.14 827.24,-824.14 833.24,-824.14 839.24,-830.14 839.24,-836.14 839.24,-836.14 839.24,-887.14 839.24,-887.14 839.24,-893.14 833.24,-899.14 827.24,-899.14 827.24,-899.14 733.24,-899.14 733.24,-899.14 727.24,-899.14 721.24,-893.14 721.24,-887.14 721.24,-887.14 721.24,-836.14 721.24,-836.14 721.24,-830.14 727.24,-824.14 733.24,-824.14"/>
<text text-anchor="middle" x="780.24" y="-883.94" font-family="Times,serif" font-size="14.00">Loop Iteration</text>
</g>
<g id="clust17" class="cluster">
<title>cluster_scc16</title>
<path fill="white" stroke="green" d="M1326.27,-1944.73C1326.27,-1944.73 1565.27,-1944.73 1565.27,-1944.73 1571.27,-1944.73 1577.27,-1950.73 1577.27,-1956.73 1577.27,-1956.73 1577.27,-2007.73 1577.27,-2007.73 1577.27,-2013.73 1571.27,-2019.73 1565.27,-2019.73 1565.27,-2019.73 1326.27,-2019.73 1326.27,-2019.73 1320.27,-2019.73 1314.27,-2013.73 1314.27,-2007.73 1314.27,-2007.73 1314.27,-1956.73 1314.27,-1956.73 1314.27,-1950.73 1320.27,-1944.73 1326.27,-1944.73"/>
<text text-anchor="middle" x="1445.77" y="-2004.53" font-family="Times,serif" font-size="14.00">Loop Iteration</text>
</g>
<g id="clust18" class="cluster">
<title>cluster_scc17</title>
<path fill="white" stroke="green" d="M1268.2,-1465.76C1268.2,-1465.76 1527.2,-1465.76 1527.2,-1465.76 1533.2,-1465.76 1539.2,-1471.76 1539.2,-1477.76 1539.2,-1477.76 1539.2,-1528.76 1539.2,-1528.76 1539.2,-1534.76 1533.2,-1540.76 1527.2,-1540.76 1527.2,-1540.76 1268.2,-1540.76 1268.2,-1540.76 1262.2,-1540.76 1256.2,-1534.76 1256.2,-1528.76 1256.2,-1528.76 1256.2,-1477.76 1256.2,-1477.76 1256.2,-1471.76 1262.2,-1465.76 1268.2,-1465.76"/>
<text text-anchor="middle" x="1397.7" y="-1525.56" font-family="Times,serif" font-size="14.00">Loop Iteration</text>
</g>
<g id="clust19" class="cluster">
<title>cluster_scc18</title>
<path fill="white" stroke="green" d="M769.99,-1855.06C769.99,-1855.06 1038.99,-1855.06 1038.99,-1855.06 1044.99,-1855.06 1050.99,-1861.06 1050.99,-1867.06 1050.99,-1867.06 1050.99,-1918.06 1050.99,-1918.06 1050.99,-1924.06 1044.99,-1930.06 1038.99,-1930.06 1038.99,-1930.06 769.99,-1930.06 769.99,-1930.06 763.99,-1930.06 757.99,-1924.06 757.99,-1918.06 757.99,-1918.06 757.99,-1867.06 757.99,-1867.06 757.99,-1861.06 763.99,-1855.06 769.99,-1855.06"/>
<text text-anchor="middle" x="904.49" y="-1914.86" font-family="Times,serif" font-size="14.00">Loop Iteration</text>
</g>
<g id="clust20" class="cluster">
<title>cluster_scc19</title>
<path fill="white" stroke="green" d="M1817.3,-994.42C1817.3,-994.42 2076.3,-994.42 2076.3,-994.42 2082.3,-994.42 2088.3,-1000.42 2088.3,-1006.42 2088.3,-1006.42 2088.3,-1057.42 2088.3,-1057.42 2088.3,-1063.42 2082.3,-1069.42 2076.3,-1069.42 2076.3,-1069.42 1817.3,-1069.42 1817.3,-1069.42 1811.3,-1069.42 1805.3,-1063.42 1805.3,-1057.42 1805.3,-1057.42 1805.3,-1006.42 1805.3,-1006.42 1805.3,-1000.42 1811.3,-994.42 1817.3,-994.42"/>
<text text-anchor="middle" x="1946.8" y="-1054.22" font-family="Times,serif" font-size="14.00">Loop Iteration</text>
</g>
<g id="clust21" class="cluster">
<title>cluster_scc20</title>
<path fill="white" stroke="green" d="M1564.6,-762.93C1564.6,-762.93 1749.6,-762.93 1749.6,-762.93 1755.6,-762.93 1761.6,-768.93 1761.6,-774.93 1761.6,-774.93 1761.6,-825.93 1761.6,-825.93 1761.6,-831.93 1755.6,-837.93 1749.6,-837.93 1749.6,-837.93 1564.6,-837.93 1564.6,-837.93 1558.6,-837.93 1552.6,-831.93 1552.6,-825.93 1552.6,-825.93 1552.6,-774.93 1552.6,-774.93 1552.6,-768.93 1558.6,-762.93 1564.6,-762.93"/>
<text text-anchor="middle" x="1657.1" y="-822.73" font-family="Times,serif" font-size="14.00">Loop Iteration</text>
</g>
<!-- i108de2a0 -->
<g id="node1" class="node">
<title>i108de2a0</title>
<ellipse fill="none" stroke="transparent" cx="580.54" cy="-26.02" rx="81.49" ry="18"/>
<text text-anchor="middle" x="580.54" y="-22.32" font-family="Verdana" font-size="14.00">%29 = load %9</text>
</g>
<!-- i108de3a0 -->
<g id="node3" class="node">
<title>i108de3a0</title>
<ellipse fill="none" stroke="transparent" cx="498.54" cy="-134.02" rx="116.18" ry="18"/>
<text text-anchor="middle" x="498.54" y="-130.32" font-family="Verdana" font-size="14.00">%31 = icmp %29, %30</text>
</g>
<!-- i108de2a0&#45;&gt;i108de3a0 -->
<g id="edge9" class="edge">
<title>i108de2a0&#45;&gt;i108de3a0</title>
<path fill="none" stroke="lightgrey" d="M499.23,-26C468.47,-26 440.75,-26 440.75,-26 440.75,-26 440.75,-108.08 440.75,-108.08"/>
<polygon fill="none" stroke="lightgrey" points="437.25,-108.08 440.75,-118.08 444.25,-108.08 437.25,-108.08"/>
</g>
<!-- i108df940 -->
<g id="node8" class="node">
<title>i108df940</title>
<ellipse fill="none" stroke="transparent" cx="675.54" cy="-242.02" rx="85.59" ry="18"/>
<text text-anchor="middle" x="675.54" y="-238.32" font-family="Verdana" font-size="14.00">store %56 to %9</text>
</g>
<!-- i108de2a0&#45;&gt;i108df940 -->
<g id="edge8" class="edge">
<title>i108de2a0&#45;&gt;i108df940</title>
<path fill="none" stroke="lightgrey" d="M657.42,-32C720.81,-32 800.35,-32 800.35,-32 800.35,-32 800.35,-235 800.35,-235 800.35,-235 764.59,-235 764.59,-235"/>
<polygon fill="lightgrey" stroke="lightgrey" points="754.59,-231.5 764.59,-235 754.59,-238.5 754.59,-231.5"/>
</g>
<!-- i108de310 -->
<g id="node2" class="node">
<title>i108de310</title>
<ellipse fill="none" stroke="transparent" cx="586.54" cy="-80.02" rx="87.18" ry="18"/>
<text text-anchor="middle" x="586.54" y="-76.32" font-family="Verdana" font-size="14.00">%30 = load %12</text>
</g>
<!-- i108de310&#45;&gt;i108de3a0 -->
<g id="edge10" class="edge">
<title>i108de310&#45;&gt;i108de3a0</title>
<path fill="none" stroke="lightgrey" d="M557.17,-97.11C557.17,-97.11 557.17,-108.33 557.17,-108.33"/>
<polygon fill="none" stroke="lightgrey" points="553.67,-108.33 557.17,-118.33 560.67,-108.33 553.67,-108.33"/>
</g>
<!-- i108de450 -->
<g id="node4" class="node">
<title>i108de450</title>
<ellipse fill="none" stroke="transparent" cx="471.54" cy="-188.02" rx="44.39" ry="18"/>
<text text-anchor="middle" x="471.54" y="-184.32" font-family="Verdana" font-size="14.00">br %31</text>
</g>
<!-- i108de3a0&#45;&gt;i108de450 -->
<g id="edge11" class="edge">
<title>i108de3a0&#45;&gt;i108de450</title>
<path fill="none" stroke="lightgrey" d="M471.54,-151.7C471.54,-151.7 471.54,-159.74 471.54,-159.74"/>
<polygon fill="none" stroke="lightgrey" points="468.04,-159.74 471.54,-169.74 475.04,-159.74 468.04,-159.74"/>
</g>
<!-- i108de4c0 -->
<g id="node5" class="node">
<title>i108de4c0</title>
<ellipse fill="none" stroke="transparent" cx="490.42" cy="-242.21" rx="81.49" ry="18"/>
<text text-anchor="middle" x="490.42" y="-238.51" font-family="Verdana" font-size="14.00">%33 = load %9</text>
</g>
<!-- i108de4c0&#45;&gt;i108df940 -->
<g id="edge12" class="edge">
<title>i108de4c0&#45;&gt;i108df940</title>
<path fill="none" stroke="lightgrey" d="M566.79,-236C566.79,-236 584.56,-236 584.56,-236"/>
<polygon fill="lightgrey" stroke="lightgrey" points="594.56,-239.5 584.56,-236 594.56,-232.5 594.56,-239.5"/>
</g>
<!-- i108de550 -->
<g id="node21" class="node">
<title>i108de550</title>
<ellipse fill="none" stroke="transparent" cx="917.36" cy="-276.71" rx="96.68" ry="18"/>
<text text-anchor="middle" x="917.36" y="-273.01" font-family="Verdana" font-size="14.00">%34 = mul %33, 1</text>
</g>
<!-- i108de4c0&#45;&gt;i108de550 -->
<g id="edge13" class="edge">
<title>i108de4c0&#45;&gt;i108de550</title>
<path fill="none" stroke="lightgrey" d="M463.34,-259.19C463.34,-268.03 463.34,-277 463.34,-277 463.34,-277 810.52,-277 810.52,-277"/>
<polygon fill="none" stroke="lightgrey" points="810.52,-280.5 820.52,-277 810.52,-273.5 810.52,-280.5"/>
</g>
<!-- i108de4c0&#45;&gt;i108de550 -->
<g id="edge40" class="edge">
<title>i108de4c0&#45;&gt;i108de550</title>
<path fill="none" stroke="lightgrey" d="M517.5,-259.26C517.5,-271.56 517.5,-286 517.5,-286 517.5,-286 824.03,-286 824.03,-286"/>
<polygon fill="none" stroke="lightgrey" points="824.03,-289.5 834.03,-286 824.03,-282.5 824.03,-289.5"/>
</g>
<!-- i108df820 -->
<g id="node6" class="node">
<title>i108df820</title>
<ellipse fill="none" stroke="transparent" cx="715.54" cy="-134.02" rx="81.49" ry="18"/>
<text text-anchor="middle" x="715.54" y="-130.32" font-family="Verdana" font-size="14.00">%55 = load %9</text>
</g>
<!-- i108df8b0 -->
<g id="node7" class="node">
<title>i108df8b0</title>
<ellipse fill="none" stroke="transparent" cx="632.54" cy="-188.02" rx="96.68" ry="18"/>
<text text-anchor="middle" x="632.54" y="-184.32" font-family="Verdana" font-size="14.00">%56 = add %55, 1</text>
</g>
<!-- i108df820&#45;&gt;i108df8b0 -->
<g id="edge1" class="edge">
<title>i108df820&#45;&gt;i108df8b0</title>
<path fill="none" stroke="lightgrey" d="M681.84,-150.52C681.84,-150.52 681.84,-162.37 681.84,-162.37"/>
<polygon fill="none" stroke="lightgrey" points="678.34,-162.37 681.84,-172.37 685.34,-162.37 678.34,-162.37"/>
</g>
<!-- i108df820&#45;&gt;i108df940 -->
<g id="edge2" class="edge">
<title>i108df820&#45;&gt;i108df940</title>
<path fill="none" stroke="lightgrey" d="M737.37,-151.37C737.37,-151.37 737.37,-219.43 737.37,-219.43"/>
<polygon fill="lightgrey" stroke="lightgrey" points="733.87,-229.43 737.37,-219.43 740.87,-229.43 733.87,-229.43"/>
</g>
<!-- i108df8b0&#45;&gt;i108df940 -->
<g id="edge3" class="edge">
<title>i108df8b0&#45;&gt;i108df940</title>
<path fill="none" stroke="lightgrey" d="M659.57,-205.4C659.57,-205.4 659.57,-214.3 659.57,-214.3"/>
<polygon fill="none" stroke="lightgrey" points="656.07,-214.3 659.57,-224.3 663.07,-214.3 656.07,-214.3"/>
</g>
<!-- i108df940&#45;&gt;i108de2a0 -->
<g id="edge7" class="edge">
<title>i108df940&#45;&gt;i108de2a0</title>
<path fill="none" stroke="red" d="M758.29,-247C783.13,-247 803.91,-247 803.91,-247 803.91,-247 803.91,-20 803.91,-20 803.91,-20 667.42,-20 667.42,-20"/>
<polygon fill="red" stroke="red" points="667.42,-16.5 657.42,-20 667.42,-23.5 667.42,-16.5"/>
</g>
<!-- i108df940&#45;&gt;i108de4c0 -->
<g id="edge6" class="edge">
<title>i108df940&#45;&gt;i108de4c0</title>
<path fill="none" stroke="red" d="M594.62,-248C594.62,-248 577.37,-248 577.37,-248"/>
<polygon fill="red" stroke="red" points="577.37,-244.5 567.37,-248 577.37,-251.5 577.37,-244.5"/>
</g>
<!-- i108df940&#45;&gt;i108df820 -->
<g id="edge5" class="edge">
<title>i108df940&#45;&gt;i108df820</title>
<path fill="none" stroke="red" d="M745.36,-231.27C745.36,-231.27 745.36,-161.07 745.36,-161.07"/>
<polygon fill="red" stroke="red" points="748.86,-161.07 745.36,-151.07 741.86,-161.07 748.86,-161.07"/>
</g>
<!-- i108df940&#45;&gt;i108df940 -->
<g id="edge4" class="edge">
<title>i108df940&#45;&gt;i108df940</title>
<path fill="none" stroke="red" d="M757.41,-247.53C757.41,-255.16 757.41,-268 757.41,-268 757.41,-268 779.06,-268 779.06,-268 779.06,-268 779.06,-215 779.06,-215 779.06,-215 753.35,-215 753.35,-215 753.35,-215 753.35,-226.35 753.35,-226.35"/>
<ellipse fill="red" stroke="red" cx="753.35" cy="-230.35" rx="4" ry="4"/>
</g>
<!-- i108de5e0 -->
<g id="node9" class="node">
<title>i108de5e0</title>
<ellipse fill="none" stroke="transparent" cx="1134.26" cy="-581.34" rx="96.68" ry="18"/>
<text text-anchor="middle" x="1134.26" y="-577.64" font-family="Verdana" font-size="14.00">%35 = add 1, %34</text>
</g>
<!-- i108de670 -->
<g id="node13" class="node">
<title>i108de670</title>
<ellipse fill="none" stroke="transparent" cx="1219.9" cy="-908.33" rx="91.78" ry="18"/>
<text text-anchor="middle" x="1219.9" y="-904.63" font-family="Verdana" font-size="14.00">store %35 to %15</text>
</g>
<!-- i108de5e0&#45;&gt;i108de670 -->
<g id="edge14" class="edge">
<title>i108de5e0&#45;&gt;i108de670</title>
<path fill="none" stroke="lightgrey" d="M1153.97,-599.39C1153.97,-599.39 1153.97,-885.56 1153.97,-885.56"/>
<polygon fill="none" stroke="lightgrey" points="1150.47,-885.56 1153.97,-895.56 1157.47,-885.56 1150.47,-885.56"/>
</g>
<!-- i108de5e0&#45;&gt;i108de670 -->
<g id="edge23" class="edge">
<title>i108de5e0&#45;&gt;i108de670</title>
<path fill="none" stroke="lightgrey" d="M1179.68,-597.56C1179.68,-597.56 1179.68,-882.02 1179.68,-882.02"/>
<polygon fill="none" stroke="lightgrey" points="1176.18,-882.02 1179.68,-892.02 1183.18,-882.02 1176.18,-882.02"/>
</g>
<!-- i108df740 -->
<g id="node10" class="node">
<title>i108df740</title>
<ellipse fill="none" stroke="transparent" cx="883.48" cy="-1261.78" rx="27" ry="18"/>
<text text-anchor="middle" x="883.48" y="-1258.08" font-family="Verdana" font-size="14.00">br</text>
</g>
<!-- i108da6d0 -->
<g id="node11" class="node">
<title>i108da6d0</title>
<ellipse fill="none" stroke="transparent" cx="1186.57" cy="-1071.78" rx="87.18" ry="18"/>
<text text-anchor="middle" x="1186.57" y="-1068.08" font-family="Verdana" font-size="14.00">%41 = load %15</text>
</g>
<!-- i108da6d0&#45;&gt;i108de670 -->
<g id="edge21" class="edge">
<title>i108da6d0&#45;&gt;i108de670</title>
<path fill="none" stroke="red" d="M1198.04,-1053.66C1198.04,-1053.66 1198.04,-936.03 1198.04,-936.03"/>
<polygon fill="red" stroke="red" points="1201.54,-926.03 1198.04,-936.03 1194.54,-926.03 1201.54,-926.03"/>
</g>
<!-- i108da760 -->
<g id="node17" class="node">
<title>i108da760</title>
<ellipse fill="none" stroke="transparent" cx="773.46" cy="-1033.98" rx="96.68" ry="18"/>
<text text-anchor="middle" x="773.46" y="-1030.28" font-family="Verdana" font-size="14.00">%42 = add %41, 1</text>
</g>
<!-- i108da6d0&#45;&gt;i108da760 -->
<g id="edge25" class="edge">
<title>i108da6d0&#45;&gt;i108da760</title>
<path fill="none" stroke="lightgrey" d="M1103.17,-1077C1006.74,-1077 861.08,-1077 861.08,-1077 861.08,-1077 861.08,-1051.87 861.08,-1051.87"/>
<polygon fill="none" stroke="lightgrey" points="864.58,-1051.87 861.08,-1041.87 857.58,-1051.87 864.58,-1051.87"/>
</g>
<!-- i108da6d0&#45;&gt;i108da760 -->
<g id="edge33" class="edge">
<title>i108da6d0&#45;&gt;i108da760</title>
<path fill="none" stroke="lightgrey" d="M1105.6,-1065C1010.54,-1065 865.69,-1065 865.69,-1065 865.69,-1065 865.69,-1049.67 865.69,-1049.67"/>
<polygon fill="none" stroke="lightgrey" points="869.19,-1049.67 865.69,-1039.67 862.19,-1049.67 869.19,-1049.67"/>
</g>
<!-- i108daa90 -->
<g id="node12" class="node">
<title>i108daa90</title>
<ellipse fill="none" stroke="transparent" cx="1295.62" cy="-1198" rx="87.18" ry="18"/>
<text text-anchor="middle" x="1295.62" y="-1194.3" font-family="Verdana" font-size="14.00">%48 = load %15</text>
</g>
<!-- i108daa90&#45;&gt;i108de670 -->
<g id="edge22" class="edge">
<title>i108daa90&#45;&gt;i108de670</title>
<path fill="none" stroke="red" d="M1211.66,-1203C1144.07,-1203 1060.29,-1203 1060.29,-1203 1060.29,-1203 1060.29,-902 1060.29,-902 1060.29,-902 1124.02,-902 1124.02,-902"/>
<polygon fill="red" stroke="red" points="1134.02,-905.5 1124.02,-902 1134.02,-898.5 1134.02,-905.5"/>
</g>
<!-- i108dab00 -->
<g id="node30" class="node">
<title>i108dab00</title>
<ellipse fill="none" stroke="transparent" cx="1397.47" cy="-1491.6" rx="133.48" ry="18"/>
<text text-anchor="middle" x="1397.47" y="-1487.9" font-family="Verdana" font-size="14.00">%49 = sext i32 %48 to i64</text>
</g>
<!-- i108daa90&#45;&gt;i108dab00 -->
<g id="edge26" class="edge">
<title>i108daa90&#45;&gt;i108dab00</title>
<path fill="none" stroke="lightgrey" d="M1303.73,-1215.92C1303.73,-1215.92 1303.73,-1468.76 1303.73,-1468.76"/>
<polygon fill="none" stroke="lightgrey" points="1300.23,-1468.76 1303.73,-1478.76 1307.23,-1468.76 1300.23,-1468.76"/>
</g>
<!-- i108daa90&#45;&gt;i108dab00 -->
<g id="edge55" class="edge">
<title>i108daa90&#45;&gt;i108dab00</title>
<path fill="none" stroke="lightgrey" d="M1343.22,-1213.37C1343.22,-1213.37 1343.22,-1464.94 1343.22,-1464.94"/>
<polygon fill="none" stroke="lightgrey" points="1339.72,-1464.94 1343.22,-1474.94 1346.72,-1464.94 1339.72,-1464.94"/>
</g>
<!-- i108de670&#45;&gt;i108da6d0 -->
<g id="edge16" class="edge">
<title>i108de670&#45;&gt;i108da6d0</title>
<path fill="none" stroke="lightgrey" d="M1232.93,-926.45C1232.93,-926.45 1232.93,-1046.48 1232.93,-1046.48"/>
<polygon fill="lightgrey" stroke="lightgrey" points="1229.43,-1046.48 1232.93,-1056.48 1236.43,-1046.48 1229.43,-1046.48"/>
</g>
<!-- i108de670&#45;&gt;i108daa90 -->
<g id="edge19" class="edge">
<title>i108de670&#45;&gt;i108daa90</title>
<path fill="none" stroke="lightgrey" d="M1132.82,-914C1104.34,-914 1079.88,-914 1079.88,-914 1079.88,-914 1079.88,-1191 1079.88,-1191 1079.88,-1191 1205.29,-1191 1205.29,-1191"/>
<polygon fill="lightgrey" stroke="lightgrey" points="1205.29,-1194.5 1215.29,-1191 1205.29,-1187.5 1205.29,-1194.5"/>
</g>
<!-- i108de670&#45;&gt;i108de670 -->
<g id="edge18" class="edge">
<title>i108de670&#45;&gt;i108de670</title>
<path fill="none" stroke="red" d="M1163.15,-922.67C1163.15,-939.16 1163.15,-964 1163.15,-964 1163.15,-964 1113.87,-964 1113.87,-964 1113.87,-964 1113.87,-879 1113.87,-879 1113.87,-879 1205.39,-879 1205.39,-879 1205.39,-879 1205.39,-882.26 1205.39,-882.26"/>
<ellipse fill="red" stroke="red" cx="1205.39" cy="-886.26" rx="4" ry="4"/>
</g>
<!-- i108de6e0 -->
<g id="node14" class="node">
<title>i108de6e0</title>
<ellipse fill="none" stroke="transparent" cx="1354.92" cy="-1027.77" rx="87.18" ry="18"/>
<text text-anchor="middle" x="1354.92" y="-1024.07" font-family="Verdana" font-size="14.00">%36 = load %15</text>
</g>
<!-- i108de670&#45;&gt;i108de6e0 -->
<g id="edge17" class="edge">
<title>i108de670&#45;&gt;i108de6e0</title>
<path fill="none" stroke="lightgrey" d="M1282.4,-921.57C1282.4,-921.57 1282.4,-1007.59 1282.4,-1007.59"/>
<polygon fill="lightgrey" stroke="lightgrey" points="1278.9,-1007.59 1282.4,-1017.59 1285.9,-1007.59 1278.9,-1007.59"/>
</g>
<!-- i108de6e0&#45;&gt;i108de670 -->
<g id="edge20" class="edge">
<title>i108de6e0&#45;&gt;i108de670</title>
<path fill="none" stroke="red" d="M1296.97,-1014.07C1296.97,-1014.07 1296.97,-928.1 1296.97,-928.1"/>
<polygon fill="red" stroke="red" points="1300.47,-918.1 1296.97,-928.1 1293.47,-918.1 1300.47,-918.1"/>
</g>
<!-- i108de770 -->
<g id="node33" class="node">
<title>i108de770</title>
<ellipse fill="none" stroke="transparent" cx="1657.21" cy="-789.36" rx="96.68" ry="18"/>
<text text-anchor="middle" x="1657.21" y="-785.66" font-family="Verdana" font-size="14.00">%37 = sub %36, 1</text>
</g>
<!-- i108de6e0&#45;&gt;i108de770 -->
<g id="edge24" class="edge">
<title>i108de6e0&#45;&gt;i108de770</title>
<path fill="none" stroke="lightgrey" d="M1355.03,-1009.38C1355.03,-952.45 1355.03,-783 1355.03,-783 1355.03,-783 1556.54,-783 1556.54,-783"/>
<polygon fill="none" stroke="lightgrey" points="1556.54,-786.5 1566.54,-783 1556.54,-779.5 1556.54,-786.5"/>
</g>
<!-- i108de6e0&#45;&gt;i108de770 -->
<g id="edge61" class="edge">
<title>i108de6e0&#45;&gt;i108de770</title>
<path fill="none" stroke="lightgrey" d="M1398.52,-1012.14C1398.52,-959.95 1398.52,-795 1398.52,-795 1398.52,-795 1554.91,-795 1554.91,-795"/>
<polygon fill="none" stroke="lightgrey" points="1554.91,-798.5 1564.91,-795 1554.91,-791.5 1554.91,-798.5"/>
</g>
<!-- i108df540 -->
<g id="node15" class="node">
<title>i108df540</title>
<ellipse fill="none" stroke="transparent" cx="1239.85" cy="-2214.47" rx="91.78" ry="18"/>
<text text-anchor="middle" x="1239.85" y="-2210.77" font-family="Verdana" font-size="14.00">store %47 to %50</text>
</g>
<!-- i108df540&#45;&gt;i108df540 -->
<g id="edge27" class="edge">
<title>i108df540&#45;&gt;i108df540</title>
<path fill="none" stroke="red" d="M1239.85,-2232.65C1239.85,-2241.39 1239.85,-2250 1239.85,-2250 1239.85,-2250 1095.77,-2250 1095.77,-2250 1095.77,-2250 1095.77,-2092 1095.77,-2092 1095.77,-2092 1198.21,-2092 1198.21,-2092 1198.21,-2092 1198.21,-2190.21 1198.21,-2190.21"/>
<ellipse fill="red" stroke="red" cx="1198.21" cy="-2194.21" rx="4" ry="4"/>
</g>
<!-- i108da5e0 -->
<g id="node16" class="node">
<title>i108da5e0</title>
<ellipse fill="none" stroke="transparent" cx="1604.1" cy="-1308.75" rx="123.48" ry="18"/>
<text text-anchor="middle" x="1604.1" y="-1305.05" font-family="Verdana" font-size="14.00">%39 = gep %17, 0, %38</text>
</g>
<!-- i108da660 -->
<g id="node20" class="node">
<title>i108da660</title>
<ellipse fill="none" stroke="transparent" cx="1127.78" cy="-1429.63" rx="87.18" ry="18"/>
<text text-anchor="middle" x="1127.78" y="-1425.93" font-family="Verdana" font-size="14.00">%40 = load %39</text>
</g>
<!-- i108da5e0&#45;&gt;i108da660 -->
<g id="edge30" class="edge">
<title>i108da5e0&#45;&gt;i108da660</title>
<path fill="none" stroke="lightgrey" d="M1497.31,-1318.1C1497.31,-1345.39 1497.31,-1423 1497.31,-1423 1497.31,-1423 1218.88,-1423 1218.88,-1423"/>
<polygon fill="none" stroke="lightgrey" points="1218.88,-1419.5 1208.88,-1423 1218.88,-1426.5 1218.88,-1419.5"/>
</g>
<!-- i108da5e0&#45;&gt;i108da660 -->
<g id="edge38" class="edge">
<title>i108da5e0&#45;&gt;i108da660</title>
<path fill="none" stroke="lightgrey" d="M1514.01,-1321.32C1514.01,-1353.25 1514.01,-1435 1514.01,-1435 1514.01,-1435 1221.11,-1435 1221.11,-1435"/>
<polygon fill="none" stroke="lightgrey" points="1221.11,-1431.5 1211.11,-1435 1221.11,-1438.5 1221.11,-1431.5"/>
</g>
<!-- i108da7d0 -->
<g id="node22" class="node">
<title>i108da7d0</title>
<ellipse fill="none" stroke="transparent" cx="438.93" cy="-1158.1" rx="133.48" ry="18"/>
<text text-anchor="middle" x="438.93" y="-1154.4" font-family="Verdana" font-size="14.00">%43 = sext i32 %42 to i64</text>
</g>
<!-- i108da760&#45;&gt;i108da7d0 -->
<g id="edge32" class="edge">
<title>i108da760&#45;&gt;i108da7d0</title>
<path fill="none" stroke="lightgrey" d="M702.24,-1046.61C702.24,-1077.06 702.24,-1152 702.24,-1152 702.24,-1152 574.42,-1152 574.42,-1152"/>
<polygon fill="none" stroke="lightgrey" points="574.42,-1148.5 564.42,-1152 574.42,-1155.5 574.42,-1148.5"/>
</g>
<!-- i108da760&#45;&gt;i108da7d0 -->
<g id="edge42" class="edge">
<title>i108da760&#45;&gt;i108da7d0</title>
<path fill="none" stroke="lightgrey" d="M727.86,-1049.92C727.86,-1084.64 727.86,-1164 727.86,-1164 727.86,-1164 574.82,-1164 574.82,-1164"/>
<polygon fill="none" stroke="lightgrey" points="574.82,-1160.5 564.82,-1164 574.82,-1167.5 574.82,-1160.5"/>
</g>
<!-- i108da990 -->
<g id="node18" class="node">
<title>i108da990</title>
<ellipse fill="none" stroke="transparent" cx="708.78" cy="-1592.29" rx="115.08" ry="18"/>
<text text-anchor="middle" x="708.78" y="-1588.59" font-family="Verdana" font-size="14.00">%46 = fadd %40, %45</text>
</g>
<!-- i108daa20 -->
<g id="node31" class="node">
<title>i108daa20</title>
<ellipse fill="none" stroke="transparent" cx="904.89" cy="-1880.61" rx="138.38" ry="18"/>
<text text-anchor="middle" x="904.89" y="-1876.91" font-family="Verdana" font-size="14.00">%47 = fmul 0.500000, %46</text>
</g>
<!-- i108da990&#45;&gt;i108daa20 -->
<g id="edge34" class="edge">
<title>i108da990&#45;&gt;i108daa20</title>
<path fill="none" stroke="lightgrey" d="M785.58,-1605.81C785.58,-1605.81 785.58,-1861.42 785.58,-1861.42"/>
<polygon fill="none" stroke="lightgrey" points="782.08,-1861.42 785.58,-1871.42 789.08,-1861.42 782.08,-1861.42"/>
</g>
<!-- i108da990&#45;&gt;i108daa20 -->
<g id="edge57" class="edge">
<title>i108da990&#45;&gt;i108daa20</title>
<path fill="none" stroke="lightgrey" d="M804.7,-1602.55C804.7,-1602.55 804.7,-1857.95 804.7,-1857.95"/>
<polygon fill="none" stroke="lightgrey" points="801.2,-1857.95 804.7,-1867.95 808.2,-1857.95 801.2,-1857.95"/>
</g>
<!-- i108df7b0 -->
<g id="node19" class="node">
<title>i108df7b0</title>
<ellipse fill="none" stroke="transparent" cx="780.48" cy="-1467.78" rx="27" ry="18"/>
<text text-anchor="middle" x="780.48" y="-1464.08" font-family="Verdana" font-size="14.00">br</text>
</g>
<!-- i108da660&#45;&gt;i108da990 -->
<g id="edge36" class="edge">
<title>i108da660&#45;&gt;i108da990</title>
<path fill="none" stroke="lightgrey" d="M1046.7,-1423C953.41,-1423 812.93,-1423 812.93,-1423 812.93,-1423 812.93,-1574.57 812.93,-1574.57"/>
<polygon fill="none" stroke="lightgrey" points="809.43,-1574.57 812.93,-1584.57 816.43,-1574.57 809.43,-1574.57"/>
</g>
<!-- i108da660&#45;&gt;i108da990 -->
<g id="edge37" class="edge">
<title>i108da660&#45;&gt;i108da990</title>
<path fill="none" stroke="lightgrey" d="M1044.46,-1435C952.82,-1435 818.37,-1435 818.37,-1435 818.37,-1435 818.37,-1576.69 818.37,-1576.69"/>
<polygon fill="none" stroke="lightgrey" points="814.87,-1576.69 818.37,-1586.69 821.87,-1576.69 814.87,-1576.69"/>
</g>
<!-- i108de550&#45;&gt;i108de5e0 -->
<g id="edge15" class="edge">
<title>i108de550&#45;&gt;i108de5e0</title>
<path fill="none" stroke="lightgrey" d="M945.05,-294.28C945.05,-359.92 945.05,-587 945.05,-587 945.05,-587 1032.15,-587 1032.15,-587"/>
<polygon fill="none" stroke="lightgrey" points="1032.15,-590.5 1042.15,-587 1032.15,-583.5 1032.15,-590.5"/>
</g>
<!-- i108de550&#45;&gt;i108de5e0 -->
<g id="edge39" class="edge">
<title>i108de550&#45;&gt;i108de5e0</title>
<path fill="none" stroke="lightgrey" d="M979.63,-290.7C979.63,-349.67 979.63,-575 979.63,-575 979.63,-575 1033.42,-575 1033.42,-575"/>
<polygon fill="none" stroke="lightgrey" points="1033.42,-578.5 1043.42,-575 1033.42,-571.5 1033.42,-578.5"/>
</g>
<!-- i108da880 -->
<g id="node27" class="node">
<title>i108da880</title>
<ellipse fill="none" stroke="transparent" cx="130.93" cy="-1498.08" rx="123.48" ry="18"/>
<text text-anchor="middle" x="130.93" y="-1494.38" font-family="Verdana" font-size="14.00">%44 = gep %17, 0, %43</text>
</g>
<!-- i108da7d0&#45;&gt;i108da880 -->
<g id="edge41" class="edge">
<title>i108da7d0&#45;&gt;i108da880</title>
<path fill="none" stroke="lightgrey" d="M321.19,-1166.64C321.19,-1218.59 321.19,-1490 321.19,-1490 321.19,-1490 251.33,-1490 251.33,-1490"/>
<polygon fill="none" stroke="lightgrey" points="251.33,-1486.5 241.33,-1490 251.33,-1493.5 251.33,-1486.5"/>
</g>
<!-- i108da7d0&#45;&gt;i108da880 -->
<g id="edge51" class="edge">
<title>i108da7d0&#45;&gt;i108da880</title>
<path fill="none" stroke="lightgrey" d="M336.68,-1169.7C336.68,-1228.94 336.68,-1495 336.68,-1495 336.68,-1495 262.69,-1495 262.69,-1495"/>
<polygon fill="none" stroke="lightgrey" points="262.69,-1491.5 252.69,-1495 262.69,-1498.5 262.69,-1491.5"/>
</g>
<!-- i108da900 -->
<g id="node23" class="node">
<title>i108da900</title>
<ellipse fill="none" stroke="transparent" cx="439.26" cy="-1771.64" rx="87.18" ry="18"/>
<text text-anchor="middle" x="439.26" y="-1767.94" font-family="Verdana" font-size="14.00">%45 = load %44</text>
</g>
<!-- i108da900&#45;&gt;i108da990 -->
<g id="edge35" class="edge">
<title>i108da900&#45;&gt;i108da990</title>
<path fill="none" stroke="lightgrey" d="M520.34,-1765C580.2,-1765 651.31,-1765 651.31,-1765 651.31,-1765 651.31,-1617.92 651.31,-1617.92"/>
<polygon fill="none" stroke="lightgrey" points="654.81,-1617.92 651.31,-1607.92 647.81,-1617.92 654.81,-1617.92"/>
</g>
<!-- i108da900&#45;&gt;i108da990 -->
<g id="edge43" class="edge">
<title>i108da900&#45;&gt;i108da990</title>
<path fill="none" stroke="lightgrey" d="M522.73,-1777C601.91,-1777 708.89,-1777 708.89,-1777 708.89,-1777 708.89,-1620.33 708.89,-1620.33"/>
<polygon fill="none" stroke="lightgrey" points="712.39,-1620.33 708.89,-1610.33 705.39,-1620.33 712.39,-1620.33"/>
</g>
<!-- i108df5b0 -->
<g id="node24" class="node">
<title>i108df5b0</title>
<ellipse fill="none" stroke="transparent" cx="1568.48" cy="-595.28" rx="118.08" ry="18"/>
<text text-anchor="middle" x="1568.48" y="-591.58" font-family="Verdana" font-size="14.00">%51 = load @loop_id_1</text>
</g>
<!-- i108df640 -->
<g id="node25" class="node">
<title>i108df640</title>
<ellipse fill="none" stroke="transparent" cx="1668.48" cy="-540.28" rx="96.68" ry="18"/>
<text text-anchor="middle" x="1668.48" y="-536.58" font-family="Verdana" font-size="14.00">%52 = add %51, 1</text>
</g>
<!-- i108df5b0&#45;&gt;i108df640 -->
<g id="edge45" class="edge">
<title>i108df5b0&#45;&gt;i108df640</title>
<path fill="none" stroke="lightgrey" d="M1629.2,-579.67C1629.2,-579.67 1629.2,-566.9 1629.2,-566.9"/>
<polygon fill="none" stroke="lightgrey" points="1632.7,-566.9 1629.2,-556.9 1625.7,-566.9 1632.7,-566.9"/>
</g>
<!-- i108df6d0 -->
<g id="node26" class="node">
<title>i108df6d0</title>
<ellipse fill="none" stroke="transparent" cx="1726.48" cy="-650.28" rx="122.38" ry="18"/>
<text text-anchor="middle" x="1726.48" y="-646.58" font-family="Verdana" font-size="14.00">store %52 to @loop_id_1</text>
</g>
<!-- i108df5b0&#45;&gt;i108df6d0 -->
<g id="edge46" class="edge">
<title>i108df5b0&#45;&gt;i108df6d0</title>
<path fill="none" stroke="lightgrey" d="M1645.53,-609.16C1645.53,-609.16 1645.53,-626.6 1645.53,-626.6"/>
<polygon fill="lightgrey" stroke="lightgrey" points="1642.03,-636.6 1645.53,-626.6 1649.03,-636.6 1642.03,-636.6"/>
</g>
<!-- i108df640&#45;&gt;i108df6d0 -->
<g id="edge47" class="edge">
<title>i108df640&#45;&gt;i108df6d0</title>
<path fill="none" stroke="lightgrey" d="M1726.04,-555.12C1726.04,-555.12 1726.04,-622.03 1726.04,-622.03"/>
<polygon fill="none" stroke="lightgrey" points="1722.54,-622.03 1726.04,-632.03 1729.54,-622.03 1722.54,-622.03"/>
</g>
<!-- i108df6d0&#45;&gt;i108df5b0 -->
<g id="edge49" class="edge">
<title>i108df6d0&#45;&gt;i108df5b0</title>
<path fill="none" stroke="red" d="M1666.15,-634.37C1666.15,-634.37 1666.15,-615.6 1666.15,-615.6"/>
<polygon fill="red" stroke="red" points="1669.65,-615.6 1666.15,-605.6 1662.65,-615.6 1669.65,-615.6"/>
</g>
<!-- i108df6d0&#45;&gt;i108df6d0 -->
<g id="edge48" class="edge">
<title>i108df6d0&#45;&gt;i108df6d0</title>
<path fill="none" stroke="red" d="M1679.17,-666.92C1679.17,-687.25 1679.17,-719 1679.17,-719 1679.17,-719 1582.33,-719 1582.33,-719 1582.33,-719 1582.33,-622 1582.33,-622 1582.33,-622 1624.91,-622 1624.91,-622 1624.91,-622 1624.91,-632.07 1624.91,-632.07"/>
<ellipse fill="red" stroke="red" cx="1624.91" cy="-636.07" rx="4" ry="4"/>
</g>
<!-- i108da880&#45;&gt;i108da900 -->
<g id="edge44" class="edge">
<title>i108da880&#45;&gt;i108da900</title>
<path fill="none" stroke="lightgrey" d="M247.76,-1504C324.3,-1504 410.23,-1504 410.23,-1504 410.23,-1504 410.23,-1744.5 410.23,-1744.5"/>
<polygon fill="none" stroke="lightgrey" points="406.73,-1744.5 410.23,-1754.5 413.73,-1744.5 406.73,-1744.5"/>
</g>
<!-- i108da880&#45;&gt;i108da900 -->
<g id="edge50" class="edge">
<title>i108da880&#45;&gt;i108da900</title>
<path fill="none" stroke="lightgrey" d="M254.16,-1500C350.53,-1500 468.29,-1500 468.29,-1500 468.29,-1500 468.29,-1744.65 468.29,-1744.65"/>
<polygon fill="none" stroke="lightgrey" points="464.79,-1744.65 468.29,-1754.65 471.79,-1744.65 464.79,-1744.65"/>
</g>
<!-- i108df9b0 -->
<g id="node28" class="node">
<title>i108df9b0</title>
<ellipse fill="none" stroke="transparent" cx="780.48" cy="-849.78" rx="27" ry="18"/>
<text text-anchor="middle" x="780.48" y="-846.08" font-family="Verdana" font-size="14.00">br</text>
</g>
<!-- i108df4a0 -->
<g id="node29" class="node">
<title>i108df4a0</title>
<ellipse fill="none" stroke="transparent" cx="1445.57" cy="-1970.71" rx="123.48" ry="18"/>
<text text-anchor="middle" x="1445.57" y="-1967.01" font-family="Verdana" font-size="14.00">%50 = gep %16, 0, %49</text>
</g>
<!-- i108df4a0&#45;&gt;i108df540 -->
<g id="edge28" class="edge">
<title>i108df4a0&#45;&gt;i108df540</title>
<path fill="none" stroke="lightgrey" d="M1325.22,-1974.94C1325.22,-1974.94 1325.22,-2197.54 1325.22,-2197.54"/>
<polygon fill="none" stroke="lightgrey" points="1321.72,-2197.54 1325.22,-2207.54 1328.72,-2197.54 1321.72,-2197.54"/>
</g>
<!-- i108df4a0&#45;&gt;i108df540 -->
<g id="edge52" class="edge">
<title>i108df4a0&#45;&gt;i108df540</title>
<path fill="none" stroke="lightgrey" d="M1328.36,-1976.73C1328.36,-1976.73 1328.36,-2199.49 1328.36,-2199.49"/>
<polygon fill="none" stroke="lightgrey" points="1324.86,-2199.49 1328.36,-2209.49 1331.86,-2199.49 1324.86,-2199.49"/>
</g>
<!-- i108dab00&#45;&gt;i108df4a0 -->
<g id="edge53" class="edge">
<title>i108dab00&#45;&gt;i108df4a0</title>
<path fill="none" stroke="lightgrey" d="M1391.62,-1509.79C1391.62,-1509.79 1391.62,-1944.49 1391.62,-1944.49"/>
<polygon fill="none" stroke="lightgrey" points="1388.12,-1944.49 1391.62,-1954.49 1395.12,-1944.49 1388.12,-1944.49"/>
</g>
<!-- i108dab00&#45;&gt;i108df4a0 -->
<g id="edge54" class="edge">
<title>i108dab00&#45;&gt;i108df4a0</title>
<path fill="none" stroke="lightgrey" d="M1461.16,-1507.54C1461.16,-1507.54 1461.16,-1942.7 1461.16,-1942.7"/>
<polygon fill="none" stroke="lightgrey" points="1457.66,-1942.7 1461.16,-1952.7 1464.66,-1942.7 1457.66,-1942.7"/>
</g>
<!-- i108daa20&#45;&gt;i108df540 -->
<g id="edge29" class="edge">
<title>i108daa20&#45;&gt;i108df540</title>
<path fill="none" stroke="lightgrey" d="M1037.17,-1886C1101.4,-1886 1164.88,-1886 1164.88,-1886 1164.88,-1886 1164.88,-2193.92 1164.88,-2193.92"/>
<polygon fill="none" stroke="lightgrey" points="1161.38,-2193.92 1164.88,-2203.92 1168.38,-2193.92 1161.38,-2193.92"/>
</g>
<!-- i108daa20&#45;&gt;i108df540 -->
<g id="edge56" class="edge">
<title>i108daa20&#45;&gt;i108df540</title>
<path fill="none" stroke="lightgrey" d="M1033.9,-1874C1106.03,-1874 1181.54,-1874 1181.54,-1874 1181.54,-1874 1181.54,-2190.28 1181.54,-2190.28"/>
<polygon fill="none" stroke="lightgrey" points="1178.04,-2190.28 1181.54,-2200.28 1185.04,-2190.28 1178.04,-2190.28"/>
</g>
<!-- i108de7e0 -->
<g id="node32" class="node">
<title>i108de7e0</title>
<ellipse fill="none" stroke="transparent" cx="1946.92" cy="-1020.55" rx="133.48" ry="18"/>
<text text-anchor="middle" x="1946.92" y="-1016.85" font-family="Verdana" font-size="14.00">%38 = sext i32 %37 to i64</text>
</g>
<!-- i108de7e0&#45;&gt;i108da5e0 -->
<g id="edge31" class="edge">
<title>i108de7e0&#45;&gt;i108da5e0</title>
<path fill="none" stroke="lightgrey" d="M1813.8,-1019C1721.87,-1019 1616.11,-1019 1616.11,-1019 1616.11,-1019 1616.11,-1280.62 1616.11,-1280.62"/>
<polygon fill="none" stroke="lightgrey" points="1612.61,-1280.62 1616.11,-1290.62 1619.61,-1280.62 1612.61,-1280.62"/>
</g>
<!-- i108de7e0&#45;&gt;i108da5e0 -->
<g id="edge58" class="edge">
<title>i108de7e0&#45;&gt;i108da5e0</title>
<path fill="none" stroke="lightgrey" d="M1825.47,-1028C1751.78,-1028 1671.85,-1028 1671.85,-1028 1671.85,-1028 1671.85,-1283.65 1671.85,-1283.65"/>
<polygon fill="none" stroke="lightgrey" points="1668.35,-1283.65 1671.85,-1293.65 1675.35,-1283.65 1668.35,-1283.65"/>
</g>
<!-- i108de770&#45;&gt;i108de7e0 -->
<g id="edge59" class="edge">
<title>i108de770&#45;&gt;i108de7e0</title>
<path fill="none" stroke="lightgrey" d="M1736.41,-799.86C1736.41,-843.33 1736.41,-1007 1736.41,-1007 1736.41,-1007 1849.17,-1007 1849.17,-1007"/>
<polygon fill="none" stroke="lightgrey" points="1849.17,-1010.5 1859.17,-1007 1849.17,-1003.5 1849.17,-1010.5"/>
</g>
<!-- i108de770&#45;&gt;i108de7e0 -->
<g id="edge60" class="edge">
<title>i108de770&#45;&gt;i108de7e0</title>
<path fill="none" stroke="lightgrey" d="M1745.23,-797C1745.23,-835.24 1745.23,-1004 1745.23,-1004 1745.23,-1004 1884.46,-1004 1884.46,-1004"/>
<polygon fill="none" stroke="lightgrey" points="1884.46,-1007.5 1894.46,-1004 1884.46,-1000.5 1884.46,-1007.5"/>
</g>
</g>
</svg>
