<?xml version="1.0" encoding="UTF-8" standalone="no"?>
<!DOCTYPE svg PUBLIC "-//W3C//DTD SVG 1.1//EN"
 "http://www.w3.org/Graphics/SVG/1.1/DTD/svg11.dtd">
<!-- Generated by graphviz version 2.43.0 (0)
 -->
<!-- Title: G Pages: 1 -->
<svg width="1137pt" height="716pt"
 viewBox="0.00 0.00 1137.00 716.00" xmlns="http://www.w3.org/2000/svg" xmlns:xlink="http://www.w3.org/1999/xlink">
<g id="graph0" class="graph" transform="scale(1 1) rotate(0) translate(4 712)">
<title>G</title>
<polygon fill="white" stroke="transparent" points="-4,4 -4,-712 1133,-712 1133,4 -4,4"/>
<g id="clust1" class="cluster">
<title>cluster_scc0</title>
<path fill="white" stroke="red" d="M584.48,-352.42C584.48,-352.42 990.48,-352.42 990.48,-352.42 996.48,-352.42 1002.48,-358.42 1002.48,-364.42 1002.48,-364.42 1002.48,-608.42 1002.48,-608.42 1002.48,-614.42 996.48,-620.42 990.48,-620.42 990.48,-620.42 584.48,-620.42 584.48,-620.42 578.48,-620.42 572.48,-614.42 572.48,-608.42 572.48,-608.42 572.48,-364.42 572.48,-364.42 572.48,-358.42 578.48,-352.42 584.48,-352.42"/>
</g>
<g id="clust2" class="cluster">
<title>cluster_scc1</title>
<path fill="white" stroke="red" d="M138.81,-227.97C138.81,-227.97 495.81,-227.97 495.81,-227.97 501.81,-227.97 507.81,-233.97 507.81,-239.97 507.81,-239.97 507.81,-453.97 507.81,-453.97 507.81,-459.97 501.81,-465.97 495.81,-465.97 495.81,-465.97 138.81,-465.97 138.81,-465.97 132.81,-465.97 126.81,-459.97 126.81,-453.97 126.81,-453.97 126.81,-239.97 126.81,-239.97 126.81,-233.97 132.81,-227.97 138.81,-227.97"/>
</g>
<g id="clust3" class="cluster">
<title>cluster_scc2</title>
<path fill="white" stroke="red" d="M188.35,-611.63C188.35,-611.63 363.35,-611.63 363.35,-611.63 369.35,-611.63 375.35,-617.63 375.35,-623.63 375.35,-623.63 375.35,-651.63 375.35,-651.63 375.35,-657.63 369.35,-663.63 363.35,-663.63 363.35,-663.63 188.35,-663.63 188.35,-663.63 182.35,-663.63 176.35,-657.63 176.35,-651.63 176.35,-651.63 176.35,-623.63 176.35,-623.63 176.35,-617.63 182.35,-611.63 188.35,-611.63"/>
</g>
<g id="clust4" class="cluster">
<title>cluster_scc3</title>
<path fill="white" stroke="red" d="M363.74,0.36C363.74,0.36 746.74,0.36 746.74,0.36 752.74,0.36 758.74,-5.64 758.74,-11.64 758.74,-11.64 758.74,-149.64 758.74,-149.64 758.74,-155.64 752.74,-161.64 746.74,-161.64 746.74,-161.64 363.74,-161.64 363.74,-161.64 357.74,-161.64 351.74,-155.64 351.74,-149.64 351.74,-149.64 351.74,-11.64 351.74,-11.64 351.74,-5.64 357.74,0.36 363.74,0.36"/>
</g>
<!-- i2329c290 -->
<g id="node1" class="node">
<title>i2329c290</title>
<ellipse fill="none" stroke="transparent" cx="778.72" cy="-378.06" rx="81.49" ry="18"/>
<text text-anchor="middle" x="778.72" y="-374.36" font-family="Verdana" font-size="14.00">%29 = load %9</text>
</g>
<!-- i2329c390 -->
<g id="node3" class="node">
<title>i2329c390</title>
<ellipse fill="none" stroke="transparent" cx="696.72" cy="-486.06" rx="116.18" ry="18"/>
<text text-anchor="middle" x="696.72" y="-482.36" font-family="Verdana" font-size="14.00">%31 = icmp %29, %30</text>
</g>
<!-- i2329c290&#45;&gt;i2329c390 -->
<g id="edge9" class="edge">
<title>i2329c290&#45;&gt;i2329c390</title>
<path fill="none" stroke="lightgrey" d="M717.69,-390C700.15,-390 685.66,-390 685.66,-390 685.66,-390 685.66,-457.99 685.66,-457.99"/>
<polygon fill="none" stroke="lightgrey" points="682.16,-457.99 685.66,-467.99 689.16,-457.99 682.16,-457.99"/>
</g>
<!-- i2329d930 -->
<g id="node8" class="node">
<title>i2329d930</title>
<ellipse fill="none" stroke="transparent" cx="873.72" cy="-594.06" rx="85.59" ry="18"/>
<text text-anchor="middle" x="873.72" y="-590.36" font-family="Verdana" font-size="14.00">store %56 to %9</text>
</g>
<!-- i2329c290&#45;&gt;i2329d930 -->
<g id="edge8" class="edge">
<title>i2329c290&#45;&gt;i2329d930</title>
<path fill="none" stroke="lightgrey" d="M855.54,-384C919.49,-384 1000.14,-384 1000.14,-384 1000.14,-384 1000.14,-588 1000.14,-588 1000.14,-588 964.5,-588 964.5,-588"/>
<polygon fill="lightgrey" stroke="lightgrey" points="954.5,-584.5 964.5,-588 954.5,-591.5 954.5,-584.5"/>
</g>
<!-- i2329c300 -->
<g id="node2" class="node">
<title>i2329c300</title>
<ellipse fill="none" stroke="transparent" cx="784.72" cy="-432.06" rx="87.18" ry="18"/>
<text text-anchor="middle" x="784.72" y="-428.36" font-family="Verdana" font-size="14.00">%30 = load %12</text>
</g>
<!-- i2329c300&#45;&gt;i2329c390 -->
<g id="edge10" class="edge">
<title>i2329c300&#45;&gt;i2329c390</title>
<path fill="none" stroke="lightgrey" d="M755.34,-449.15C755.34,-449.15 755.34,-460.37 755.34,-460.37"/>
<polygon fill="none" stroke="lightgrey" points="751.84,-460.37 755.34,-470.37 758.84,-460.37 751.84,-460.37"/>
</g>
<!-- i2329c440 -->
<g id="node4" class="node">
<title>i2329c440</title>
<ellipse fill="none" stroke="transparent" cx="669.72" cy="-540.06" rx="44.39" ry="18"/>
<text text-anchor="middle" x="669.72" y="-536.36" font-family="Verdana" font-size="14.00">br %31</text>
</g>
<!-- i2329c390&#45;&gt;i2329c440 -->
<g id="edge11" class="edge">
<title>i2329c390&#45;&gt;i2329c440</title>
<path fill="none" stroke="lightgrey" d="M669.72,-503.75C669.72,-503.75 669.72,-511.79 669.72,-511.79"/>
<polygon fill="none" stroke="lightgrey" points="666.22,-511.79 669.72,-521.79 673.22,-511.79 666.22,-511.79"/>
</g>
<!-- i2329c4b0 -->
<g id="node5" class="node">
<title>i2329c4b0</title>
<ellipse fill="none" stroke="transparent" cx="688.28" cy="-594.57" rx="81.49" ry="18"/>
<text text-anchor="middle" x="688.28" y="-590.87" font-family="Verdana" font-size="14.00">%33 = load %9</text>
</g>
<!-- i2329c4b0&#45;&gt;i2329d930 -->
<g id="edge12" class="edge">
<title>i2329c4b0&#45;&gt;i2329d930</title>
<path fill="none" stroke="lightgrey" d="M763.97,-588C763.97,-588 782.84,-588 782.84,-588"/>
<polygon fill="lightgrey" stroke="lightgrey" points="792.84,-591.5 782.84,-588 792.84,-584.5 792.84,-591.5"/>
</g>
<!-- i2329c540 -->
<g id="node17" class="node">
<title>i2329c540</title>
<ellipse fill="none" stroke="transparent" cx="1069.65" cy="-444.26" rx="59.29" ry="18"/>
<text text-anchor="middle" x="1069.65" y="-440.56" font-family="Verdana" font-size="14.00">i2329c540</text>
</g>
<!-- i2329c4b0&#45;&gt;i2329c540 -->
<g id="edge13" class="edge">
<title>i2329c4b0&#45;&gt;i2329c540</title>
<path fill="none" stroke="lightgrey" d="M751.7,-583.04C751.7,-575.48 751.7,-567 751.7,-567 751.7,-567 1069.65,-567 1069.65,-567 1069.65,-567 1069.65,-472.37 1069.65,-472.37"/>
<polygon fill="none" stroke="lightgrey" points="1073.15,-472.37 1069.65,-462.37 1066.15,-472.37 1073.15,-472.37"/>
</g>
<!-- i2329d810 -->
<g id="node6" class="node">
<title>i2329d810</title>
<ellipse fill="none" stroke="transparent" cx="913.72" cy="-486.06" rx="81.49" ry="18"/>
<text text-anchor="middle" x="913.72" y="-482.36" font-family="Verdana" font-size="14.00">%55 = load %9</text>
</g>
<!-- i2329d8a0 -->
<g id="node7" class="node">
<title>i2329d8a0</title>
<ellipse fill="none" stroke="transparent" cx="830.72" cy="-540.06" rx="96.68" ry="18"/>
<text text-anchor="middle" x="830.72" y="-536.36" font-family="Verdana" font-size="14.00">%56 = add %55, 1</text>
</g>
<!-- i2329d810&#45;&gt;i2329d8a0 -->
<g id="edge2" class="edge">
<title>i2329d810&#45;&gt;i2329d8a0</title>
<path fill="none" stroke="lightgrey" d="M880.01,-502.56C880.01,-502.56 880.01,-514.41 880.01,-514.41"/>
<polygon fill="none" stroke="lightgrey" points="876.51,-514.41 880.01,-524.41 883.51,-514.41 876.51,-514.41"/>
</g>
<!-- i2329d810&#45;&gt;i2329d930 -->
<g id="edge1" class="edge">
<title>i2329d810&#45;&gt;i2329d930</title>
<path fill="none" stroke="lightgrey" d="M935.54,-503.42C935.54,-503.42 935.54,-571.48 935.54,-571.48"/>
<polygon fill="lightgrey" stroke="lightgrey" points="932.04,-581.48 935.54,-571.48 939.04,-581.48 932.04,-581.48"/>
</g>
<!-- i2329d8a0&#45;&gt;i2329d930 -->
<g id="edge3" class="edge">
<title>i2329d8a0&#45;&gt;i2329d930</title>
<path fill="none" stroke="lightgrey" d="M857.74,-557.45C857.74,-557.45 857.74,-566.34 857.74,-566.34"/>
<polygon fill="none" stroke="lightgrey" points="854.24,-566.34 857.74,-576.34 861.24,-566.34 854.24,-566.34"/>
</g>
<!-- i2329d930&#45;&gt;i2329c290 -->
<g id="edge7" class="edge">
<title>i2329d930&#45;&gt;i2329c290</title>
<path fill="none" stroke="red" d="M954.82,-600C981.9,-600 1005.32,-600 1005.32,-600 1005.32,-600 1005.32,-372 1005.32,-372 1005.32,-372 865.43,-372 865.43,-372"/>
<polygon fill="red" stroke="red" points="865.43,-368.5 855.43,-372 865.43,-375.5 865.43,-368.5"/>
</g>
<!-- i2329d930&#45;&gt;i2329c4b0 -->
<g id="edge6" class="edge">
<title>i2329d930&#45;&gt;i2329c4b0</title>
<path fill="none" stroke="red" d="M792.65,-600C792.65,-600 775.94,-600 775.94,-600"/>
<polygon fill="red" stroke="red" points="775.94,-596.5 765.94,-600 775.94,-603.5 775.94,-596.5"/>
</g>
<!-- i2329d930&#45;&gt;i2329d810 -->
<g id="edge5" class="edge">
<title>i2329d930&#45;&gt;i2329d810</title>
<path fill="none" stroke="red" d="M943.53,-583.31C943.53,-583.31 943.53,-513.12 943.53,-513.12"/>
<polygon fill="red" stroke="red" points="947.03,-513.12 943.53,-503.12 940.03,-513.12 947.03,-513.12"/>
</g>
<!-- i2329d930&#45;&gt;i2329d930 -->
<g id="edge4" class="edge">
<title>i2329d930&#45;&gt;i2329d930</title>
<path fill="none" stroke="red" d="M873.72,-612.09C873.72,-613.85 873.72,-615 873.72,-615 873.72,-615 977.23,-615 977.23,-615 977.23,-615 977.23,-571 977.23,-571 977.23,-571 951.52,-571 951.52,-571 951.52,-571 951.52,-578.26 951.52,-578.26"/>
<ellipse fill="red" stroke="red" cx="951.52" cy="-582.26" rx="4" ry="4"/>
</g>
<!-- i232986c0 -->
<g id="node9" class="node">
<title>i232986c0</title>
<ellipse fill="none" stroke="transparent" cx="413.19" cy="-367.75" rx="87.18" ry="18"/>
<text text-anchor="middle" x="413.19" y="-364.05" font-family="Verdana" font-size="14.00">%41 = load %15</text>
</g>
<!-- i2329c660 -->
<g id="node11" class="node">
<title>i2329c660</title>
<ellipse fill="none" stroke="transparent" cx="226.44" cy="-326.19" rx="91.78" ry="18"/>
<text text-anchor="middle" x="226.44" y="-322.49" font-family="Verdana" font-size="14.00">store %35 to %15</text>
</g>
<!-- i232986c0&#45;&gt;i2329c660 -->
<g id="edge14" class="edge">
<title>i232986c0&#45;&gt;i2329c660</title>
<path fill="none" stroke="red" d="M359.96,-353.21C359.96,-343.31 359.96,-332 359.96,-332 359.96,-332 323.26,-332 323.26,-332"/>
<polygon fill="red" stroke="red" points="313.26,-328.5 323.26,-332 313.26,-335.5 313.26,-328.5"/>
</g>
<!-- i23298750 -->
<g id="node18" class="node">
<title>i23298750</title>
<ellipse fill="none" stroke="transparent" cx="614.06" cy="-208.56" rx="59.59" ry="18"/>
<text text-anchor="middle" x="614.06" y="-204.86" font-family="Verdana" font-size="14.00">i23298750</text>
</g>
<!-- i232986c0&#45;&gt;i23298750 -->
<g id="edge21" class="edge">
<title>i232986c0&#45;&gt;i23298750</title>
<path fill="none" stroke="lightgrey" d="M469.71,-354C513.7,-354 567.32,-354 567.32,-354 567.32,-354 567.32,-229.98 567.32,-229.98"/>
<polygon fill="none" stroke="lightgrey" points="570.82,-229.98 567.32,-219.98 563.82,-229.98 570.82,-229.98"/>
</g>
<!-- i23298a80 -->
<g id="node10" class="node">
<title>i23298a80</title>
<ellipse fill="none" stroke="transparent" cx="340.6" cy="-253.59" rx="87.18" ry="18"/>
<text text-anchor="middle" x="340.6" y="-249.89" font-family="Verdana" font-size="14.00">%48 = load %15</text>
</g>
<!-- i23298a80&#45;&gt;i2329c660 -->
<g id="edge15" class="edge">
<title>i23298a80&#45;&gt;i2329c660</title>
<path fill="none" stroke="red" d="M275.03,-265.58C275.03,-265.58 275.03,-300.9 275.03,-300.9"/>
<polygon fill="red" stroke="red" points="271.53,-310.9 275.03,-300.9 278.53,-310.9 271.53,-310.9"/>
</g>
<!-- i23298af0 -->
<g id="node19" class="node">
<title>i23298af0</title>
<ellipse fill="none" stroke="transparent" cx="158.19" cy="-61.68" rx="57.39" ry="18"/>
<text text-anchor="middle" x="158.19" y="-57.98" font-family="Verdana" font-size="14.00">i23298af0</text>
</g>
<!-- i23298a80&#45;&gt;i23298af0 -->
<g id="edge22" class="edge">
<title>i23298a80&#45;&gt;i23298af0</title>
<path fill="none" stroke="lightgrey" d="M253.49,-253C207.98,-253 161.66,-253 161.66,-253 161.66,-253 161.66,-89.68 161.66,-89.68"/>
<polygon fill="none" stroke="lightgrey" points="165.16,-89.68 161.66,-79.68 158.16,-89.68 165.16,-89.68"/>
</g>
<!-- i2329c660&#45;&gt;i232986c0 -->
<g id="edge16" class="edge">
<title>i2329c660&#45;&gt;i232986c0</title>
<path fill="none" stroke="lightgrey" d="M312.58,-320C353.6,-320 393.83,-320 393.83,-320 393.83,-320 393.83,-339.97 393.83,-339.97"/>
<polygon fill="lightgrey" stroke="lightgrey" points="390.33,-339.97 393.83,-349.97 397.33,-339.97 390.33,-339.97"/>
</g>
<!-- i2329c660&#45;&gt;i23298a80 -->
<g id="edge19" class="edge">
<title>i2329c660&#45;&gt;i23298a80</title>
<path fill="none" stroke="lightgrey" d="M296.56,-314.52C296.56,-314.52 296.56,-279.29 296.56,-279.29"/>
<polygon fill="lightgrey" stroke="lightgrey" points="300.06,-279.29 296.56,-269.29 293.06,-279.29 300.06,-279.29"/>
</g>
<!-- i2329c660&#45;&gt;i2329c660 -->
<g id="edge18" class="edge">
<title>i2329c660&#45;&gt;i2329c660</title>
<path fill="none" stroke="red" d="M159.52,-338.65C159.52,-350.66 159.52,-367 159.52,-367 159.52,-367 126.79,-367 126.79,-367 126.79,-367 126.79,-289 126.79,-289 126.79,-289 188.52,-289 188.52,-289 188.52,-289 188.52,-301.77 188.52,-301.77"/>
<ellipse fill="red" stroke="red" cx="188.52" cy="-305.77" rx="4" ry="4"/>
</g>
<!-- i2329c6d0 -->
<g id="node12" class="node">
<title>i2329c6d0</title>
<ellipse fill="none" stroke="transparent" cx="299.03" cy="-440.35" rx="87.18" ry="18"/>
<text text-anchor="middle" x="299.03" y="-436.65" font-family="Verdana" font-size="14.00">%36 = load %15</text>
</g>
<!-- i2329c660&#45;&gt;i2329c6d0 -->
<g id="edge17" class="edge">
<title>i2329c660&#45;&gt;i2329c6d0</title>
<path fill="none" stroke="lightgrey" d="M247.32,-344.03C247.32,-344.03 247.32,-415.54 247.32,-415.54"/>
<polygon fill="lightgrey" stroke="lightgrey" points="243.82,-415.54 247.32,-425.54 250.82,-415.54 243.82,-415.54"/>
</g>
<!-- i2329c6d0&#45;&gt;i2329c660 -->
<g id="edge20" class="edge">
<title>i2329c6d0&#45;&gt;i2329c660</title>
<path fill="none" stroke="red" d="M282.7,-422.51C282.7,-422.51 282.7,-350.65 282.7,-350.65"/>
<polygon fill="red" stroke="red" points="286.2,-340.65 282.7,-350.65 279.2,-340.65 286.2,-340.65"/>
</g>
<!-- i2329c760 -->
<g id="node21" class="node">
<title>i2329c760</title>
<ellipse fill="none" stroke="transparent" cx="463.49" cy="-580.96" rx="59.29" ry="18"/>
<text text-anchor="middle" x="463.49" y="-577.26" font-family="Verdana" font-size="14.00">i2329c760</text>
</g>
<!-- i2329c6d0&#45;&gt;i2329c760 -->
<g id="edge24" class="edge">
<title>i2329c6d0&#45;&gt;i2329c760</title>
<path fill="none" stroke="lightgrey" d="M373.72,-450.01C373.72,-481.79 373.72,-581 373.72,-581 373.72,-581 394.11,-581 394.11,-581"/>
<polygon fill="none" stroke="lightgrey" points="394.11,-584.5 404.11,-581 394.11,-577.5 394.11,-584.5"/>
</g>
<!-- i2329d530 -->
<g id="node13" class="node">
<title>i2329d530</title>
<ellipse fill="none" stroke="transparent" cx="275.88" cy="-638.04" rx="91.78" ry="18"/>
<text text-anchor="middle" x="275.88" y="-634.34" font-family="Verdana" font-size="14.00">store %47 to %50</text>
</g>
<!-- i2329d530&#45;&gt;i2329d530 -->
<g id="edge25" class="edge">
<title>i2329d530&#45;&gt;i2329d530</title>
<path fill="none" stroke="red" d="M347.71,-649.35C347.71,-655.95 347.71,-663 347.71,-663 347.71,-663 379.92,-663 379.92,-663 379.92,-663 379.92,-617 379.92,-617 379.92,-617 346.37,-617 346.37,-617 346.37,-617 346.37,-618.04 346.37,-618.04"/>
<ellipse fill="red" stroke="red" cx="346.37" cy="-622.04" rx="4" ry="4"/>
</g>
<!-- i2329d5a0 -->
<g id="node14" class="node">
<title>i2329d5a0</title>
<ellipse fill="none" stroke="transparent" cx="631.98" cy="-135.28" rx="118.08" ry="18"/>
<text text-anchor="middle" x="631.98" y="-131.58" font-family="Verdana" font-size="14.00">%51 = load @loop_id_1</text>
</g>
<!-- i2329d630 -->
<g id="node15" class="node">
<title>i2329d630</title>
<ellipse fill="none" stroke="transparent" cx="577.98" cy="-25.28" rx="96.68" ry="18"/>
<text text-anchor="middle" x="577.98" y="-21.58" font-family="Verdana" font-size="14.00">%52 = add %51, 1</text>
</g>
<!-- i2329d5a0&#45;&gt;i2329d630 -->
<g id="edge29" class="edge">
<title>i2329d5a0&#45;&gt;i2329d630</title>
<path fill="none" stroke="lightgrey" d="M651.27,-117.12C651.27,-117.12 651.27,-47.35 651.27,-47.35"/>
<polygon fill="none" stroke="lightgrey" points="654.77,-47.35 651.27,-37.35 647.77,-47.35 654.77,-47.35"/>
</g>
<!-- i2329d6c0 -->
<g id="node16" class="node">
<title>i2329d6c0</title>
<ellipse fill="none" stroke="transparent" cx="481.98" cy="-80.28" rx="122.38" ry="18"/>
<text text-anchor="middle" x="481.98" y="-76.58" font-family="Verdana" font-size="14.00">store %52 to @loop_id_1</text>
</g>
<!-- i2329d5a0&#45;&gt;i2329d6c0 -->
<g id="edge28" class="edge">
<title>i2329d5a0&#45;&gt;i2329d6c0</title>
<path fill="none" stroke="lightgrey" d="M536.31,-124.68C536.31,-124.68 536.31,-106.49 536.31,-106.49"/>
<polygon fill="lightgrey" stroke="lightgrey" points="539.81,-96.49 536.31,-106.49 532.81,-96.49 539.81,-96.49"/>
</g>
<!-- i2329d630&#45;&gt;i2329d6c0 -->
<g id="edge30" class="edge">
<title>i2329d630&#45;&gt;i2329d6c0</title>
<path fill="none" stroke="lightgrey" d="M522.15,-40.02C522.15,-40.02 522.15,-53.16 522.15,-53.16"/>
<polygon fill="none" stroke="lightgrey" points="518.65,-53.16 522.15,-63.16 525.65,-53.16 518.65,-53.16"/>
</g>
<!-- i2329d6c0&#45;&gt;i2329d5a0 -->
<g id="edge32" class="edge">
<title>i2329d6c0&#45;&gt;i2329d5a0</title>
<path fill="none" stroke="red" d="M558.93,-94.45C558.93,-94.45 558.93,-110.97 558.93,-110.97"/>
<polygon fill="red" stroke="red" points="555.43,-110.97 558.93,-120.97 562.43,-110.97 555.43,-110.97"/>
</g>
<!-- i2329d6c0&#45;&gt;i2329d6c0 -->
<g id="edge31" class="edge">
<title>i2329d6c0&#45;&gt;i2329d6c0</title>
<path fill="none" stroke="red" d="M581.55,-90.84C581.55,-98.31 581.55,-107 581.55,-107 581.55,-107 627.72,-107 627.72,-107 627.72,-107 627.72,-52 627.72,-52 627.72,-52 563.16,-52 563.16,-52 563.16,-52 563.16,-58.8 563.16,-58.8"/>
<ellipse fill="red" stroke="red" cx="563.16" cy="-62.8" rx="4" ry="4"/>
</g>
<!-- i2329c5d0 -->
<g id="node20" class="node">
<title>i2329c5d0</title>
<ellipse fill="none" stroke="transparent" cx="59.64" cy="-448.55" rx="59.29" ry="18"/>
<text text-anchor="middle" x="59.64" y="-444.85" font-family="Verdana" font-size="14.00">i2329c5d0</text>
</g>
<!-- i2329c5d0&#45;&gt;i2329c660 -->
<g id="edge23" class="edge">
<title>i2329c5d0&#45;&gt;i2329c660</title>
<path fill="none" stroke="lightgrey" d="M109.89,-438.94C109.89,-410.05 109.89,-326 109.89,-326 109.89,-326 124.61,-326 124.61,-326"/>
<polygon fill="none" stroke="lightgrey" points="124.61,-329.5 134.61,-326 124.61,-322.5 124.61,-329.5"/>
</g>
<!-- i2329d490 -->
<g id="node22" class="node">
<title>i2329d490</title>
<ellipse fill="none" stroke="transparent" cx="367.88" cy="-689.64" rx="59.59" ry="18"/>
<text text-anchor="middle" x="367.88" y="-685.94" font-family="Verdana" font-size="14.00">i2329d490</text>
</g>
<!-- i2329d490&#45;&gt;i2329d530 -->
<g id="edge26" class="edge">
<title>i2329d490&#45;&gt;i2329d530</title>
<path fill="none" stroke="lightgrey" d="M327.9,-676.08C327.9,-676.08 327.9,-663.14 327.9,-663.14"/>
<polygon fill="none" stroke="lightgrey" points="331.4,-663.14 327.9,-653.14 324.4,-663.14 331.4,-663.14"/>
</g>
<!-- i23298a10 -->
<g id="node23" class="node">
<title>i23298a10</title>
<ellipse fill="none" stroke="transparent" cx="265.42" cy="-546.04" rx="59.59" ry="18"/>
<text text-anchor="middle" x="265.42" y="-542.34" font-family="Verdana" font-size="14.00">i23298a10</text>
</g>
<!-- i23298a10&#45;&gt;i2329d530 -->
<g id="edge27" class="edge">
<title>i23298a10&#45;&gt;i2329d530</title>
<path fill="none" stroke="lightgrey" d="M265.42,-564.21C265.42,-564.21 265.42,-609.9 265.42,-609.9"/>
<polygon fill="none" stroke="lightgrey" points="261.92,-609.9 265.42,-619.9 268.92,-609.9 261.92,-609.9"/>
</g>
</g>
</svg>
