<?xml version="1.0" encoding="UTF-8" standalone="no"?>
<!DOCTYPE svg PUBLIC "-//W3C//DTD SVG 1.1//EN"
 "http://www.w3.org/Graphics/SVG/1.1/DTD/svg11.dtd">
<!-- Generated by graphviz version 2.43.0 (0)
 -->
<!-- Title: G Pages: 1 -->
<svg width="946pt" height="720pt"
 viewBox="0.00 0.00 946.00 720.00" xmlns="http://www.w3.org/2000/svg" xmlns:xlink="http://www.w3.org/1999/xlink">
<g id="graph0" class="graph" transform="scale(1 1) rotate(0) translate(4 716)">
<title>G</title>
<polygon fill="white" stroke="transparent" points="-4,4 -4,-716 942,-716 942,4 -4,4"/>
<g id="clust1" class="cluster">
<title>cluster_scc0</title>
<path fill="white" stroke="red" d="M392.1,-304.39C392.1,-304.39 798.1,-304.39 798.1,-304.39 804.1,-304.39 810.1,-310.39 810.1,-316.39 810.1,-316.39 810.1,-560.39 810.1,-560.39 810.1,-566.39 804.1,-572.39 798.1,-572.39 798.1,-572.39 392.1,-572.39 392.1,-572.39 386.1,-572.39 380.1,-566.39 380.1,-560.39 380.1,-560.39 380.1,-316.39 380.1,-316.39 380.1,-310.39 386.1,-304.39 392.1,-304.39"/>
</g>
<g id="clust2" class="cluster">
<title>cluster_scc1</title>
<path fill="white" stroke="red" d="M164.35,-615.63C164.35,-615.63 339.35,-615.63 339.35,-615.63 345.35,-615.63 351.35,-621.63 351.35,-627.63 351.35,-627.63 351.35,-655.63 351.35,-655.63 351.35,-661.63 345.35,-667.63 339.35,-667.63 339.35,-667.63 164.35,-667.63 164.35,-667.63 158.35,-667.63 152.35,-661.63 152.35,-655.63 152.35,-655.63 152.35,-627.63 152.35,-627.63 152.35,-621.63 158.35,-615.63 164.35,-615.63"/>
</g>
<g id="clust3" class="cluster">
<title>cluster_scc2</title>
<path fill="white" stroke="red" d="M277.74,0.36C277.74,0.36 660.74,0.36 660.74,0.36 666.74,0.36 672.74,-5.64 672.74,-11.64 672.74,-11.64 672.74,-149.64 672.74,-149.64 672.74,-155.64 666.74,-161.64 660.74,-161.64 660.74,-161.64 277.74,-161.64 277.74,-161.64 271.74,-161.64 265.74,-155.64 265.74,-149.64 265.74,-149.64 265.74,-11.64 265.74,-11.64 265.74,-5.64 271.74,0.36 277.74,0.36"/>
</g>
<g id="clust4" class="cluster">
<title>cluster_scc3</title>
<path fill="white" stroke="red" d="M36.33,-194.71C36.33,-194.71 324.33,-194.71 324.33,-194.71 330.33,-194.71 336.33,-200.71 336.33,-206.71 336.33,-206.71 336.33,-358.71 336.33,-358.71 336.33,-364.71 330.33,-370.71 324.33,-370.71 324.33,-370.71 36.33,-370.71 36.33,-370.71 30.33,-370.71 24.33,-364.71 24.33,-358.71 24.33,-358.71 24.33,-206.71 24.33,-206.71 24.33,-200.71 30.33,-194.71 36.33,-194.71"/>
</g>
<!-- i0516f620 -->
<g id="node1" class="node">
<title>i0516f620</title>
<ellipse fill="none" stroke="transparent" cx="681.34" cy="-546.03" rx="85.59" ry="18"/>
<text text-anchor="middle" x="681.34" y="-542.33" font-family="Verdana" font-size="14.00">store %48 to %9</text>
</g>
<!-- i0516f620&#45;&gt;i0516f620 -->
<g id="edge4" class="edge">
<title>i0516f620&#45;&gt;i0516f620</title>
<path fill="none" stroke="red" d="M681.34,-564.15C681.34,-574.72 681.34,-586 681.34,-586 681.34,-586 784.86,-586 784.86,-586 784.86,-586 784.86,-522 784.86,-522 784.86,-522 759.15,-522 759.15,-522 759.15,-522 759.15,-530.43 759.15,-530.43"/>
<ellipse fill="red" stroke="red" cx="759.15" cy="-534.43" rx="4" ry="4"/>
</g>
<!-- i05174fb0 -->
<g id="node2" class="node">
<title>i05174fb0</title>
<ellipse fill="none" stroke="transparent" cx="586.34" cy="-330.03" rx="81.49" ry="18"/>
<text text-anchor="middle" x="586.34" y="-326.33" font-family="Verdana" font-size="14.00">%29 = load %9</text>
</g>
<!-- i0516f620&#45;&gt;i05174fb0 -->
<g id="edge3" class="edge">
<title>i0516f620&#45;&gt;i05174fb0</title>
<path fill="none" stroke="red" d="M762.48,-540C787.1,-540 807.77,-540 807.77,-540 807.77,-540 807.77,-336 807.77,-336 807.77,-336 673.17,-336 673.17,-336"/>
<polygon fill="red" stroke="red" points="673.17,-332.5 663.17,-336 673.17,-339.5 673.17,-332.5"/>
</g>
<!-- i051751d0 -->
<g id="node6" class="node">
<title>i051751d0</title>
<ellipse fill="none" stroke="transparent" cx="495.91" cy="-546.54" rx="81.49" ry="18"/>
<text text-anchor="middle" x="495.91" y="-542.84" font-family="Verdana" font-size="14.00">%33 = load %9</text>
</g>
<!-- i0516f620&#45;&gt;i051751d0 -->
<g id="edge2" class="edge">
<title>i0516f620&#45;&gt;i051751d0</title>
<path fill="none" stroke="red" d="M600.28,-552C600.28,-552 583.57,-552 583.57,-552"/>
<polygon fill="red" stroke="red" points="583.57,-548.5 573.57,-552 583.57,-555.5 583.57,-548.5"/>
</g>
<!-- i05175aa0 -->
<g id="node7" class="node">
<title>i05175aa0</title>
<ellipse fill="none" stroke="transparent" cx="721.34" cy="-438.03" rx="81.49" ry="18"/>
<text text-anchor="middle" x="721.34" y="-434.33" font-family="Verdana" font-size="14.00">%47 = load %9</text>
</g>
<!-- i0516f620&#45;&gt;i05175aa0 -->
<g id="edge1" class="edge">
<title>i0516f620&#45;&gt;i05175aa0</title>
<path fill="none" stroke="red" d="M743.17,-533.22C743.17,-533.22 743.17,-465.46 743.17,-465.46"/>
<polygon fill="red" stroke="red" points="746.67,-465.46 743.17,-455.46 739.67,-465.46 746.67,-465.46"/>
</g>
<!-- i05174fb0&#45;&gt;i0516f620 -->
<g id="edge8" class="edge">
<title>i05174fb0&#45;&gt;i0516f620</title>
<path fill="none" stroke="lightgrey" d="M663.06,-324C728.8,-324 812.95,-324 812.95,-324 812.95,-324 812.95,-552 812.95,-552 812.95,-552 772.44,-552 772.44,-552"/>
<polygon fill="lightgrey" stroke="lightgrey" points="762.44,-548.5 772.44,-552 762.44,-555.5 762.44,-548.5"/>
</g>
<!-- i051750b0 -->
<g id="node4" class="node">
<title>i051750b0</title>
<ellipse fill="none" stroke="transparent" cx="504.34" cy="-438.03" rx="116.18" ry="18"/>
<text text-anchor="middle" x="504.34" y="-434.33" font-family="Verdana" font-size="14.00">%31 = icmp %29, %30</text>
</g>
<!-- i05174fb0&#45;&gt;i051750b0 -->
<g id="edge9" class="edge">
<title>i05174fb0&#45;&gt;i051750b0</title>
<path fill="none" stroke="lightgrey" d="M511.2,-337C494.97,-337 482.57,-337 482.57,-337 482.57,-337 482.57,-409.97 482.57,-409.97"/>
<polygon fill="none" stroke="lightgrey" points="479.07,-409.97 482.57,-419.97 486.07,-409.97 479.07,-409.97"/>
</g>
<!-- i05175020 -->
<g id="node3" class="node">
<title>i05175020</title>
<ellipse fill="none" stroke="transparent" cx="592.34" cy="-384.03" rx="87.18" ry="18"/>
<text text-anchor="middle" x="592.34" y="-380.33" font-family="Verdana" font-size="14.00">%30 = load %12</text>
</g>
<!-- i05175020&#45;&gt;i051750b0 -->
<g id="edge10" class="edge">
<title>i05175020&#45;&gt;i051750b0</title>
<path fill="none" stroke="lightgrey" d="M562.97,-401.12C562.97,-401.12 562.97,-412.34 562.97,-412.34"/>
<polygon fill="none" stroke="lightgrey" points="559.47,-412.34 562.97,-422.34 566.47,-412.34 559.47,-412.34"/>
</g>
<!-- i05175160 -->
<g id="node5" class="node">
<title>i05175160</title>
<ellipse fill="none" stroke="transparent" cx="477.34" cy="-492.03" rx="44.39" ry="18"/>
<text text-anchor="middle" x="477.34" y="-488.33" font-family="Verdana" font-size="14.00">br %31</text>
</g>
<!-- i051750b0&#45;&gt;i05175160 -->
<g id="edge11" class="edge">
<title>i051750b0&#45;&gt;i05175160</title>
<path fill="none" stroke="lightgrey" d="M477.34,-455.71C477.34,-455.71 477.34,-463.75 477.34,-463.75"/>
<polygon fill="none" stroke="lightgrey" points="473.84,-463.75 477.34,-473.75 480.84,-463.75 473.84,-463.75"/>
</g>
<!-- i051751d0&#45;&gt;i0516f620 -->
<g id="edge12" class="edge">
<title>i051751d0&#45;&gt;i0516f620</title>
<path fill="none" stroke="lightgrey" d="M571.6,-540C571.6,-540 590.46,-540 590.46,-540"/>
<polygon fill="lightgrey" stroke="lightgrey" points="600.46,-543.5 590.46,-540 600.46,-536.5 600.46,-543.5"/>
</g>
<!-- i05175260 -->
<g id="node16" class="node">
<title>i05175260</title>
<ellipse fill="none" stroke="transparent" cx="877.93" cy="-396.14" rx="59.59" ry="18"/>
<text text-anchor="middle" x="877.93" y="-392.44" font-family="Verdana" font-size="14.00">i05175260</text>
</g>
<!-- i051751d0&#45;&gt;i05175260 -->
<g id="edge13" class="edge">
<title>i051751d0&#45;&gt;i05175260</title>
<path fill="none" stroke="lightgrey" d="M559.33,-535.17C559.33,-526.49 559.33,-516 559.33,-516 559.33,-516 877.93,-516 877.93,-516 877.93,-516 877.93,-424.34 877.93,-424.34"/>
<polygon fill="none" stroke="lightgrey" points="881.43,-424.34 877.93,-414.34 874.43,-424.34 881.43,-424.34"/>
</g>
<!-- i05175aa0&#45;&gt;i0516f620 -->
<g id="edge5" class="edge">
<title>i05175aa0&#45;&gt;i0516f620</title>
<path fill="none" stroke="lightgrey" d="M751.16,-454.91C751.16,-454.91 751.16,-525.48 751.16,-525.48"/>
<polygon fill="lightgrey" stroke="lightgrey" points="747.66,-535.48 751.16,-525.48 754.66,-535.48 747.66,-535.48"/>
</g>
<!-- i05175b30 -->
<g id="node8" class="node">
<title>i05175b30</title>
<ellipse fill="none" stroke="transparent" cx="638.34" cy="-492.03" rx="96.68" ry="18"/>
<text text-anchor="middle" x="638.34" y="-488.33" font-family="Verdana" font-size="14.00">%48 = add %47, 1</text>
</g>
<!-- i05175aa0&#45;&gt;i05175b30 -->
<g id="edge6" class="edge">
<title>i05175aa0&#45;&gt;i05175b30</title>
<path fill="none" stroke="lightgrey" d="M687.64,-454.53C687.64,-454.53 687.64,-466.38 687.64,-466.38"/>
<polygon fill="none" stroke="lightgrey" points="684.14,-466.38 687.64,-476.38 691.14,-466.38 684.14,-466.38"/>
</g>
<!-- i05175b30&#45;&gt;i0516f620 -->
<g id="edge7" class="edge">
<title>i05175b30&#45;&gt;i0516f620</title>
<path fill="none" stroke="lightgrey" d="M665.37,-509.42C665.37,-509.42 665.37,-518.31 665.37,-518.31"/>
<polygon fill="none" stroke="lightgrey" points="661.87,-518.31 665.37,-528.31 668.87,-518.31 661.87,-518.31"/>
</g>
<!-- i051757c0 -->
<g id="node9" class="node">
<title>i051757c0</title>
<ellipse fill="none" stroke="transparent" cx="251.88" cy="-642.04" rx="91.78" ry="18"/>
<text text-anchor="middle" x="251.88" y="-638.34" font-family="Verdana" font-size="14.00">store %39 to %42</text>
</g>
<!-- i051757c0&#45;&gt;i051757c0 -->
<g id="edge14" class="edge">
<title>i051757c0&#45;&gt;i051757c0</title>
<path fill="none" stroke="red" d="M323.71,-653.35C323.71,-659.95 323.71,-667 323.71,-667 323.71,-667 366.18,-667 366.18,-667 366.18,-667 366.18,-605 366.18,-605 366.18,-605 338.32,-605 338.32,-605 338.32,-605 338.32,-627.92 338.32,-627.92"/>
<ellipse fill="red" stroke="red" cx="338.32" cy="-631.92" rx="4" ry="4"/>
</g>
<!-- i05175830 -->
<g id="node10" class="node">
<title>i05175830</title>
<ellipse fill="none" stroke="transparent" cx="545.98" cy="-135.28" rx="118.08" ry="18"/>
<text text-anchor="middle" x="545.98" y="-131.58" font-family="Verdana" font-size="14.00">%43 = load @loop_id_2</text>
</g>
<!-- i051758c0 -->
<g id="node11" class="node">
<title>i051758c0</title>
<ellipse fill="none" stroke="transparent" cx="491.98" cy="-25.28" rx="96.68" ry="18"/>
<text text-anchor="middle" x="491.98" y="-21.58" font-family="Verdana" font-size="14.00">%44 = add %43, 1</text>
</g>
<!-- i05175830&#45;&gt;i051758c0 -->
<g id="edge18" class="edge">
<title>i05175830&#45;&gt;i051758c0</title>
<path fill="none" stroke="lightgrey" d="M553.49,-117.12C553.49,-117.12 553.49,-49.28 553.49,-49.28"/>
<polygon fill="none" stroke="lightgrey" points="556.99,-49.28 553.49,-39.28 549.99,-49.28 556.99,-49.28"/>
</g>
<!-- i05175950 -->
<g id="node12" class="node">
<title>i05175950</title>
<ellipse fill="none" stroke="transparent" cx="395.98" cy="-80.28" rx="122.38" ry="18"/>
<text text-anchor="middle" x="395.98" y="-76.58" font-family="Verdana" font-size="14.00">store %44 to @loop_id_2</text>
</g>
<!-- i05175830&#45;&gt;i05175950 -->
<g id="edge17" class="edge">
<title>i05175830&#45;&gt;i05175950</title>
<path fill="none" stroke="lightgrey" d="M457.85,-123.08C457.85,-123.08 457.85,-106.01 457.85,-106.01"/>
<polygon fill="lightgrey" stroke="lightgrey" points="461.35,-96.01 457.85,-106.01 454.35,-96.01 461.35,-96.01"/>
</g>
<!-- i051758c0&#45;&gt;i05175950 -->
<g id="edge19" class="edge">
<title>i051758c0&#45;&gt;i05175950</title>
<path fill="none" stroke="lightgrey" d="M456.65,-42.08C456.65,-42.08 456.65,-54.34 456.65,-54.34"/>
<polygon fill="none" stroke="lightgrey" points="453.15,-54.34 456.65,-64.34 460.15,-54.34 453.15,-54.34"/>
</g>
<!-- i05175950&#45;&gt;i05175830 -->
<g id="edge21" class="edge">
<title>i05175950&#45;&gt;i05175830</title>
<path fill="none" stroke="red" d="M488.01,-92.22C488.01,-92.22 488.01,-109.4 488.01,-109.4"/>
<polygon fill="red" stroke="red" points="484.51,-109.4 488.01,-119.4 491.51,-109.4 484.51,-109.4"/>
</g>
<!-- i05175950&#45;&gt;i05175950 -->
<g id="edge20" class="edge">
<title>i05175950&#45;&gt;i05175950</title>
<path fill="none" stroke="red" d="M288.31,-89.03C288.31,-96.82 288.31,-107 288.31,-107 288.31,-107 230.48,-107 230.48,-107 230.48,-107 230.48,-52 230.48,-52 230.48,-52 334.46,-52 334.46,-52 334.46,-52 334.46,-56.49 334.46,-56.49"/>
<ellipse fill="red" stroke="red" cx="334.46" cy="-60.49" rx="4" ry="4"/>
</g>
<!-- i05175380 -->
<g id="node13" class="node">
<title>i05175380</title>
<ellipse fill="none" stroke="transparent" cx="236.27" cy="-344.57" rx="91.78" ry="18"/>
<text text-anchor="middle" x="236.27" y="-340.87" font-family="Verdana" font-size="14.00">store %35 to %15</text>
</g>
<!-- i05175380&#45;&gt;i05175380 -->
<g id="edge24" class="edge">
<title>i05175380&#45;&gt;i05175380</title>
<path fill="none" stroke="red" d="M314.56,-354.11C314.56,-365.78 314.56,-384 314.56,-384 314.56,-384 333.11,-384 333.11,-384 333.11,-384 333.11,-322 333.11,-322 333.11,-322 319.55,-322 319.55,-322 319.55,-322 319.55,-328.93 319.55,-328.93"/>
<ellipse fill="red" stroke="red" cx="319.55" cy="-332.93" rx="4" ry="4"/>
</g>
<!-- i051753f0 -->
<g id="node14" class="node">
<title>i051753f0</title>
<ellipse fill="none" stroke="transparent" cx="215.74" cy="-221" rx="87.18" ry="18"/>
<text text-anchor="middle" x="215.74" y="-217.3" font-family="Verdana" font-size="14.00">%36 = load %15</text>
</g>
<!-- i05175380&#45;&gt;i051753f0 -->
<g id="edge23" class="edge">
<title>i05175380&#45;&gt;i051753f0</title>
<path fill="none" stroke="lightgrey" d="M238.33,-326.33C238.33,-326.33 238.33,-248.51 238.33,-248.51"/>
<polygon fill="lightgrey" stroke="lightgrey" points="241.83,-248.51 238.33,-238.51 234.83,-248.51 241.83,-248.51"/>
</g>
<!-- i05175600 -->
<g id="node15" class="node">
<title>i05175600</title>
<ellipse fill="none" stroke="transparent" cx="118.99" cy="-300.56" rx="87.18" ry="18"/>
<text text-anchor="middle" x="118.99" y="-296.86" font-family="Verdana" font-size="14.00">%40 = load %15</text>
</g>
<!-- i05175380&#45;&gt;i05175600 -->
<g id="edge22" class="edge">
<title>i05175380&#45;&gt;i05175600</title>
<path fill="none" stroke="lightgrey" d="M165.11,-333C165.11,-333 165.11,-326.02 165.11,-326.02"/>
<polygon fill="lightgrey" stroke="lightgrey" points="168.61,-326.02 165.11,-316.02 161.61,-326.02 168.61,-326.02"/>
</g>
<!-- i051753f0&#45;&gt;i05175380 -->
<g id="edge25" class="edge">
<title>i051753f0&#45;&gt;i05175380</title>
<path fill="none" stroke="red" d="M270.58,-235.18C270.58,-235.18 270.58,-317.81 270.58,-317.81"/>
<polygon fill="red" stroke="red" points="267.08,-327.81 270.58,-317.81 274.08,-327.81 267.08,-327.81"/>
</g>
<!-- i05175460 -->
<g id="node20" class="node">
<title>i05175460</title>
<ellipse fill="none" stroke="transparent" cx="127.38" cy="-55.95" rx="59.59" ry="18"/>
<text text-anchor="middle" x="127.38" y="-52.25" font-family="Verdana" font-size="14.00">i05175460</text>
</g>
<!-- i051753f0&#45;&gt;i05175460 -->
<g id="edge28" class="edge">
<title>i051753f0&#45;&gt;i05175460</title>
<path fill="none" stroke="lightgrey" d="M157.91,-207.49C157.91,-207.49 157.91,-81.55 157.91,-81.55"/>
<polygon fill="none" stroke="lightgrey" points="161.41,-81.55 157.91,-71.55 154.41,-81.55 161.41,-81.55"/>
</g>
<!-- i05175600&#45;&gt;i05175380 -->
<g id="edge26" class="edge">
<title>i05175600&#45;&gt;i05175380</title>
<path fill="none" stroke="red" d="M185.6,-312.59C185.6,-312.59 185.6,-319.41 185.6,-319.41"/>
<polygon fill="red" stroke="red" points="182.1,-329.41 185.6,-319.41 189.1,-329.41 182.1,-329.41"/>
</g>
<!-- i05175670 -->
<g id="node21" class="node">
<title>i05175670</title>
<ellipse fill="none" stroke="transparent" cx="59.69" cy="-439.01" rx="59.59" ry="18"/>
<text text-anchor="middle" x="59.69" y="-435.31" font-family="Verdana" font-size="14.00">i05175670</text>
</g>
<!-- i05175600&#45;&gt;i05175670 -->
<g id="edge29" class="edge">
<title>i05175600&#45;&gt;i05175670</title>
<path fill="none" stroke="lightgrey" d="M75.69,-316.44C75.69,-316.44 75.69,-411.58 75.69,-411.58"/>
<polygon fill="none" stroke="lightgrey" points="72.19,-411.58 75.69,-421.58 79.19,-411.58 72.19,-411.58"/>
</g>
<!-- i05175720 -->
<g id="node17" class="node">
<title>i05175720</title>
<ellipse fill="none" stroke="transparent" cx="343.88" cy="-693.64" rx="59.59" ry="18"/>
<text text-anchor="middle" x="343.88" y="-689.94" font-family="Verdana" font-size="14.00">i05175720</text>
</g>
<!-- i05175720&#45;&gt;i051757c0 -->
<g id="edge15" class="edge">
<title>i05175720&#45;&gt;i051757c0</title>
<path fill="none" stroke="lightgrey" d="M303.9,-680.08C303.9,-680.08 303.9,-667.14 303.9,-667.14"/>
<polygon fill="none" stroke="lightgrey" points="307.4,-667.14 303.9,-657.14 300.4,-667.14 307.4,-667.14"/>
</g>
<!-- i05175590 -->
<g id="node18" class="node">
<title>i05175590</title>
<ellipse fill="none" stroke="transparent" cx="241.42" cy="-550.04" rx="59.59" ry="18"/>
<text text-anchor="middle" x="241.42" y="-546.34" font-family="Verdana" font-size="14.00">i05175590</text>
</g>
<!-- i05175590&#45;&gt;i051757c0 -->
<g id="edge16" class="edge">
<title>i05175590&#45;&gt;i051757c0</title>
<path fill="none" stroke="lightgrey" d="M241.42,-568.21C241.42,-568.21 241.42,-613.9 241.42,-613.9"/>
<polygon fill="none" stroke="lightgrey" points="237.92,-613.9 241.42,-623.9 244.92,-613.9 237.92,-613.9"/>
</g>
<!-- i051752f0 -->
<g id="node19" class="node">
<title>i051752f0</title>
<ellipse fill="none" stroke="transparent" cx="402.2" cy="-229.58" rx="57.69" ry="18"/>
<text text-anchor="middle" x="402.2" y="-225.88" font-family="Verdana" font-size="14.00">i051752f0</text>
</g>
<!-- i051752f0&#45;&gt;i05175380 -->
<g id="edge27" class="edge">
<title>i051752f0&#45;&gt;i05175380</title>
<path fill="none" stroke="lightgrey" d="M363.6,-243C338.8,-243 311.19,-243 311.19,-243 311.19,-243 311.19,-324.08 311.19,-324.08"/>
<polygon fill="none" stroke="lightgrey" points="307.69,-324.08 311.19,-334.08 314.69,-324.08 307.69,-324.08"/>
</g>
</g>
</svg>
