<?xml version="1.0" encoding="UTF-8" standalone="no"?>
<!DOCTYPE svg PUBLIC "-//W3C//DTD SVG 1.1//EN"
 "http://www.w3.org/Graphics/SVG/1.1/DTD/svg11.dtd">
<!-- Generated by graphviz version 2.43.0 (0)
 -->
<!-- Title: G Pages: 1 -->
<svg width="1459pt" height="1242pt"
 viewBox="0.00 0.00 1458.67 1242.00" xmlns="http://www.w3.org/2000/svg" xmlns:xlink="http://www.w3.org/1999/xlink">
<g id="graph0" class="graph" transform="scale(1 1) rotate(0) translate(4 1238)">
<title>G</title>
<polygon fill="white" stroke="transparent" points="-4,4 -4,-1238 1454.67,-1238 1454.67,4 -4,4"/>
<g id="clust1" class="cluster">
<title>cluster_scc0</title>
<path fill="white" stroke="red" d="M11.66,-16.89C11.66,-16.89 417.66,-16.89 417.66,-16.89 423.66,-16.89 429.66,-22.89 429.66,-28.89 429.66,-28.89 429.66,-272.89 429.66,-272.89 429.66,-278.89 423.66,-284.89 417.66,-284.89 417.66,-284.89 11.66,-284.89 11.66,-284.89 5.66,-284.89 -0.34,-278.89 -0.34,-272.89 -0.34,-272.89 -0.34,-28.89 -0.34,-28.89 -0.34,-22.89 5.66,-16.89 11.66,-16.89"/>
</g>
<g id="clust2" class="cluster">
<title>cluster_scc1</title>
<path fill="white" stroke="red" d="M526.56,-1172.99C526.56,-1172.99 701.56,-1172.99 701.56,-1172.99 707.56,-1172.99 713.56,-1178.99 713.56,-1184.99 713.56,-1184.99 713.56,-1212.99 713.56,-1212.99 713.56,-1218.99 707.56,-1224.99 701.56,-1224.99 701.56,-1224.99 526.56,-1224.99 526.56,-1224.99 520.56,-1224.99 514.56,-1218.99 514.56,-1212.99 514.56,-1212.99 514.56,-1184.99 514.56,-1184.99 514.56,-1178.99 520.56,-1172.99 526.56,-1172.99"/>
</g>
<g id="clust3" class="cluster">
<title>cluster_scc2</title>
<path fill="white" stroke="green" d="M115.11,-629.19C115.11,-629.19 354.11,-629.19 354.11,-629.19 360.11,-629.19 366.11,-635.19 366.11,-641.19 366.11,-641.19 366.11,-692.19 366.11,-692.19 366.11,-698.19 360.11,-704.19 354.11,-704.19 354.11,-704.19 115.11,-704.19 115.11,-704.19 109.11,-704.19 103.11,-698.19 103.11,-692.19 103.11,-692.19 103.11,-641.19 103.11,-641.19 103.11,-635.19 109.11,-629.19 115.11,-629.19"/>
<text text-anchor="middle" x="234.61" y="-688.99" font-family="Times,serif" font-size="14.00">Loop Iteration</text>
</g>
<g id="clust4" class="cluster">
<title>cluster_scc3</title>
<path fill="white" stroke="green" d="M385.29,-897.65C385.29,-897.65 552.29,-897.65 552.29,-897.65 558.29,-897.65 564.29,-903.65 564.29,-909.65 564.29,-909.65 564.29,-960.65 564.29,-960.65 564.29,-966.65 558.29,-972.65 552.29,-972.65 552.29,-972.65 385.29,-972.65 385.29,-972.65 379.29,-972.65 373.29,-966.65 373.29,-960.65 373.29,-960.65 373.29,-909.65 373.29,-909.65 373.29,-903.65 379.29,-897.65 385.29,-897.65"/>
<text text-anchor="middle" x="468.79" y="-957.45" font-family="Times,serif" font-size="14.00">Loop Iteration</text>
</g>
<g id="clust5" class="cluster">
<title>cluster_scc4</title>
<path fill="white" stroke="green" d="M789.71,-1076.71C789.71,-1076.71 1028.71,-1076.71 1028.71,-1076.71 1034.71,-1076.71 1040.71,-1082.71 1040.71,-1088.71 1040.71,-1088.71 1040.71,-1139.71 1040.71,-1139.71 1040.71,-1145.71 1034.71,-1151.71 1028.71,-1151.71 1028.71,-1151.71 789.71,-1151.71 789.71,-1151.71 783.71,-1151.71 777.71,-1145.71 777.71,-1139.71 777.71,-1139.71 777.71,-1088.71 777.71,-1088.71 777.71,-1082.71 783.71,-1076.71 789.71,-1076.71"/>
<text text-anchor="middle" x="909.21" y="-1136.51" font-family="Times,serif" font-size="14.00">Loop Iteration</text>
</g>
<g id="clust6" class="cluster">
<title>cluster_scc5</title>
<path fill="white" stroke="green" d="M819.16,-716.12C819.16,-716.12 1078.16,-716.12 1078.16,-716.12 1084.16,-716.12 1090.16,-722.12 1090.16,-728.12 1090.16,-728.12 1090.16,-779.12 1090.16,-779.12 1090.16,-785.12 1084.16,-791.12 1078.16,-791.12 1078.16,-791.12 819.16,-791.12 819.16,-791.12 813.16,-791.12 807.16,-785.12 807.16,-779.12 807.16,-779.12 807.16,-728.12 807.16,-728.12 807.16,-722.12 813.16,-716.12 819.16,-716.12"/>
<text text-anchor="middle" x="948.66" y="-775.92" font-family="Times,serif" font-size="14.00">Loop Iteration</text>
</g>
<g id="clust7" class="cluster">
<title>cluster_scc6</title>
<path fill="white" stroke="green" d="M359.34,-457.02C359.34,-457.02 617.34,-457.02 617.34,-457.02 623.34,-457.02 629.34,-463.02 629.34,-469.02 629.34,-469.02 629.34,-520.02 629.34,-520.02 629.34,-526.02 623.34,-532.02 617.34,-532.02 617.34,-532.02 359.34,-532.02 359.34,-532.02 353.34,-532.02 347.34,-526.02 347.34,-520.02 347.34,-520.02 347.34,-469.02 347.34,-469.02 347.34,-463.02 353.34,-457.02 359.34,-457.02"/>
<text text-anchor="middle" x="488.34" y="-516.82" font-family="Times,serif" font-size="14.00">Loop Iteration</text>
</g>
<g id="clust8" class="cluster">
<title>cluster_scc7</title>
<path fill="white" stroke="green" d="M745.8,-104.28C745.8,-104.28 930.8,-104.28 930.8,-104.28 936.8,-104.28 942.8,-110.28 942.8,-116.28 942.8,-116.28 942.8,-167.28 942.8,-167.28 942.8,-173.28 936.8,-179.28 930.8,-179.28 930.8,-179.28 745.8,-179.28 745.8,-179.28 739.8,-179.28 733.8,-173.28 733.8,-167.28 733.8,-167.28 733.8,-116.28 733.8,-116.28 733.8,-110.28 739.8,-104.28 745.8,-104.28"/>
<text text-anchor="middle" x="838.3" y="-164.08" font-family="Times,serif" font-size="14.00">Loop Iteration</text>
</g>
<g id="clust9" class="cluster">
<title>cluster_scc8</title>
<path fill="white" stroke="red" d="M695.04,-405.23C695.04,-405.23 960.04,-405.23 960.04,-405.23 966.04,-405.23 972.04,-411.23 972.04,-417.23 972.04,-417.23 972.04,-552.23 972.04,-552.23 972.04,-558.23 966.04,-564.23 960.04,-564.23 960.04,-564.23 695.04,-564.23 695.04,-564.23 689.04,-564.23 683.04,-558.23 683.04,-552.23 683.04,-552.23 683.04,-417.23 683.04,-417.23 683.04,-411.23 689.04,-405.23 695.04,-405.23"/>
</g>
<g id="clust10" class="cluster">
<title>cluster_scc9</title>
<path fill="white" stroke="green" d="M449.69,0.04C449.69,0.04 634.69,0.04 634.69,0.04 640.69,0.04 646.69,-5.96 646.69,-11.96 646.69,-11.96 646.69,-62.96 646.69,-62.96 646.69,-68.96 640.69,-74.96 634.69,-74.96 634.69,-74.96 449.69,-74.96 449.69,-74.96 443.69,-74.96 437.69,-68.96 437.69,-62.96 437.69,-62.96 437.69,-11.96 437.69,-11.96 437.69,-5.96 443.69,0.04 449.69,0.04"/>
<text text-anchor="middle" x="542.19" y="-59.76" font-family="Times,serif" font-size="14.00">Loop Iteration</text>
</g>
<g id="clust11" class="cluster">
<title>cluster_scc10</title>
<path fill="white" stroke="green" d="M582.24,-627.14C582.24,-627.14 676.24,-627.14 676.24,-627.14 682.24,-627.14 688.24,-633.14 688.24,-639.14 688.24,-639.14 688.24,-690.14 688.24,-690.14 688.24,-696.14 682.24,-702.14 676.24,-702.14 676.24,-702.14 582.24,-702.14 582.24,-702.14 576.24,-702.14 570.24,-696.14 570.24,-690.14 570.24,-690.14 570.24,-639.14 570.24,-639.14 570.24,-633.14 576.24,-627.14 582.24,-627.14"/>
<text text-anchor="middle" x="629.24" y="-686.94" font-family="Times,serif" font-size="14.00">Loop Iteration</text>
</g>
<g id="clust12" class="cluster">
<title>cluster_scc11</title>
<path fill="white" stroke="red" d="M1038.24,-170.64C1038.24,-170.64 1428.24,-170.64 1428.24,-170.64 1434.24,-170.64 1440.24,-176.64 1440.24,-182.64 1440.24,-182.64 1440.24,-320.64 1440.24,-320.64 1440.24,-326.64 1434.24,-332.64 1428.24,-332.64 1428.24,-332.64 1038.24,-332.64 1038.24,-332.64 1032.24,-332.64 1026.24,-326.64 1026.24,-320.64 1026.24,-320.64 1026.24,-182.64 1026.24,-182.64 1026.24,-176.64 1032.24,-170.64 1038.24,-170.64"/>
</g>
<g id="clust13" class="cluster">
<title>cluster_scc12</title>
<path fill="white" stroke="green" d="M639.24,-798.14C639.24,-798.14 733.24,-798.14 733.24,-798.14 739.24,-798.14 745.24,-804.14 745.24,-810.14 745.24,-810.14 745.24,-861.14 745.24,-861.14 745.24,-867.14 739.24,-873.14 733.24,-873.14 733.24,-873.14 639.24,-873.14 639.24,-873.14 633.24,-873.14 627.24,-867.14 627.24,-861.14 627.24,-861.14 627.24,-810.14 627.24,-810.14 627.24,-804.14 633.24,-798.14 639.24,-798.14"/>
<text text-anchor="middle" x="686.24" y="-857.94" font-family="Times,serif" font-size="14.00">Loop Iteration</text>
</g>
<g id="clust14" class="cluster">
<title>cluster_scc13</title>
<path fill="white" stroke="green" d="M582.24,-285.14C582.24,-285.14 676.24,-285.14 676.24,-285.14 682.24,-285.14 688.24,-291.14 688.24,-297.14 688.24,-297.14 688.24,-348.14 688.24,-348.14 688.24,-354.14 682.24,-360.14 676.24,-360.14 676.24,-360.14 582.24,-360.14 582.24,-360.14 576.24,-360.14 570.24,-354.14 570.24,-348.14 570.24,-348.14 570.24,-297.14 570.24,-297.14 570.24,-291.14 576.24,-285.14 582.24,-285.14"/>
<text text-anchor="middle" x="629.24" y="-344.94" font-family="Times,serif" font-size="14.00">Loop Iteration</text>
</g>
<!-- i17782fa0 -->
<g id="node1" class="node">
<title>i17782fa0</title>
<ellipse fill="none" stroke="transparent" cx="205.9" cy="-42.53" rx="81.49" ry="18"/>
<text text-anchor="middle" x="205.9" y="-38.83" font-family="Verdana" font-size="14.00">%29 = load %9</text>
</g>
<!-- i177830a0 -->
<g id="node3" class="node">
<title>i177830a0</title>
<ellipse fill="none" stroke="transparent" cx="123.9" cy="-150.53" rx="116.18" ry="18"/>
<text text-anchor="middle" x="123.9" y="-146.83" font-family="Verdana" font-size="14.00">%31 = icmp %29, %30</text>
</g>
<!-- i17782fa0&#45;&gt;i177830a0 -->
<g id="edge2" class="edge">
<title>i17782fa0&#45;&gt;i177830a0</title>
<path fill="none" stroke="lightgrey" d="M124.58,-42C93.83,-42 66.11,-42 66.11,-42 66.11,-42 66.11,-124.51 66.11,-124.51"/>
<polygon fill="none" stroke="lightgrey" points="62.61,-124.51 66.11,-134.51 69.61,-124.51 62.61,-124.51"/>
</g>
<!-- i17783bb0 -->
<g id="node8" class="node">
<title>i17783bb0</title>
<ellipse fill="none" stroke="transparent" cx="300.9" cy="-258.53" rx="85.59" ry="18"/>
<text text-anchor="middle" x="300.9" y="-254.83" font-family="Verdana" font-size="14.00">store %48 to %9</text>
</g>
<!-- i17782fa0&#45;&gt;i17783bb0 -->
<g id="edge1" class="edge">
<title>i17782fa0&#45;&gt;i17783bb0</title>
<path fill="none" stroke="lightgrey" d="M264.75,-55C331.11,-55 429.88,-55 429.88,-55 429.88,-55 429.88,-250 429.88,-250 429.88,-250 386.67,-250 386.67,-250"/>
<polygon fill="lightgrey" stroke="lightgrey" points="376.67,-246.5 386.67,-250 376.67,-253.5 376.67,-246.5"/>
</g>
<!-- i17783010 -->
<g id="node2" class="node">
<title>i17783010</title>
<ellipse fill="none" stroke="transparent" cx="211.9" cy="-96.53" rx="87.18" ry="18"/>
<text text-anchor="middle" x="211.9" y="-92.83" font-family="Verdana" font-size="14.00">%30 = load %12</text>
</g>
<!-- i17783010&#45;&gt;i177830a0 -->
<g id="edge10" class="edge">
<title>i17783010&#45;&gt;i177830a0</title>
<path fill="none" stroke="lightgrey" d="M182.52,-113.61C182.52,-113.61 182.52,-124.83 182.52,-124.83"/>
<polygon fill="none" stroke="lightgrey" points="179.02,-124.83 182.52,-134.83 186.02,-124.83 179.02,-124.83"/>
</g>
<!-- i17783150 -->
<g id="node4" class="node">
<title>i17783150</title>
<ellipse fill="none" stroke="transparent" cx="96.9" cy="-204.53" rx="44.39" ry="18"/>
<text text-anchor="middle" x="96.9" y="-200.83" font-family="Verdana" font-size="14.00">br %31</text>
</g>
<!-- i177830a0&#45;&gt;i17783150 -->
<g id="edge11" class="edge">
<title>i177830a0&#45;&gt;i17783150</title>
<path fill="none" stroke="lightgrey" d="M96.9,-168.21C96.9,-168.21 96.9,-176.25 96.9,-176.25"/>
<polygon fill="none" stroke="lightgrey" points="93.4,-176.25 96.9,-186.25 100.4,-176.25 93.4,-176.25"/>
</g>
<!-- i177831c0 -->
<g id="node5" class="node">
<title>i177831c0</title>
<ellipse fill="none" stroke="transparent" cx="116.07" cy="-259.23" rx="81.49" ry="18"/>
<text text-anchor="middle" x="116.07" y="-255.53" font-family="Verdana" font-size="14.00">%33 = load %9</text>
</g>
<!-- i177831c0&#45;&gt;i17783bb0 -->
<g id="edge12" class="edge">
<title>i177831c0&#45;&gt;i17783bb0</title>
<path fill="none" stroke="lightgrey" d="M190.71,-252C190.71,-252 210.84,-252 210.84,-252"/>
<polygon fill="lightgrey" stroke="lightgrey" points="220.84,-255.5 210.84,-252 220.84,-248.5 220.84,-255.5"/>
</g>
<!-- i17783250 -->
<g id="node19" class="node">
<title>i17783250</title>
<ellipse fill="none" stroke="transparent" cx="542.19" cy="-26.34" rx="96.68" ry="18"/>
<text text-anchor="middle" x="542.19" y="-22.64" font-family="Verdana" font-size="14.00">%34 = mul %33, 1</text>
</g>
<!-- i177831c0&#45;&gt;i17783250 -->
<g id="edge13" class="edge">
<title>i177831c0&#45;&gt;i17783250</title>
<path fill="none" stroke="lightgrey" d="M173.14,-246.27C173.14,-240.5 173.14,-235 173.14,-235 173.14,-235 497.72,-235 497.72,-235 497.72,-235 497.72,-52.36 497.72,-52.36"/>
<polygon fill="none" stroke="lightgrey" points="501.22,-52.36 497.72,-42.36 494.22,-52.36 501.22,-52.36"/>
</g>
<!-- i177831c0&#45;&gt;i17783250 -->
<g id="edge38" class="edge">
<title>i177831c0&#45;&gt;i17783250</title>
<path fill="none" stroke="lightgrey" d="M185.23,-249.78C185.23,-243.35 185.23,-236 185.23,-236 185.23,-236 550.1,-236 550.1,-236 550.1,-236 550.1,-54.58 550.1,-54.58"/>
<polygon fill="none" stroke="lightgrey" points="553.6,-54.58 550.1,-44.58 546.6,-54.58 553.6,-54.58"/>
</g>
<!-- i17783a90 -->
<g id="node6" class="node">
<title>i17783a90</title>
<ellipse fill="none" stroke="transparent" cx="340.9" cy="-150.53" rx="81.49" ry="18"/>
<text text-anchor="middle" x="340.9" y="-146.83" font-family="Verdana" font-size="14.00">%47 = load %9</text>
</g>
<!-- i17783b20 -->
<g id="node7" class="node">
<title>i17783b20</title>
<ellipse fill="none" stroke="transparent" cx="257.9" cy="-204.53" rx="96.68" ry="18"/>
<text text-anchor="middle" x="257.9" y="-200.83" font-family="Verdana" font-size="14.00">%48 = add %47, 1</text>
</g>
<!-- i17783a90&#45;&gt;i17783b20 -->
<g id="edge4" class="edge">
<title>i17783a90&#45;&gt;i17783b20</title>
<path fill="none" stroke="lightgrey" d="M307.2,-167.02C307.2,-167.02 307.2,-178.87 307.2,-178.87"/>
<polygon fill="none" stroke="lightgrey" points="303.7,-178.87 307.2,-188.87 310.7,-178.87 303.7,-178.87"/>
</g>
<!-- i17783a90&#45;&gt;i17783bb0 -->
<g id="edge3" class="edge">
<title>i17783a90&#45;&gt;i17783bb0</title>
<path fill="none" stroke="lightgrey" d="M370.72,-167.4C370.72,-167.4 370.72,-237.97 370.72,-237.97"/>
<polygon fill="lightgrey" stroke="lightgrey" points="367.22,-247.97 370.72,-237.97 374.22,-247.97 367.22,-247.97"/>
</g>
<!-- i17783b20&#45;&gt;i17783bb0 -->
<g id="edge5" class="edge">
<title>i17783b20&#45;&gt;i17783bb0</title>
<path fill="none" stroke="lightgrey" d="M284.92,-221.91C284.92,-221.91 284.92,-230.8 284.92,-230.8"/>
<polygon fill="none" stroke="lightgrey" points="281.42,-230.8 284.92,-240.8 288.42,-230.8 281.42,-230.8"/>
</g>
<!-- i17783bb0&#45;&gt;i17782fa0 -->
<g id="edge9" class="edge">
<title>i17783bb0&#45;&gt;i17782fa0</title>
<path fill="none" stroke="red" d="M386.71,-259C414.17,-259 437.61,-259 437.61,-259 437.61,-259 437.61,-49 437.61,-49 437.61,-49 291.77,-49 291.77,-49"/>
<polygon fill="red" stroke="red" points="291.77,-45.5 281.77,-49 291.77,-52.5 291.77,-45.5"/>
</g>
<!-- i17783bb0&#45;&gt;i177831c0 -->
<g id="edge8" class="edge">
<title>i17783bb0&#45;&gt;i177831c0</title>
<path fill="none" stroke="red" d="M219.02,-264C219.02,-264 204.61,-264 204.61,-264"/>
<polygon fill="red" stroke="red" points="204.61,-260.5 194.61,-264 204.61,-267.5 204.61,-260.5"/>
</g>
<!-- i17783bb0&#45;&gt;i17783a90 -->
<g id="edge7" class="edge">
<title>i17783bb0&#45;&gt;i17783a90</title>
<path fill="none" stroke="red" d="M362.73,-245.71C362.73,-245.71 362.73,-177.96 362.73,-177.96"/>
<polygon fill="red" stroke="red" points="366.23,-177.96 362.73,-167.96 359.23,-177.96 366.23,-177.96"/>
</g>
<!-- i17783bb0&#45;&gt;i17783bb0 -->
<g id="edge6" class="edge">
<title>i17783bb0&#45;&gt;i17783bb0</title>
<path fill="none" stroke="red" d="M370.82,-269.01C370.82,-274.46 370.82,-280 370.82,-280 370.82,-280 404.42,-280 404.42,-280 404.42,-280 404.42,-238 404.42,-238 404.42,-238 378.7,-238 378.7,-238 378.7,-238 378.7,-242.65 378.7,-242.65"/>
<ellipse fill="red" stroke="red" cx="378.7" cy="-246.65" rx="4" ry="4"/>
</g>
<!-- i177837b0 -->
<g id="node9" class="node">
<title>i177837b0</title>
<ellipse fill="none" stroke="transparent" cx="613.72" cy="-1198.56" rx="91.78" ry="18"/>
<text text-anchor="middle" x="613.72" y="-1194.86" font-family="Verdana" font-size="14.00">store %39 to %42</text>
</g>
<!-- i177837b0&#45;&gt;i177837b0 -->
<g id="edge14" class="edge">
<title>i177837b0&#45;&gt;i177837b0</title>
<path fill="none" stroke="red" d="M613.72,-1216.69C613.72,-1225.41 613.72,-1234 613.72,-1234 613.72,-1234 709.42,-1234 709.42,-1234 709.42,-1234 709.42,-1150 709.42,-1150 709.42,-1150 693.89,-1150 693.89,-1150 693.89,-1150 693.89,-1181.65 693.89,-1181.65"/>
<ellipse fill="red" stroke="red" cx="693.89" cy="-1185.65" rx="4" ry="4"/>
</g>
<!-- i17783500 -->
<g id="node10" class="node">
<title>i17783500</title>
<ellipse fill="none" stroke="transparent" cx="234.74" cy="-655.6" rx="123.48" ry="18"/>
<text text-anchor="middle" x="234.74" y="-651.9" font-family="Verdana" font-size="14.00">%38 = gep %17, 0, %37</text>
</g>
<!-- i17783580 -->
<g id="node11" class="node">
<title>i17783580</title>
<ellipse fill="none" stroke="transparent" cx="468.72" cy="-923.89" rx="87.18" ry="18"/>
<text text-anchor="middle" x="468.72" y="-920.19" font-family="Verdana" font-size="14.00">%39 = load %38</text>
</g>
<!-- i17783500&#45;&gt;i17783580 -->
<g id="edge17" class="edge">
<title>i17783500&#45;&gt;i17783580</title>
<path fill="none" stroke="lightgrey" d="M358.16,-657C426.49,-657 497.75,-657 497.75,-657 497.75,-657 497.75,-896.79 497.75,-896.79"/>
<polygon fill="none" stroke="lightgrey" points="494.25,-896.79 497.75,-906.79 501.25,-896.79 494.25,-896.79"/>
</g>
<!-- i17783500&#45;&gt;i17783580 -->
<g id="edge20" class="edge">
<title>i17783500&#45;&gt;i17783580</title>
<path fill="none" stroke="lightgrey" d="M344.12,-664C392.95,-664 439.69,-664 439.69,-664 439.69,-664 439.69,-896.84 439.69,-896.84"/>
<polygon fill="none" stroke="lightgrey" points="436.19,-896.84 439.69,-906.84 443.19,-896.84 436.19,-896.84"/>
</g>
<!-- i17783580&#45;&gt;i177837b0 -->
<g id="edge16" class="edge">
<title>i17783580&#45;&gt;i177837b0</title>
<path fill="none" stroke="lightgrey" d="M544.56,-933.03C544.56,-933.03 544.56,-1176.71 544.56,-1176.71"/>
<polygon fill="none" stroke="lightgrey" points="541.06,-1176.71 544.56,-1186.71 548.06,-1176.71 541.06,-1176.71"/>
</g>
<!-- i17783580&#45;&gt;i177837b0 -->
<g id="edge19" class="edge">
<title>i17783580&#45;&gt;i177837b0</title>
<path fill="none" stroke="lightgrey" d="M533.32,-936.05C533.32,-936.05 533.32,-1179.73 533.32,-1179.73"/>
<polygon fill="none" stroke="lightgrey" points="529.82,-1179.73 533.32,-1189.73 536.82,-1179.73 529.82,-1179.73"/>
</g>
<!-- i17783710 -->
<g id="node12" class="node">
<title>i17783710</title>
<ellipse fill="none" stroke="transparent" cx="909.26" cy="-1102.9" rx="123.48" ry="18"/>
<text text-anchor="middle" x="909.26" y="-1099.2" font-family="Verdana" font-size="14.00">%42 = gep %16, 0, %41</text>
</g>
<!-- i17783710&#45;&gt;i177837b0 -->
<g id="edge15" class="edge">
<title>i17783710&#45;&gt;i177837b0</title>
<path fill="none" stroke="lightgrey" d="M795.17,-1096C738.69,-1096 682.42,-1096 682.42,-1096 682.42,-1096 682.42,-1176.39 682.42,-1176.39"/>
<polygon fill="none" stroke="lightgrey" points="678.92,-1176.39 682.42,-1186.39 685.92,-1176.39 678.92,-1176.39"/>
</g>
<!-- i17783710&#45;&gt;i177837b0 -->
<g id="edge21" class="edge">
<title>i17783710&#45;&gt;i177837b0</title>
<path fill="none" stroke="lightgrey" d="M790.8,-1108C730.99,-1108 670.95,-1108 670.95,-1108 670.95,-1108 670.95,-1174.41 670.95,-1174.41"/>
<polygon fill="none" stroke="lightgrey" points="667.45,-1174.41 670.95,-1184.41 674.45,-1174.41 667.45,-1174.41"/>
</g>
<!-- i17783660 -->
<g id="node13" class="node">
<title>i17783660</title>
<ellipse fill="none" stroke="transparent" cx="948.55" cy="-741.69" rx="133.48" ry="18"/>
<text text-anchor="middle" x="948.55" y="-737.99" font-family="Verdana" font-size="14.00">%41 = sext i32 %40 to i64</text>
</g>
<!-- i17783660&#45;&gt;i17783710 -->
<g id="edge22" class="edge">
<title>i17783660&#45;&gt;i17783710</title>
<path fill="none" stroke="lightgrey" d="M960.27,-760.1C960.27,-760.1 960.27,-1076.22 960.27,-1076.22"/>
<polygon fill="none" stroke="lightgrey" points="956.77,-1076.22 960.27,-1086.22 963.77,-1076.22 956.77,-1076.22"/>
</g>
<!-- i17783660&#45;&gt;i17783710 -->
<g id="edge23" class="edge">
<title>i17783660&#45;&gt;i17783710</title>
<path fill="none" stroke="lightgrey" d="M887.79,-758.15C887.79,-758.15 887.79,-1075.08 887.79,-1075.08"/>
<polygon fill="none" stroke="lightgrey" points="884.29,-1075.08 887.79,-1085.08 891.29,-1075.08 884.29,-1075.08"/>
</g>
<!-- i17783450 -->
<g id="node14" class="node">
<title>i17783450</title>
<ellipse fill="none" stroke="transparent" cx="488.18" cy="-483.46" rx="133.48" ry="18"/>
<text text-anchor="middle" x="488.18" y="-479.76" font-family="Verdana" font-size="14.00">%37 = sext i32 %36 to i64</text>
</g>
<!-- i17783450&#45;&gt;i17783500 -->
<g id="edge18" class="edge">
<title>i17783450&#45;&gt;i17783500</title>
<path fill="none" stroke="lightgrey" d="M373.83,-493.02C373.83,-527.58 373.83,-644 373.83,-644 373.83,-644 339.44,-644 339.44,-644"/>
<polygon fill="none" stroke="lightgrey" points="339.44,-640.5 329.44,-644 339.44,-647.5 339.44,-640.5"/>
</g>
<!-- i17783450&#45;&gt;i17783500 -->
<g id="edge25" class="edge">
<title>i17783450&#45;&gt;i17783500</title>
<path fill="none" stroke="lightgrey" d="M366.03,-491.04C366.03,-523.63 366.03,-650 366.03,-650 366.03,-650 362.48,-650 362.48,-650"/>
<polygon fill="none" stroke="lightgrey" points="362.48,-646.5 352.48,-650 362.48,-653.5 362.48,-646.5"/>
</g>
<!-- i177832e0 -->
<g id="node15" class="node">
<title>i177832e0</title>
<ellipse fill="none" stroke="transparent" cx="838.36" cy="-130.73" rx="96.68" ry="18"/>
<text text-anchor="middle" x="838.36" y="-127.03" font-family="Verdana" font-size="14.00">%35 = add 0, %34</text>
</g>
<!-- i17783370 -->
<g id="node16" class="node">
<title>i17783370</title>
<ellipse fill="none" stroke="transparent" cx="865.44" cy="-431.32" rx="91.78" ry="18"/>
<text text-anchor="middle" x="865.44" y="-427.62" font-family="Verdana" font-size="14.00">store %35 to %15</text>
</g>
<!-- i177832e0&#45;&gt;i17783370 -->
<g id="edge27" class="edge">
<title>i177832e0&#45;&gt;i17783370</title>
<path fill="none" stroke="lightgrey" d="M881.4,-146.89C881.4,-146.89 881.4,-403.58 881.4,-403.58"/>
<polygon fill="none" stroke="lightgrey" points="877.9,-403.58 881.4,-413.58 884.9,-403.58 877.9,-403.58"/>
</g>
<!-- i177832e0&#45;&gt;i17783370 -->
<g id="edge34" class="edge">
<title>i177832e0&#45;&gt;i17783370</title>
<path fill="none" stroke="lightgrey" d="M827.6,-148.63C827.6,-148.63 827.6,-404.63 827.6,-404.63"/>
<polygon fill="none" stroke="lightgrey" points="824.1,-404.63 827.6,-414.63 831.1,-404.63 824.1,-404.63"/>
</g>
<!-- i17783370&#45;&gt;i17783370 -->
<g id="edge31" class="edge">
<title>i17783370&#45;&gt;i17783370</title>
<path fill="none" stroke="red" d="M934.1,-443.26C934.1,-449.96 934.1,-457 934.1,-457 934.1,-457 998.95,-457 998.95,-457 998.95,-457 998.95,-356 998.95,-356 998.95,-356 946.14,-356 946.14,-356 946.14,-356 946.14,-414.68 946.14,-414.68"/>
<ellipse fill="red" stroke="red" cx="946.14" cy="-418.68" rx="4" ry="4"/>
</g>
<!-- i177833e0 -->
<g id="node17" class="node">
<title>i177833e0</title>
<ellipse fill="none" stroke="transparent" cx="778.05" cy="-494.68" rx="87.18" ry="18"/>
<text text-anchor="middle" x="778.05" y="-490.98" font-family="Verdana" font-size="14.00">%36 = load %15</text>
</g>
<!-- i17783370&#45;&gt;i177833e0 -->
<g id="edge30" class="edge">
<title>i17783370&#45;&gt;i177833e0</title>
<path fill="none" stroke="lightgrey" d="M834.69,-448.3C834.69,-448.3 834.69,-470.65 834.69,-470.65"/>
<polygon fill="lightgrey" stroke="lightgrey" points="831.19,-470.65 834.69,-480.65 838.19,-470.65 831.19,-470.65"/>
</g>
<!-- i177835f0 -->
<g id="node18" class="node">
<title>i177835f0</title>
<ellipse fill="none" stroke="transparent" cx="876.62" cy="-538.68" rx="87.18" ry="18"/>
<text text-anchor="middle" x="876.62" y="-534.98" font-family="Verdana" font-size="14.00">%40 = load %15</text>
</g>
<!-- i17783370&#45;&gt;i177835f0 -->
<g id="edge29" class="edge">
<title>i17783370&#45;&gt;i177835f0</title>
<path fill="none" stroke="lightgrey" d="M911.11,-447.16C911.11,-447.16 911.11,-512.07 911.11,-512.07"/>
<polygon fill="lightgrey" stroke="lightgrey" points="907.61,-512.07 911.11,-522.07 914.61,-512.07 907.61,-512.07"/>
</g>
<!-- i177833e0&#45;&gt;i17783450 -->
<g id="edge26" class="edge">
<title>i177833e0&#45;&gt;i17783450</title>
<path fill="none" stroke="lightgrey" d="M707.88,-484C707.88,-484 631.5,-484 631.5,-484"/>
<polygon fill="none" stroke="lightgrey" points="631.5,-480.5 621.5,-484 631.5,-487.5 631.5,-480.5"/>
</g>
<!-- i177833e0&#45;&gt;i17783450 -->
<g id="edge35" class="edge">
<title>i177833e0&#45;&gt;i17783450</title>
<path fill="none" stroke="lightgrey" d="M691.08,-493C691.08,-493 611.41,-493 611.41,-493"/>
<polygon fill="none" stroke="lightgrey" points="611.41,-489.5 601.41,-493 611.41,-496.5 611.41,-489.5"/>
</g>
<!-- i177833e0&#45;&gt;i17783370 -->
<g id="edge32" class="edge">
<title>i177833e0&#45;&gt;i17783370</title>
<path fill="none" stroke="red" d="M804.25,-477.36C804.25,-477.36 804.25,-454.79 804.25,-454.79"/>
<polygon fill="red" stroke="red" points="807.75,-444.79 804.25,-454.79 800.75,-444.79 807.75,-444.79"/>
</g>
<!-- i177835f0&#45;&gt;i17783660 -->
<g id="edge24" class="edge">
<title>i177835f0&#45;&gt;i17783660</title>
<path fill="none" stroke="lightgrey" d="M914.24,-554.95C914.24,-554.95 914.24,-714.2 914.24,-714.2"/>
<polygon fill="none" stroke="lightgrey" points="910.74,-714.2 914.24,-724.2 917.74,-714.2 910.74,-714.2"/>
</g>
<!-- i177835f0&#45;&gt;i17783660 -->
<g id="edge36" class="edge">
<title>i177835f0&#45;&gt;i17783660</title>
<path fill="none" stroke="lightgrey" d="M864.77,-556.7C864.77,-556.7 864.77,-717.59 864.77,-717.59"/>
<polygon fill="none" stroke="lightgrey" points="861.28,-717.59 864.77,-727.59 868.28,-717.59 861.28,-717.59"/>
</g>
<!-- i177835f0&#45;&gt;i17783370 -->
<g id="edge33" class="edge">
<title>i177835f0&#45;&gt;i17783370</title>
<path fill="none" stroke="red" d="M888.13,-520.47C888.13,-520.47 888.13,-458.91 888.13,-458.91"/>
<polygon fill="red" stroke="red" points="891.63,-448.91 888.13,-458.91 884.63,-448.91 891.63,-448.91"/>
</g>
<!-- i17783250&#45;&gt;i177832e0 -->
<g id="edge28" class="edge">
<title>i17783250&#45;&gt;i177832e0</title>
<path fill="none" stroke="lightgrey" d="M626.85,-35.32C626.85,-58.76 626.85,-120 626.85,-120 626.85,-120 750.5,-120 750.5,-120"/>
<polygon fill="none" stroke="lightgrey" points="750.5,-123.5 760.5,-120 750.5,-116.5 750.5,-123.5"/>
</g>
<!-- i17783250&#45;&gt;i177832e0 -->
<g id="edge37" class="edge">
<title>i17783250&#45;&gt;i177832e0</title>
<path fill="none" stroke="lightgrey" d="M614.66,-38.56C614.66,-65.17 614.66,-126 614.66,-126 614.66,-126 734.79,-126 734.79,-126"/>
<polygon fill="none" stroke="lightgrey" points="734.79,-129.5 744.79,-126 734.79,-122.5 734.79,-129.5"/>
</g>
<!-- i177839b0 -->
<g id="node20" class="node">
<title>i177839b0</title>
<ellipse fill="none" stroke="transparent" cx="629.48" cy="-652.78" rx="27" ry="18"/>
<text text-anchor="middle" x="629.48" y="-649.08" font-family="Verdana" font-size="14.00">br</text>
</g>
<!-- i17783820 -->
<g id="node21" class="node">
<title>i17783820</title>
<ellipse fill="none" stroke="transparent" cx="1152.48" cy="-251.28" rx="118.08" ry="18"/>
<text text-anchor="middle" x="1152.48" y="-247.58" font-family="Verdana" font-size="14.00">%43 = load @loop_id_2</text>
</g>
<!-- i177838b0 -->
<g id="node22" class="node">
<title>i177838b0</title>
<ellipse fill="none" stroke="transparent" cx="1252.48" cy="-196.28" rx="96.68" ry="18"/>
<text text-anchor="middle" x="1252.48" y="-192.58" font-family="Verdana" font-size="14.00">%44 = add %43, 1</text>
</g>
<!-- i17783820&#45;&gt;i177838b0 -->
<g id="edge40" class="edge">
<title>i17783820&#45;&gt;i177838b0</title>
<path fill="none" stroke="lightgrey" d="M1213.2,-235.67C1213.2,-235.67 1213.2,-222.9 1213.2,-222.9"/>
<polygon fill="none" stroke="lightgrey" points="1216.7,-222.9 1213.2,-212.9 1209.7,-222.9 1216.7,-222.9"/>
</g>
<!-- i17783940 -->
<g id="node23" class="node">
<title>i17783940</title>
<ellipse fill="none" stroke="transparent" cx="1310.48" cy="-306.28" rx="122.38" ry="18"/>
<text text-anchor="middle" x="1310.48" y="-302.58" font-family="Verdana" font-size="14.00">store %44 to @loop_id_2</text>
</g>
<!-- i17783820&#45;&gt;i17783940 -->
<g id="edge39" class="edge">
<title>i17783820&#45;&gt;i17783940</title>
<path fill="none" stroke="lightgrey" d="M1243.27,-262.95C1243.27,-262.95 1243.27,-281.08 1243.27,-281.08"/>
<polygon fill="lightgrey" stroke="lightgrey" points="1239.77,-291.08 1243.27,-281.08 1246.77,-291.08 1239.77,-291.08"/>
</g>
<!-- i177838b0&#45;&gt;i17783940 -->
<g id="edge41" class="edge">
<title>i177838b0&#45;&gt;i17783940</title>
<path fill="none" stroke="lightgrey" d="M1310.04,-211.12C1310.04,-211.12 1310.04,-278.03 1310.04,-278.03"/>
<polygon fill="none" stroke="lightgrey" points="1306.54,-278.03 1310.04,-288.03 1313.54,-278.03 1306.54,-278.03"/>
</g>
<!-- i17783940&#45;&gt;i17783820 -->
<g id="edge43" class="edge">
<title>i17783940&#45;&gt;i17783820</title>
<path fill="none" stroke="red" d="M1215.78,-294.89C1215.78,-294.89 1215.78,-276.63 1215.78,-276.63"/>
<polygon fill="red" stroke="red" points="1219.28,-276.63 1215.78,-266.63 1212.28,-276.63 1219.28,-276.63"/>
</g>
<!-- i17783940&#45;&gt;i17783940 -->
<g id="edge42" class="edge">
<title>i17783940&#45;&gt;i17783940</title>
<path fill="none" stroke="red" d="M1310.48,-324.54C1310.48,-347.79 1310.48,-385 1310.48,-385 1310.48,-385 1450.67,-385 1450.67,-385 1450.67,-385 1450.67,-284 1450.67,-284 1450.67,-284 1390.99,-284 1390.99,-284 1390.99,-284 1390.99,-284.86 1390.99,-284.86"/>
<ellipse fill="red" stroke="red" cx="1390.99" cy="-288.55" rx="4" ry="4"/>
</g>
<!-- i17783c20 -->
<g id="node24" class="node">
<title>i17783c20</title>
<ellipse fill="none" stroke="transparent" cx="686.48" cy="-823.78" rx="27" ry="18"/>
<text text-anchor="middle" x="686.48" y="-820.08" font-family="Verdana" font-size="14.00">br</text>
</g>
<!-- i17783a20 -->
<g id="node25" class="node">
<title>i17783a20</title>
<ellipse fill="none" stroke="transparent" cx="629.48" cy="-310.78" rx="27" ry="18"/>
<text text-anchor="middle" x="629.48" y="-307.08" font-family="Verdana" font-size="14.00">br</text>
</g>
</g>
</svg>
