<?xml version="1.0" encoding="UTF-8" standalone="no"?>
<!DOCTYPE svg PUBLIC "-//W3C//DTD SVG 1.1//EN"
 "http://www.w3.org/Graphics/SVG/1.1/DTD/svg11.dtd">
<!-- Generated by graphviz version 2.43.0 (0)
 -->
<!-- Title: G Pages: 1 -->
<svg width="2264pt" height="342pt"
 viewBox="0.00 0.00 2263.91 342.00" xmlns="http://www.w3.org/2000/svg" xmlns:xlink="http://www.w3.org/1999/xlink">
<g id="graph0" class="graph" transform="scale(1 1) rotate(0) translate(27.91 328)">
<title>G</title>
<polygon fill="white" stroke="transparent" points="-27.91,14 -27.91,-328 2236,-328 2236,14 -27.91,14"/>
<g id="clust1" class="cluster">
<title>cluster_scc0</title>
<path fill="white" stroke="red" d="M12.24,0.36C12.24,0.36 2220.24,0.36 2220.24,0.36 2226.24,0.36 2232.24,-5.64 2232.24,-11.64 2232.24,-11.64 2232.24,-311.64 2232.24,-311.64 2232.24,-317.64 2226.24,-323.64 2220.24,-323.64 2220.24,-323.64 12.24,-323.64 12.24,-323.64 6.24,-323.64 0.24,-317.64 0.24,-311.64 0.24,-311.64 0.24,-11.64 0.24,-11.64 0.24,-5.64 6.24,0.36 12.24,0.36"/>
</g>
<!-- i317b5070 -->
<g id="node1" class="node">
<title>i317b5070</title>
<ellipse fill="none" stroke="transparent" cx="752.48" cy="-297.28" rx="81.49" ry="18"/>
<text text-anchor="middle" x="752.48" y="-293.58" font-family="Verdana" font-size="14.00">%24 = load %5</text>
</g>
<!-- i317b5100 -->
<g id="node2" class="node">
<title>i317b5100</title>
<ellipse fill="none" stroke="transparent" cx="841.48" cy="-93.28" rx="102.08" ry="18"/>
<text text-anchor="middle" x="841.48" y="-89.58" font-family="Verdana" font-size="14.00">%25 = icmp %24, 5</text>
</g>
<!-- i317b5070&#45;&gt;i317b5100 -->
<g id="edge4" class="edge">
<title>i317b5070&#45;&gt;i317b5100</title>
<path fill="none" stroke="lightgrey" d="M682.83,-288C495.35,-288 -5.91,-288 -5.91,-288 -5.91,-288 -5.91,-117 -5.91,-117 -5.91,-117 841.48,-117 841.48,-117 841.48,-117 841.48,-116.45 841.48,-116.45"/>
<polygon fill="none" stroke="lightgrey" points="844.98,-121.5 841.48,-111.5 837.98,-121.5 844.98,-121.5"/>
</g>
<!-- i317b52c0 -->
<g id="node4" class="node">
<title>i317b52c0</title>
<ellipse fill="none" stroke="transparent" cx="1507.48" cy="-229.28" rx="716.77" ry="18"/>
<text text-anchor="middle" x="1507.48" y="-225.58" font-family="Verdana" font-size="14.00">call __kmpc_fork_call (@, 2, void (i32*, i32*, ...)* bitcast (void (i32*, i32*, [16 x double]*, [16 x double]*)* @.omp_outlined. to void (i32*, i32*, ...)*), %3, %2)</text>
</g>
<!-- i317b5070&#45;&gt;i317b52c0 -->
<g id="edge3" class="edge">
<title>i317b5070&#45;&gt;i317b52c0</title>
<path fill="none" stroke="red" d="M826.53,-289.74C826.53,-289.74 826.53,-245.08 826.53,-245.08"/>
<polygon fill="red" stroke="red" points="830.03,-235.08 826.53,-245.08 823.03,-235.08 830.03,-235.08"/>
</g>
<!-- i317b53e0 -->
<g id="node5" class="node">
<title>i317b53e0</title>
<ellipse fill="none" stroke="transparent" cx="734.48" cy="-161.28" rx="725.97" ry="18"/>
<text text-anchor="middle" x="734.48" y="-157.58" font-family="Verdana" font-size="14.00">call __kmpc_fork_call (@, 2, void (i32*, i32*, ...)* bitcast (void (i32*, i32*, [16 x double]*, [16 x double]*)* @.omp_outlined..1 to void (i32*, i32*, ...)*), %2, %3)</text>
</g>
<!-- i317b5070&#45;&gt;i317b53e0 -->
<g id="edge2" class="edge">
<title>i317b5070&#45;&gt;i317b53e0</title>
<path fill="none" stroke="red" d="M774.01,-279.78C774.01,-279.78 774.01,-189.58 774.01,-189.58"/>
<polygon fill="red" stroke="red" points="777.51,-179.58 774.01,-189.58 770.51,-179.58 777.51,-179.58"/>
</g>
<!-- i317b55f0 -->
<g id="node8" class="node">
<title>i317b55f0</title>
<ellipse fill="none" stroke="transparent" cx="825.48" cy="-25.28" rx="85.59" ry="18"/>
<text text-anchor="middle" x="825.48" y="-21.58" font-family="Verdana" font-size="14.00">store %29 to %5</text>
</g>
<!-- i317b5070&#45;&gt;i317b55f0 -->
<g id="edge1" class="edge">
<title>i317b5070&#45;&gt;i317b55f0</title>
<path fill="none" stroke="lightgrey" d="M671.24,-297C472.83,-297 -20.31,-297 -20.31,-297 -20.31,-297 -20.31,-14 -20.31,-14 -20.31,-14 748.4,-14 748.4,-14"/>
<polygon fill="lightgrey" stroke="lightgrey" points="758.4,-17.5 748.4,-14 758.4,-10.5 758.4,-17.5"/>
</g>
<!-- i317b51b0 -->
<g id="node3" class="node">
<title>i317b51b0</title>
<ellipse fill="none" stroke="transparent" cx="664.48" cy="-93.28" rx="44.39" ry="18"/>
<text text-anchor="middle" x="664.48" y="-89.58" font-family="Verdana" font-size="14.00">br %25</text>
</g>
<!-- i317b5100&#45;&gt;i317b51b0 -->
<g id="edge5" class="edge">
<title>i317b5100&#45;&gt;i317b51b0</title>
<path fill="none" stroke="lightgrey" d="M739.28,-93C739.28,-93 718.98,-93 718.98,-93"/>
<polygon fill="none" stroke="lightgrey" points="718.98,-89.5 708.98,-93 718.98,-96.5 718.98,-89.5"/>
</g>
<!-- i317b52c0&#45;&gt;i317b5070 -->
<g id="edge15" class="edge">
<title>i317b52c0&#45;&gt;i317b5070</title>
<path fill="none" stroke="red" d="M819.34,-234.62C819.34,-234.62 819.34,-276.97 819.34,-276.97"/>
<polygon fill="red" stroke="red" points="815.84,-276.97 819.34,-286.97 822.84,-276.97 815.84,-276.97"/>
</g>
<!-- i317b52c0&#45;&gt;i317b52c0 -->
<g id="edge11" class="edge">
<title>i317b52c0&#45;&gt;i317b52c0</title>
<path fill="none" stroke="red" d="M812.15,-234.1C812.15,-240.77 812.15,-252 812.15,-252 812.15,-252 786.44,-252 786.44,-252 786.44,-252 786.44,-183 786.44,-183 786.44,-183 991.55,-183 991.55,-183 991.55,-183 991.55,-206.64 991.55,-206.64"/>
<polygon fill="red" stroke="red" points="988.05,-216.64 991.55,-206.64 995.05,-216.64 988.05,-216.64"/>
</g>
<!-- i317b52c0&#45;&gt;i317b52c0 -->
<g id="edge12" class="edge">
<title>i317b52c0&#45;&gt;i317b52c0</title>
<path fill="none" stroke="red" d="M804.97,-233.14C804.97,-240.75 804.97,-257 804.97,-257 804.97,-257 782.3,-257 782.3,-257 782.3,-257 782.3,-188 782.3,-188 782.3,-188 924.56,-188 924.56,-188 924.56,-188 924.56,-210.44 924.56,-210.44"/>
<ellipse fill="red" stroke="red" cx="924.56" cy="-214.44" rx="4" ry="4"/>
</g>
<!-- i317b52c0&#45;&gt;i317b52c0 -->
<g id="edge13" class="edge">
<title>i317b52c0&#45;&gt;i317b52c0</title>
<path fill="none" stroke="red" d="M797.78,-231.93C797.78,-239.88 797.78,-263 797.78,-263 797.78,-263 778.15,-263 778.15,-263 778.15,-263 778.15,-192 778.15,-192 778.15,-192 857.58,-192 857.58,-192 857.58,-192 857.58,-211.38 857.58,-211.38"/>
<polygon fill="red" stroke="red" points="854.08,-211.38 857.58,-221.38 861.08,-211.38 854.08,-211.38"/>
</g>
<!-- i317b52c0&#45;&gt;i317b53e0 -->
<g id="edge9" class="edge">
<title>i317b52c0&#45;&gt;i317b53e0</title>
<path fill="none" stroke="red" d="M1393.47,-211.42C1393.47,-211.42 1393.47,-178.85 1393.47,-178.85"/>
<polygon fill="red" stroke="red" points="1396.97,-168.85 1393.47,-178.85 1389.97,-168.85 1396.97,-168.85"/>
</g>
<!-- i317b52c0&#45;&gt;i317b53e0 -->
<g id="edge10" class="edge">
<title>i317b52c0&#45;&gt;i317b53e0</title>
<path fill="none" stroke="red" d="M1326.49,-211.77C1326.49,-211.77 1326.49,-179.94 1326.49,-179.94"/>
<ellipse fill="red" stroke="red" cx="1326.49" cy="-175.94" rx="4" ry="4"/>
</g>
<!-- i317b52c0&#45;&gt;i317b53e0 -->
<g id="edge14" class="edge">
<title>i317b52c0&#45;&gt;i317b53e0</title>
<path fill="none" stroke="red" d="M1259.5,-212.12C1259.5,-212.12 1259.5,-183.71 1259.5,-183.71"/>
<polygon fill="red" stroke="red" points="1263,-183.71 1259.5,-173.71 1256,-183.71 1263,-183.71"/>
</g>
<!-- i317b54d0 -->
<g id="node6" class="node">
<title>i317b54d0</title>
<ellipse fill="none" stroke="transparent" cx="684.48" cy="-229.28" rx="81.49" ry="18"/>
<text text-anchor="middle" x="684.48" y="-225.58" font-family="Verdana" font-size="14.00">%28 = load %5</text>
</g>
<!-- i317b52c0&#45;&gt;i317b54d0 -->
<g id="edge8" class="edge">
<title>i317b52c0&#45;&gt;i317b54d0</title>
<path fill="none" stroke="red" d="M790.38,-229C790.38,-229 775.98,-229 775.98,-229"/>
<polygon fill="red" stroke="red" points="775.98,-225.5 765.98,-229 775.98,-232.5 775.98,-225.5"/>
</g>
<!-- i317b52c0&#45;&gt;i317b55f0 -->
<g id="edge6" class="edge">
<title>i317b52c0&#45;&gt;i317b55f0</title>
<path fill="none" stroke="red" d="M1613.24,-211.44C1613.24,-163.6 1613.24,-36 1613.24,-36 1613.24,-36 902.69,-36 902.69,-36"/>
<ellipse fill="red" stroke="red" cx="898.69" cy="-36" rx="4" ry="4"/>
</g>
<!-- i317b52c0&#45;&gt;i317b55f0 -->
<g id="edge7" class="edge">
<title>i317b52c0&#45;&gt;i317b55f0</title>
<path fill="none" stroke="red" d="M1766.02,-212.47C1766.02,-164.09 1766.02,-28 1766.02,-28 1766.02,-28 920.6,-28 920.6,-28"/>
<polygon fill="red" stroke="red" points="910.6,-24.5 920.6,-28 910.6,-31.5 910.6,-24.5"/>
</g>
<!-- i317b53e0&#45;&gt;i317b5070 -->
<g id="edge25" class="edge">
<title>i317b53e0&#45;&gt;i317b5070</title>
<path fill="none" stroke="red" d="M769.86,-179.34C769.86,-179.34 769.86,-269.58 769.86,-269.58"/>
<polygon fill="red" stroke="red" points="766.36,-269.58 769.86,-279.58 773.36,-269.58 766.36,-269.58"/>
</g>
<!-- i317b53e0&#45;&gt;i317b52c0 -->
<g id="edge21" class="edge">
<title>i317b53e0&#45;&gt;i317b52c0</title>
<path fill="none" stroke="red" d="M1192.51,-175.37C1192.51,-175.37 1192.51,-202.82 1192.51,-202.82"/>
<polygon fill="red" stroke="red" points="1189.01,-212.82 1192.51,-202.82 1196.01,-212.82 1189.01,-212.82"/>
</g>
<!-- i317b53e0&#45;&gt;i317b52c0 -->
<g id="edge22" class="edge">
<title>i317b53e0&#45;&gt;i317b52c0</title>
<path fill="none" stroke="red" d="M1125.53,-176.71C1125.53,-176.71 1125.53,-205.91 1125.53,-205.91"/>
<ellipse fill="red" stroke="red" cx="1125.53" cy="-209.91" rx="4" ry="4"/>
</g>
<!-- i317b53e0&#45;&gt;i317b52c0 -->
<g id="edge23" class="edge">
<title>i317b53e0&#45;&gt;i317b52c0</title>
<path fill="none" stroke="red" d="M1058.54,-177.4C1058.54,-177.4 1058.54,-205.13 1058.54,-205.13"/>
<polygon fill="red" stroke="red" points="1055.04,-205.13 1058.54,-215.13 1062.04,-205.13 1055.04,-205.13"/>
</g>
<!-- i317b53e0&#45;&gt;i317b53e0 -->
<g id="edge19" class="edge">
<title>i317b53e0&#45;&gt;i317b53e0</title>
<path fill="none" stroke="red" d="M454.55,-177.93C454.55,-190.65 454.55,-206 454.55,-206 454.55,-206 -2.31,-206 -2.31,-206 -2.31,-206 -2.31,-124 -2.31,-124 -2.31,-124 467.33,-124 467.33,-124 467.33,-124 467.33,-134.39 467.33,-134.39"/>
<polygon fill="red" stroke="red" points="463.83,-144.39 467.33,-134.39 470.83,-144.39 463.83,-144.39"/>
</g>
<!-- i317b53e0&#45;&gt;i317b53e0 -->
<g id="edge20" class="edge">
<title>i317b53e0&#45;&gt;i317b53e0</title>
<path fill="none" stroke="red" d="M305.86,-175.98C305.86,-187.65 305.86,-202 305.86,-202 305.86,-202 1.29,-202 1.29,-202 1.29,-202 1.29,-130 1.29,-130 1.29,-130 314.39,-130 314.39,-130 314.39,-130 314.39,-138.37 314.39,-138.37"/>
<ellipse fill="red" stroke="red" cx="314.39" cy="-142.37" rx="4" ry="4"/>
</g>
<!-- i317b53e0&#45;&gt;i317b53e0 -->
<g id="edge24" class="edge">
<title>i317b53e0&#45;&gt;i317b53e0</title>
<path fill="none" stroke="red" d="M157.18,-172.58C157.18,-183.05 157.18,-197 157.18,-197 157.18,-197 4.89,-197 4.89,-197 4.89,-197 4.89,-136 4.89,-136 4.89,-136 161.44,-136 161.44,-136 161.44,-136 161.44,-140.12 161.44,-140.12"/>
<polygon fill="red" stroke="red" points="157.94,-140.12 161.44,-150.12 164.94,-140.12 157.94,-140.12"/>
</g>
<!-- i317b53e0&#45;&gt;i317b54d0 -->
<g id="edge18" class="edge">
<title>i317b53e0&#45;&gt;i317b54d0</title>
<path fill="none" stroke="red" d="M684.48,-179.5C684.48,-179.5 684.48,-201.01 684.48,-201.01"/>
<polygon fill="red" stroke="red" points="680.98,-201.01 684.48,-211.01 687.98,-201.01 680.98,-201.01"/>
</g>
<!-- i317b53e0&#45;&gt;i317b55f0 -->
<g id="edge16" class="edge">
<title>i317b53e0&#45;&gt;i317b55f0</title>
<path fill="none" stroke="red" d="M729.18,-143.24C729.18,-109.22 729.18,-39 729.18,-39 729.18,-39 761.74,-39 761.74,-39"/>
<ellipse fill="red" stroke="red" cx="765.74" cy="-39" rx="4" ry="4"/>
</g>
<!-- i317b53e0&#45;&gt;i317b55f0 -->
<g id="edge17" class="edge">
<title>i317b53e0&#45;&gt;i317b55f0</title>
<path fill="none" stroke="red" d="M724.05,-143.06C724.05,-108.32 724.05,-36 724.05,-36 724.05,-36 746.42,-36 746.42,-36"/>
<polygon fill="red" stroke="red" points="756.42,-39.5 746.42,-36 756.42,-32.5 756.42,-39.5"/>
</g>
<!-- i317b5560 -->
<g id="node7" class="node">
<title>i317b5560</title>
<ellipse fill="none" stroke="transparent" cx="955.48" cy="-297.28" rx="96.68" ry="18"/>
<text text-anchor="middle" x="955.48" y="-293.58" font-family="Verdana" font-size="14.00">%29 = add %28, 1</text>
</g>
<!-- i317b54d0&#45;&gt;i317b5560 -->
<g id="edge27" class="edge">
<title>i317b54d0&#45;&gt;i317b5560</title>
<path fill="none" stroke="lightgrey" d="M718.48,-245.93C718.48,-256.42 718.48,-268 718.48,-268 718.48,-268 987.76,-268 987.76,-268 987.76,-268 987.76,-270.25 987.76,-270.25"/>
<polygon fill="none" stroke="lightgrey" points="984.26,-270.25 987.76,-280.25 991.26,-270.25 984.26,-270.25"/>
</g>
<!-- i317b54d0&#45;&gt;i317b55f0 -->
<g id="edge26" class="edge">
<title>i317b54d0&#45;&gt;i317b55f0</title>
<path fill="none" stroke="lightgrey" d="M608.22,-223C427.94,-223 -9.51,-223 -9.51,-223 -9.51,-223 -9.51,-25 -9.51,-25 -9.51,-25 729.65,-25 729.65,-25"/>
<polygon fill="lightgrey" stroke="lightgrey" points="739.65,-28.5 729.65,-25 739.65,-21.5 739.65,-28.5"/>
</g>
<!-- i317b5560&#45;&gt;i317b55f0 -->
<g id="edge28" class="edge">
<title>i317b5560&#45;&gt;i317b55f0</title>
<path fill="none" stroke="lightgrey" d="M923.2,-280.15C923.2,-276.14 923.2,-273 923.2,-273 923.2,-273 -16.71,-273 -16.71,-273 -16.71,-273 -16.71,-18 -16.71,-18 -16.71,-18 737,-18 737,-18"/>
<polygon fill="none" stroke="lightgrey" points="737,-21.5 747,-18 737,-14.5 737,-21.5"/>
</g>
<!-- i317b55f0&#45;&gt;i317b5070 -->
<g id="edge35" class="edge">
<title>i317b55f0&#45;&gt;i317b5070</title>
<path fill="none" stroke="red" d="M780.11,-10C604.1,-10 -23.91,-10 -23.91,-10 -23.91,-10 -23.91,-306 -23.91,-306 -23.91,-306 671.17,-306 671.17,-306"/>
<polygon fill="red" stroke="red" points="671.17,-309.5 681.17,-306 671.17,-302.5 671.17,-309.5"/>
</g>
<!-- i317b55f0&#45;&gt;i317b52c0 -->
<g id="edge32" class="edge">
<title>i317b55f0&#45;&gt;i317b52c0</title>
<path fill="none" stroke="red" d="M909,-21C1164.58,-21 1918.8,-21 1918.8,-21 1918.8,-21 1918.8,-206.3 1918.8,-206.3"/>
<ellipse fill="red" stroke="red" cx="1918.8" cy="-210.3" rx="4" ry="4"/>
</g>
<!-- i317b55f0&#45;&gt;i317b52c0 -->
<g id="edge33" class="edge">
<title>i317b55f0&#45;&gt;i317b52c0</title>
<path fill="none" stroke="red" d="M892.47,-14C1151.3,-14 2071.58,-14 2071.58,-14 2071.58,-14 2071.58,-208.01 2071.58,-208.01"/>
<polygon fill="red" stroke="red" points="2068.08,-208.01 2071.58,-218.01 2075.08,-208.01 2068.08,-208.01"/>
</g>
<!-- i317b55f0&#45;&gt;i317b53e0 -->
<g id="edge31" class="edge">
<title>i317b55f0&#45;&gt;i317b53e0</title>
<path fill="none" stroke="red" d="M745.81,-32C730.4,-32 718.93,-32 718.93,-32 718.93,-32 718.93,-133.03 718.93,-133.03"/>
<polygon fill="red" stroke="red" points="715.43,-133.03 718.93,-143.03 722.43,-133.03 715.43,-133.03"/>
</g>
<!-- i317b55f0&#45;&gt;i317b53e0 -->
<g id="edge34" class="edge">
<title>i317b55f0&#45;&gt;i317b53e0</title>
<path fill="none" stroke="red" d="M740.55,-28C725.12,-28 713.8,-28 713.8,-28 713.8,-28 713.8,-135.03 713.8,-135.03"/>
<ellipse fill="red" stroke="red" cx="713.8" cy="-139.03" rx="4" ry="4"/>
</g>
<!-- i317b55f0&#45;&gt;i317b54d0 -->
<g id="edge30" class="edge">
<title>i317b55f0&#45;&gt;i317b54d0</title>
<path fill="none" stroke="red" d="M742,-21C529.89,-21 -13.11,-21 -13.11,-21 -13.11,-21 -13.11,-235 -13.11,-235 -13.11,-235 597.16,-235 597.16,-235"/>
<polygon fill="red" stroke="red" points="597.16,-238.5 607.16,-235 597.16,-231.5 597.16,-238.5"/>
</g>
<!-- i317b55f0&#45;&gt;i317b55f0 -->
<g id="edge29" class="edge">
<title>i317b55f0&#45;&gt;i317b55f0</title>
<path fill="none" stroke="red" d="M825.48,-43.33C825.48,-51.34 825.48,-59 825.48,-59 825.48,-59 734.31,-59 734.31,-59 734.31,-59 734.31,10 734.31,10 734.31,10 825.48,10 825.48,10 825.48,10 825.48,0.77 825.48,0.77"/>
<ellipse fill="red" stroke="red" cx="825.48" cy="-3.23" rx="4" ry="4"/>
</g>
</g>
</svg>
