<?xml version="1.0" encoding="UTF-8" standalone="no"?>
<!DOCTYPE svg PUBLIC "-//W3C//DTD SVG 1.1//EN"
 "http://www.w3.org/Graphics/SVG/1.1/DTD/svg11.dtd">
<!-- Generated by graphviz version 2.43.0 (0)
 -->
<!-- Title: G Pages: 1 -->
<svg width="1142pt" height="668pt"
 viewBox="0.00 0.00 1142.00 668.00" xmlns="http://www.w3.org/2000/svg" xmlns:xlink="http://www.w3.org/1999/xlink">
<g id="graph0" class="graph" transform="scale(1 1) rotate(0) translate(4 664)">
<title>G</title>
<polygon fill="white" stroke="transparent" points="-4,4 -4,-664 1138,-664 1138,4 -4,4"/>
<g id="clust1" class="cluster">
<title>cluster_scc0</title>
<path fill="white" stroke="red" d="M588.1,-288.39C588.1,-288.39 994.1,-288.39 994.1,-288.39 1000.1,-288.39 1006.1,-294.39 1006.1,-300.39 1006.1,-300.39 1006.1,-544.39 1006.1,-544.39 1006.1,-550.39 1000.1,-556.39 994.1,-556.39 994.1,-556.39 588.1,-556.39 588.1,-556.39 582.1,-556.39 576.1,-550.39 576.1,-544.39 576.1,-544.39 576.1,-300.39 576.1,-300.39 576.1,-294.39 582.1,-288.39 588.1,-288.39"/>
</g>
<g id="clust2" class="cluster">
<title>cluster_scc1</title>
<path fill="white" stroke="red" d="M156.35,-563.63C156.35,-563.63 331.35,-563.63 331.35,-563.63 337.35,-563.63 343.35,-569.63 343.35,-575.63 343.35,-575.63 343.35,-603.63 343.35,-603.63 343.35,-609.63 337.35,-615.63 331.35,-615.63 331.35,-615.63 156.35,-615.63 156.35,-615.63 150.35,-615.63 144.35,-609.63 144.35,-603.63 144.35,-603.63 144.35,-575.63 144.35,-575.63 144.35,-569.63 150.35,-563.63 156.35,-563.63"/>
</g>
<g id="clust3" class="cluster">
<title>cluster_scc2</title>
<path fill="white" stroke="red" d="M139.25,-181.67C139.25,-181.67 487.25,-181.67 487.25,-181.67 493.25,-181.67 499.25,-187.67 499.25,-193.67 499.25,-193.67 499.25,-403.67 499.25,-403.67 499.25,-409.67 493.25,-415.67 487.25,-415.67 487.25,-415.67 139.25,-415.67 139.25,-415.67 133.25,-415.67 127.25,-409.67 127.25,-403.67 127.25,-403.67 127.25,-193.67 127.25,-193.67 127.25,-187.67 133.25,-181.67 139.25,-181.67"/>
</g>
<!-- i30686bb0 -->
<g id="node1" class="node">
<title>i30686bb0</title>
<ellipse fill="none" stroke="transparent" cx="782.34" cy="-314.03" rx="81.49" ry="18"/>
<text text-anchor="middle" x="782.34" y="-310.33" font-family="Verdana" font-size="14.00">%29 = load %9</text>
</g>
<!-- i30686cb0 -->
<g id="node3" class="node">
<title>i30686cb0</title>
<ellipse fill="none" stroke="transparent" cx="700.34" cy="-422.03" rx="116.18" ry="18"/>
<text text-anchor="middle" x="700.34" y="-418.33" font-family="Verdana" font-size="14.00">%31 = icmp %29, %30</text>
</g>
<!-- i30686bb0&#45;&gt;i30686cb0 -->
<g id="edge9" class="edge">
<title>i30686bb0&#45;&gt;i30686cb0</title>
<path fill="none" stroke="lightgrey" d="M701.87,-311C690.85,-311 683.23,-311 683.23,-311 683.23,-311 683.23,-394.19 683.23,-394.19"/>
<polygon fill="none" stroke="lightgrey" points="679.73,-394.19 683.23,-404.19 686.73,-394.19 679.73,-394.19"/>
</g>
<!-- i306880c0 -->
<g id="node8" class="node">
<title>i306880c0</title>
<ellipse fill="none" stroke="transparent" cx="877.34" cy="-530.03" rx="85.59" ry="18"/>
<text text-anchor="middle" x="877.34" y="-526.33" font-family="Verdana" font-size="14.00">store %54 to %9</text>
</g>
<!-- i30686bb0&#45;&gt;i306880c0 -->
<g id="edge8" class="edge">
<title>i30686bb0&#45;&gt;i306880c0</title>
<path fill="none" stroke="lightgrey" d="M859.17,-320C923.12,-320 1003.77,-320 1003.77,-320 1003.77,-320 1003.77,-524 1003.77,-524 1003.77,-524 968.48,-524 968.48,-524"/>
<polygon fill="lightgrey" stroke="lightgrey" points="958.48,-520.5 968.48,-524 958.48,-527.5 958.48,-520.5"/>
</g>
<!-- i30686c20 -->
<g id="node2" class="node">
<title>i30686c20</title>
<ellipse fill="none" stroke="transparent" cx="788.34" cy="-368.03" rx="87.18" ry="18"/>
<text text-anchor="middle" x="788.34" y="-364.33" font-family="Verdana" font-size="14.00">%30 = load %12</text>
</g>
<!-- i30686c20&#45;&gt;i30686cb0 -->
<g id="edge10" class="edge">
<title>i30686c20&#45;&gt;i30686cb0</title>
<path fill="none" stroke="lightgrey" d="M758.97,-385.12C758.97,-385.12 758.97,-396.34 758.97,-396.34"/>
<polygon fill="none" stroke="lightgrey" points="755.47,-396.34 758.97,-406.34 762.47,-396.34 755.47,-396.34"/>
</g>
<!-- i30686d60 -->
<g id="node4" class="node">
<title>i30686d60</title>
<ellipse fill="none" stroke="transparent" cx="673.34" cy="-476.03" rx="44.39" ry="18"/>
<text text-anchor="middle" x="673.34" y="-472.33" font-family="Verdana" font-size="14.00">br %31</text>
</g>
<!-- i30686cb0&#45;&gt;i30686d60 -->
<g id="edge11" class="edge">
<title>i30686cb0&#45;&gt;i30686d60</title>
<path fill="none" stroke="lightgrey" d="M673.34,-439.71C673.34,-439.71 673.34,-447.75 673.34,-447.75"/>
<polygon fill="none" stroke="lightgrey" points="669.84,-447.75 673.34,-457.75 676.84,-447.75 669.84,-447.75"/>
</g>
<!-- i30686dd0 -->
<g id="node5" class="node">
<title>i30686dd0</title>
<ellipse fill="none" stroke="transparent" cx="691.91" cy="-530.54" rx="81.49" ry="18"/>
<text text-anchor="middle" x="691.91" y="-526.84" font-family="Verdana" font-size="14.00">%33 = load %9</text>
</g>
<!-- i30686dd0&#45;&gt;i306880c0 -->
<g id="edge12" class="edge">
<title>i30686dd0&#45;&gt;i306880c0</title>
<path fill="none" stroke="lightgrey" d="M767.6,-524C767.6,-524 786.46,-524 786.46,-524"/>
<polygon fill="lightgrey" stroke="lightgrey" points="796.46,-527.5 786.46,-524 796.46,-520.5 796.46,-527.5"/>
</g>
<!-- i30686e60 -->
<g id="node14" class="node">
<title>i30686e60</title>
<ellipse fill="none" stroke="transparent" cx="1073.93" cy="-380.14" rx="59.59" ry="18"/>
<text text-anchor="middle" x="1073.93" y="-376.44" font-family="Verdana" font-size="14.00">i30686e60</text>
</g>
<!-- i30686dd0&#45;&gt;i30686e60 -->
<g id="edge13" class="edge">
<title>i30686dd0&#45;&gt;i30686e60</title>
<path fill="none" stroke="lightgrey" d="M755.33,-519.16C755.33,-510.12 755.33,-499 755.33,-499 755.33,-499 1073.93,-499 1073.93,-499 1073.93,-499 1073.93,-408.19 1073.93,-408.19"/>
<polygon fill="none" stroke="lightgrey" points="1077.43,-408.19 1073.93,-398.19 1070.43,-408.19 1077.43,-408.19"/>
</g>
<!-- i30687fa0 -->
<g id="node6" class="node">
<title>i30687fa0</title>
<ellipse fill="none" stroke="transparent" cx="917.34" cy="-422.03" rx="81.49" ry="18"/>
<text text-anchor="middle" x="917.34" y="-418.33" font-family="Verdana" font-size="14.00">%53 = load %9</text>
</g>
<!-- i30688030 -->
<g id="node7" class="node">
<title>i30688030</title>
<ellipse fill="none" stroke="transparent" cx="834.34" cy="-476.03" rx="96.68" ry="18"/>
<text text-anchor="middle" x="834.34" y="-472.33" font-family="Verdana" font-size="14.00">%54 = add %53, 1</text>
</g>
<!-- i30687fa0&#45;&gt;i30688030 -->
<g id="edge2" class="edge">
<title>i30687fa0&#45;&gt;i30688030</title>
<path fill="none" stroke="lightgrey" d="M883.64,-438.53C883.64,-438.53 883.64,-450.38 883.64,-450.38"/>
<polygon fill="none" stroke="lightgrey" points="880.14,-450.38 883.64,-460.38 887.14,-450.38 880.14,-450.38"/>
</g>
<!-- i30687fa0&#45;&gt;i306880c0 -->
<g id="edge1" class="edge">
<title>i30687fa0&#45;&gt;i306880c0</title>
<path fill="none" stroke="lightgrey" d="M939.17,-439.38C939.17,-439.38 939.17,-507.45 939.17,-507.45"/>
<polygon fill="lightgrey" stroke="lightgrey" points="935.67,-517.45 939.17,-507.45 942.67,-517.45 935.67,-517.45"/>
</g>
<!-- i30688030&#45;&gt;i306880c0 -->
<g id="edge3" class="edge">
<title>i30688030&#45;&gt;i306880c0</title>
<path fill="none" stroke="lightgrey" d="M861.37,-493.42C861.37,-493.42 861.37,-502.31 861.37,-502.31"/>
<polygon fill="none" stroke="lightgrey" points="857.87,-502.31 861.37,-512.31 864.87,-502.31 857.87,-502.31"/>
</g>
<!-- i306880c0&#45;&gt;i30686bb0 -->
<g id="edge7" class="edge">
<title>i306880c0&#45;&gt;i30686bb0</title>
<path fill="none" stroke="red" d="M958.44,-536C985.53,-536 1008.95,-536 1008.95,-536 1008.95,-536 1008.95,-308 1008.95,-308 1008.95,-308 869.06,-308 869.06,-308"/>
<polygon fill="red" stroke="red" points="869.06,-304.5 859.06,-308 869.06,-311.5 869.06,-304.5"/>
</g>
<!-- i306880c0&#45;&gt;i30686dd0 -->
<g id="edge6" class="edge">
<title>i306880c0&#45;&gt;i30686dd0</title>
<path fill="none" stroke="red" d="M796.28,-536C796.28,-536 779.57,-536 779.57,-536"/>
<polygon fill="red" stroke="red" points="779.57,-532.5 769.57,-536 779.57,-539.5 779.57,-532.5"/>
</g>
<!-- i306880c0&#45;&gt;i30687fa0 -->
<g id="edge5" class="edge">
<title>i306880c0&#45;&gt;i30687fa0</title>
<path fill="none" stroke="red" d="M947.16,-519.28C947.16,-519.28 947.16,-449.09 947.16,-449.09"/>
<polygon fill="red" stroke="red" points="950.66,-449.09 947.16,-439.09 943.66,-449.09 950.66,-449.09"/>
</g>
<!-- i306880c0&#45;&gt;i306880c0 -->
<g id="edge4" class="edge">
<title>i306880c0&#45;&gt;i306880c0</title>
<path fill="none" stroke="red" d="M877.34,-548.07C877.34,-552.5 877.34,-556 877.34,-556 877.34,-556 980.86,-556 980.86,-556 980.86,-556 980.86,-505 980.86,-505 980.86,-505 955.15,-505 955.15,-505 955.15,-505 955.15,-514.39 955.15,-514.39"/>
<ellipse fill="red" stroke="red" cx="955.15" cy="-518.39" rx="4" ry="4"/>
</g>
<!-- i30683a00 -->
<g id="node9" class="node">
<title>i30683a00</title>
<ellipse fill="none" stroke="transparent" cx="243.88" cy="-590.04" rx="91.78" ry="18"/>
<text text-anchor="middle" x="243.88" y="-586.34" font-family="Verdana" font-size="14.00">store %47 to %50</text>
</g>
<!-- i30683a00&#45;&gt;i30683a00 -->
<g id="edge14" class="edge">
<title>i30683a00&#45;&gt;i30683a00</title>
<path fill="none" stroke="red" d="M214.16,-607.1C214.16,-611.49 214.16,-615 214.16,-615 214.16,-615 146.51,-615 146.51,-615 146.51,-615 146.51,-564 146.51,-564 146.51,-564 162.93,-564 162.93,-564 162.93,-564 162.93,-573.51 162.93,-573.51"/>
<ellipse fill="red" stroke="red" cx="162.93" cy="-577.51" rx="4" ry="4"/>
</g>
<!-- i30683840 -->
<g id="node10" class="node">
<title>i30683840</title>
<ellipse fill="none" stroke="transparent" cx="222.15" cy="-278.4" rx="87.18" ry="18"/>
<text text-anchor="middle" x="222.15" y="-274.7" font-family="Verdana" font-size="14.00">%48 = load %15</text>
</g>
<!-- i30686f80 -->
<g id="node11" class="node">
<title>i30686f80</title>
<ellipse fill="none" stroke="transparent" cx="292.97" cy="-389.78" rx="91.78" ry="18"/>
<text text-anchor="middle" x="292.97" y="-386.08" font-family="Verdana" font-size="14.00">store %35 to %15</text>
</g>
<!-- i30683840&#45;&gt;i30686f80 -->
<g id="edge19" class="edge">
<title>i30683840&#45;&gt;i30686f80</title>
<path fill="none" stroke="red" d="M237.3,-296.29C237.3,-296.29 237.3,-365.47 237.3,-365.47"/>
<polygon fill="red" stroke="red" points="233.8,-375.47 237.3,-365.47 240.8,-375.47 233.8,-375.47"/>
</g>
<!-- i306838b0 -->
<g id="node19" class="node">
<title>i306838b0</title>
<ellipse fill="none" stroke="transparent" cx="59.43" cy="-398.74" rx="59.59" ry="18"/>
<text text-anchor="middle" x="59.43" y="-395.04" font-family="Verdana" font-size="14.00">i306838b0</text>
</g>
<!-- i30683840&#45;&gt;i306838b0 -->
<g id="edge26" class="edge">
<title>i30683840&#45;&gt;i306838b0</title>
<path fill="none" stroke="lightgrey" d="M140.79,-284.94C140.79,-309.4 140.79,-394 140.79,-394 140.79,-394 127.25,-394 127.25,-394"/>
<polygon fill="none" stroke="lightgrey" points="127.25,-390.5 117.25,-394 127.25,-397.5 127.25,-390.5"/>
</g>
<!-- i30686f80&#45;&gt;i30683840 -->
<g id="edge23" class="edge">
<title>i30686f80&#45;&gt;i30683840</title>
<path fill="none" stroke="lightgrey" d="M273.27,-371.88C273.27,-371.88 273.27,-303.05 273.27,-303.05"/>
<polygon fill="lightgrey" stroke="lightgrey" points="276.77,-303.05 273.27,-293.05 269.77,-303.05 276.77,-303.05"/>
</g>
<!-- i30686f80&#45;&gt;i30686f80 -->
<g id="edge22" class="edge">
<title>i30686f80&#45;&gt;i30686f80</title>
<path fill="none" stroke="red" d="M368.25,-400.11C368.25,-405.91 368.25,-412 368.25,-412 368.25,-412 390.15,-412 390.15,-412 390.15,-412 390.15,-360 390.15,-360 390.15,-360 367.78,-360 367.78,-360 367.78,-360 367.78,-371.36 367.78,-371.36"/>
<ellipse fill="red" stroke="red" cx="367.78" cy="-375.36" rx="4" ry="4"/>
</g>
<!-- i30686ff0 -->
<g id="node12" class="node">
<title>i30686ff0</title>
<ellipse fill="none" stroke="transparent" cx="404.35" cy="-318.95" rx="87.18" ry="18"/>
<text text-anchor="middle" x="404.35" y="-315.25" font-family="Verdana" font-size="14.00">%36 = load %15</text>
</g>
<!-- i30686f80&#45;&gt;i30686ff0 -->
<g id="edge21" class="edge">
<title>i30686f80&#45;&gt;i30686ff0</title>
<path fill="none" stroke="lightgrey" d="M334.1,-373.35C334.1,-373.35 334.1,-339.79 334.1,-339.79"/>
<polygon fill="lightgrey" stroke="lightgrey" points="337.6,-339.79 334.1,-329.79 330.6,-339.79 337.6,-339.79"/>
</g>
<!-- i30687290 -->
<g id="node13" class="node">
<title>i30687290</title>
<ellipse fill="none" stroke="transparent" cx="333.53" cy="-207.57" rx="87.18" ry="18"/>
<text text-anchor="middle" x="333.53" y="-203.87" font-family="Verdana" font-size="14.00">%41 = load %15</text>
</g>
<!-- i30686f80&#45;&gt;i30687290 -->
<g id="edge20" class="edge">
<title>i30686f80&#45;&gt;i30687290</title>
<path fill="none" stroke="lightgrey" d="M311.92,-371.97C311.92,-371.97 311.92,-235.18 311.92,-235.18"/>
<polygon fill="lightgrey" stroke="lightgrey" points="315.42,-235.18 311.92,-225.18 308.42,-235.18 315.42,-235.18"/>
</g>
<!-- i30686ff0&#45;&gt;i30686f80 -->
<g id="edge17" class="edge">
<title>i30686ff0&#45;&gt;i30686f80</title>
<path fill="none" stroke="red" d="M350.94,-333.28C350.94,-333.28 350.94,-365.47 350.94,-365.47"/>
<polygon fill="red" stroke="red" points="347.44,-375.47 350.94,-365.47 354.44,-375.47 347.44,-375.47"/>
</g>
<!-- i30687080 -->
<g id="node17" class="node">
<title>i30687080</title>
<ellipse fill="none" stroke="transparent" cx="605.56" cy="-162.34" rx="59.59" ry="18"/>
<text text-anchor="middle" x="605.56" y="-158.64" font-family="Verdana" font-size="14.00">i30687080</text>
</g>
<!-- i30686ff0&#45;&gt;i30687080 -->
<g id="edge24" class="edge">
<title>i30686ff0&#45;&gt;i30687080</title>
<path fill="none" stroke="lightgrey" d="M491.2,-321C529.02,-321 564.89,-321 564.89,-321 564.89,-321 564.89,-185.59 564.89,-185.59"/>
<polygon fill="none" stroke="lightgrey" points="568.39,-185.59 564.89,-175.59 561.39,-185.59 568.39,-185.59"/>
</g>
<!-- i30687290&#45;&gt;i30686f80 -->
<g id="edge18" class="edge">
<title>i30687290&#45;&gt;i30686f80</title>
<path fill="none" stroke="red" d="M314.59,-225.38C314.59,-225.38 314.59,-362.17 314.59,-362.17"/>
<polygon fill="red" stroke="red" points="311.09,-372.17 314.59,-362.17 318.09,-372.17 311.09,-372.17"/>
</g>
<!-- i30687320 -->
<g id="node18" class="node">
<title>i30687320</title>
<ellipse fill="none" stroke="transparent" cx="156.5" cy="-17.65" rx="59.59" ry="18"/>
<text text-anchor="middle" x="156.5" y="-13.95" font-family="Verdana" font-size="14.00">i30687320</text>
</g>
<!-- i30687290&#45;&gt;i30687320 -->
<g id="edge25" class="edge">
<title>i30687290&#45;&gt;i30687320</title>
<path fill="none" stroke="lightgrey" d="M246.29,-207C209.78,-207 175.68,-207 175.68,-207 175.68,-207 175.68,-44.79 175.68,-44.79"/>
<polygon fill="none" stroke="lightgrey" points="179.18,-44.79 175.68,-34.79 172.18,-44.79 179.18,-44.79"/>
</g>
<!-- i30683960 -->
<g id="node15" class="node">
<title>i30683960</title>
<ellipse fill="none" stroke="transparent" cx="335.88" cy="-641.64" rx="59.59" ry="18"/>
<text text-anchor="middle" x="335.88" y="-637.94" font-family="Verdana" font-size="14.00">i30683960</text>
</g>
<!-- i30683960&#45;&gt;i30683a00 -->
<g id="edge15" class="edge">
<title>i30683960&#45;&gt;i30683a00</title>
<path fill="none" stroke="lightgrey" d="M305.8,-625.87C305.8,-625.87 305.8,-613.61 305.8,-613.61"/>
<polygon fill="none" stroke="lightgrey" points="309.3,-613.61 305.8,-603.61 302.3,-613.61 309.3,-613.61"/>
</g>
<!-- i306837d0 -->
<g id="node16" class="node">
<title>i306837d0</title>
<ellipse fill="none" stroke="transparent" cx="233.42" cy="-498.04" rx="59.59" ry="18"/>
<text text-anchor="middle" x="233.42" y="-494.34" font-family="Verdana" font-size="14.00">i306837d0</text>
</g>
<!-- i306837d0&#45;&gt;i30683a00 -->
<g id="edge16" class="edge">
<title>i306837d0&#45;&gt;i30683a00</title>
<path fill="none" stroke="lightgrey" d="M233.42,-516.21C233.42,-516.21 233.42,-561.9 233.42,-561.9"/>
<polygon fill="none" stroke="lightgrey" points="229.92,-561.9 233.42,-571.9 236.92,-561.9 229.92,-561.9"/>
</g>
<!-- i30686ef0 -->
<g id="node20" class="node">
<title>i30686ef0</title>
<ellipse fill="none" stroke="transparent" cx="457.24" cy="-529.17" rx="57.39" ry="18"/>
<text text-anchor="middle" x="457.24" y="-525.47" font-family="Verdana" font-size="14.00">i30686ef0</text>
</g>
<!-- i30686ef0&#45;&gt;i30686f80 -->
<g id="edge27" class="edge">
<title>i30686ef0&#45;&gt;i30686f80</title>
<path fill="none" stroke="lightgrey" d="M400.25,-531C375.42,-531 351.89,-531 351.89,-531 351.89,-531 351.89,-413.57 351.89,-413.57"/>
<polygon fill="none" stroke="lightgrey" points="355.39,-413.57 351.89,-403.57 348.39,-413.57 355.39,-413.57"/>
</g>
</g>
</svg>
